G04 #@! TF.FileFunction,Copper,L2,Inr,Plane*
%FSLAX46Y46*%
G04 Gerber Fmt 4.6, Leading zero omitted, Abs format (unit mm)*
G04 Created by KiCad (PCBNEW 4.1.0-alpha+201607160317+6981~46~ubuntu14.04.1-product) date Fri Jul 22 01:01:49 2016*
%MOMM*%
%LPD*%
G01*
G04 APERTURE LIST*
%ADD10C,0.100000*%
%ADD11O,1.600000X0.900000*%
%ADD12R,1.500000X1.500000*%
%ADD13C,1.500000*%
%ADD14C,0.600000*%
%ADD15C,0.160000*%
G04 APERTURE END LIST*
D10*
D11*
X155500000Y-106325000D03*
X155500000Y-99725000D03*
D12*
X123900000Y-113000000D03*
D13*
X121900000Y-113000000D03*
D14*
X147868179Y-106529990D03*
X152438150Y-109751841D03*
X150204379Y-104728236D03*
X135587570Y-102059343D03*
X139413972Y-101138559D03*
X150390000Y-103160000D03*
X136787246Y-96212944D03*
X143810022Y-107130010D03*
X148059980Y-94810000D03*
X149460010Y-98240000D03*
X156090000Y-84410000D03*
X126589955Y-93040000D03*
X141499989Y-110149316D03*
X145042577Y-113516268D03*
X148000000Y-110399991D03*
X133700000Y-112570000D03*
X134370000Y-93300000D03*
X126700000Y-86740000D03*
X120940000Y-99200000D03*
X121810002Y-100190000D03*
X124699998Y-91275000D03*
X124700000Y-97200000D03*
X123775000Y-83324998D03*
X120718308Y-81481704D03*
X136589998Y-102597422D03*
X127650000Y-78810000D03*
X153960000Y-104900000D03*
X139110000Y-111140000D03*
X145880000Y-106470000D03*
X143560000Y-98530000D03*
X121941342Y-94238658D03*
X121940000Y-96860000D03*
X138581176Y-89555352D03*
X138709957Y-104956590D03*
X133686969Y-97511905D03*
X136027233Y-96212944D03*
X141220742Y-98952665D03*
X147680000Y-89560000D03*
X139300000Y-85910000D03*
X131710000Y-108680000D03*
X127349968Y-93040000D03*
X132576873Y-103400170D03*
X146090000Y-112900000D03*
X155310000Y-95230000D03*
X155310000Y-110960000D03*
X147200000Y-112189998D03*
X133701950Y-113512089D03*
X149470000Y-96050010D03*
X133130000Y-76680000D03*
X154530000Y-91250000D03*
X137000000Y-93130000D03*
X129680000Y-82200000D03*
X127600000Y-86750000D03*
X124650613Y-77153552D03*
X121850000Y-91260000D03*
X121850000Y-88580000D03*
X120220000Y-109250000D03*
X129260000Y-101020000D03*
X124720000Y-109250000D03*
X129220000Y-109250000D03*
X124770000Y-101030000D03*
X120240000Y-101020000D03*
X151140000Y-105420000D03*
X138709957Y-102450000D03*
X142176325Y-95400163D03*
X140905673Y-94515964D03*
X134280010Y-106244994D03*
X133210000Y-94680000D03*
X129290000Y-79810000D03*
X120730000Y-80560000D03*
X125450000Y-99140000D03*
X126255131Y-78401910D03*
X129950002Y-98300000D03*
X134160000Y-78200000D03*
X144650010Y-111437687D03*
X140020000Y-113350002D03*
X120380000Y-113880000D03*
X155380000Y-113910000D03*
X145041137Y-95372554D03*
X147790000Y-103409990D03*
X148052458Y-95631832D03*
X142439957Y-88950000D03*
X150427029Y-103934346D03*
X144510000Y-103360000D03*
X144950430Y-96127132D03*
X146410987Y-95908359D03*
X147096838Y-96235813D03*
X139659990Y-89260201D03*
X142439957Y-89760000D03*
X145410000Y-89530000D03*
X138709957Y-105716603D03*
X141700000Y-105800000D03*
X138755281Y-106504780D03*
X141800000Y-106590000D03*
X136292924Y-100340021D03*
X129250001Y-107651501D03*
X147020010Y-101460000D03*
X147687439Y-100849943D03*
X150981838Y-108459990D03*
X120250003Y-107651485D03*
X121000000Y-75600000D03*
X141059272Y-95925258D03*
X147727170Y-101929955D03*
X142380000Y-101760000D03*
X129250000Y-91510000D03*
X143111502Y-95549677D03*
X138406729Y-96135805D03*
X142139284Y-96170030D03*
X137541525Y-96119768D03*
X143530057Y-111088659D03*
X142800021Y-111300000D03*
X141310000Y-87100000D03*
X141010000Y-90699978D03*
X140230000Y-95990000D03*
X127020000Y-102420000D03*
X151010000Y-104550000D03*
X142280000Y-110190000D03*
X130439994Y-113594863D03*
X128850000Y-88859990D03*
X132290000Y-105040000D03*
X128820000Y-90130000D03*
X132980000Y-105680000D03*
X141830000Y-103420000D03*
X129940000Y-94640000D03*
X129190000Y-95790000D03*
X141145986Y-102845986D03*
X142330000Y-100670000D03*
X129510000Y-88330000D03*
X131341873Y-98958127D03*
X133360000Y-104490000D03*
X153923155Y-101216845D03*
X154210002Y-99750000D03*
X144979990Y-110706838D03*
X142751768Y-94422436D03*
X139486741Y-96290021D03*
X151090000Y-95690000D03*
X150810000Y-97120000D03*
X150700000Y-101060000D03*
X134600000Y-108225000D03*
X142380000Y-99390000D03*
X146479543Y-100060010D03*
X143792908Y-96431165D03*
X139659990Y-88500197D03*
X142430000Y-91150000D03*
X138824959Y-107261591D03*
X142362043Y-107254032D03*
X131704662Y-107809447D03*
X124750001Y-107651501D03*
X139100000Y-110370000D03*
X122480000Y-79068006D03*
X136091526Y-98258322D03*
X130340000Y-91090000D03*
X136850000Y-98210000D03*
X131200001Y-91129999D03*
X137608355Y-98160002D03*
X132200000Y-91110000D03*
X138579515Y-97620468D03*
X133120000Y-91250000D03*
X146430000Y-105370000D03*
X140779998Y-93030000D03*
X146979317Y-105895626D03*
X140800002Y-92180000D03*
X148355106Y-98621415D03*
X146542113Y-94405510D03*
X150409364Y-106397180D03*
X149340000Y-94830000D03*
X126420000Y-77660006D03*
X130740000Y-83969996D03*
D15*
G36*
X120671886Y-75108013D02*
X120508587Y-75271027D01*
X120420101Y-75484125D01*
X120419899Y-75714863D01*
X120508013Y-75928114D01*
X120671027Y-76091413D01*
X120884125Y-76179899D01*
X121114863Y-76180101D01*
X121328114Y-76091987D01*
X121491413Y-75928973D01*
X121579899Y-75715875D01*
X121580101Y-75485137D01*
X121491987Y-75271886D01*
X121328973Y-75108587D01*
X121320335Y-75105000D01*
X157045000Y-75105000D01*
X157045000Y-114395000D01*
X155715113Y-114395000D01*
X155871413Y-114238973D01*
X155959899Y-114025875D01*
X155960101Y-113795137D01*
X155871987Y-113581886D01*
X155708973Y-113418587D01*
X155495875Y-113330101D01*
X155265137Y-113329899D01*
X155051886Y-113418013D01*
X154888587Y-113581027D01*
X154800101Y-113794125D01*
X154799899Y-114024863D01*
X154888013Y-114238114D01*
X155044625Y-114395000D01*
X120652419Y-114395000D01*
X120708114Y-114371987D01*
X120871413Y-114208973D01*
X120959899Y-113995875D01*
X120959907Y-113986979D01*
X121059502Y-114086574D01*
X121171178Y-113974898D01*
X121245454Y-114196932D01*
X121753324Y-114356305D01*
X122283525Y-114309193D01*
X122554546Y-114196932D01*
X122628823Y-113974897D01*
X121900000Y-113246073D01*
X121885858Y-113260216D01*
X121639784Y-113014142D01*
X121653927Y-113000000D01*
X122146073Y-113000000D01*
X122864515Y-113718441D01*
X122864515Y-113750000D01*
X122886246Y-113859250D01*
X122948132Y-113951868D01*
X123040750Y-114013754D01*
X123150000Y-114035485D01*
X124650000Y-114035485D01*
X124759250Y-114013754D01*
X124851868Y-113951868D01*
X124913754Y-113859250D01*
X124935485Y-113750000D01*
X124935485Y-113709726D01*
X129859893Y-113709726D01*
X129948007Y-113922977D01*
X130111021Y-114086276D01*
X130324119Y-114174762D01*
X130554857Y-114174964D01*
X130768108Y-114086850D01*
X130931407Y-113923836D01*
X131019893Y-113710738D01*
X131020095Y-113480000D01*
X131013842Y-113464865D01*
X139439899Y-113464865D01*
X139528013Y-113678116D01*
X139691027Y-113841415D01*
X139904125Y-113929901D01*
X140134863Y-113930103D01*
X140348114Y-113841989D01*
X140511413Y-113678975D01*
X140531279Y-113631131D01*
X144462476Y-113631131D01*
X144550590Y-113844382D01*
X144713604Y-114007681D01*
X144926702Y-114096167D01*
X145157440Y-114096369D01*
X145370691Y-114008255D01*
X145533990Y-113845241D01*
X145622476Y-113632143D01*
X145622678Y-113401405D01*
X145534564Y-113188154D01*
X145371550Y-113024855D01*
X145158452Y-112936369D01*
X144927714Y-112936167D01*
X144714463Y-113024281D01*
X144551164Y-113187295D01*
X144462678Y-113400393D01*
X144462476Y-113631131D01*
X140531279Y-113631131D01*
X140599899Y-113465877D01*
X140600101Y-113235139D01*
X140511987Y-113021888D01*
X140348973Y-112858589D01*
X140135875Y-112770103D01*
X139905137Y-112769901D01*
X139691886Y-112858015D01*
X139528587Y-113021029D01*
X139440101Y-113234127D01*
X139439899Y-113464865D01*
X131013842Y-113464865D01*
X130931981Y-113266749D01*
X130768967Y-113103450D01*
X130555869Y-113014964D01*
X130325131Y-113014762D01*
X130111880Y-113102876D01*
X129948581Y-113265890D01*
X129860095Y-113478988D01*
X129859893Y-113709726D01*
X124935485Y-113709726D01*
X124935485Y-112684863D01*
X133119899Y-112684863D01*
X133208013Y-112898114D01*
X133371027Y-113061413D01*
X133584125Y-113149899D01*
X133814863Y-113150101D01*
X134028114Y-113061987D01*
X134191413Y-112898973D01*
X134279899Y-112685875D01*
X134280101Y-112455137D01*
X134191987Y-112241886D01*
X134028973Y-112078587D01*
X133815875Y-111990101D01*
X133585137Y-111989899D01*
X133371886Y-112078013D01*
X133208587Y-112241027D01*
X133120101Y-112454125D01*
X133119899Y-112684863D01*
X124935485Y-112684863D01*
X124935485Y-112250000D01*
X124913754Y-112140750D01*
X124851868Y-112048132D01*
X124759250Y-111986246D01*
X124650000Y-111964515D01*
X123150000Y-111964515D01*
X123040750Y-111986246D01*
X122948132Y-112048132D01*
X122886246Y-112140750D01*
X122864515Y-112250000D01*
X122864515Y-112281559D01*
X122146073Y-113000000D01*
X121653927Y-113000000D01*
X120925103Y-112271177D01*
X120703068Y-112345454D01*
X120543695Y-112853324D01*
X120586747Y-113337834D01*
X120495875Y-113300101D01*
X120265137Y-113299899D01*
X120051886Y-113388013D01*
X119888587Y-113551027D01*
X119800101Y-113764125D01*
X119799899Y-113994863D01*
X119888013Y-114208114D01*
X120051027Y-114371413D01*
X120107831Y-114395000D01*
X117755000Y-114395000D01*
X117755000Y-112025103D01*
X121171177Y-112025103D01*
X121900000Y-112753927D01*
X122628823Y-112025103D01*
X122554546Y-111803068D01*
X122046676Y-111643695D01*
X121516475Y-111690807D01*
X121245454Y-111803068D01*
X121171177Y-112025103D01*
X117755000Y-112025103D01*
X117755000Y-111414863D01*
X142219920Y-111414863D01*
X142308034Y-111628114D01*
X142471048Y-111791413D01*
X142684146Y-111879899D01*
X142914884Y-111880101D01*
X143128135Y-111791987D01*
X143291434Y-111628973D01*
X143295466Y-111619263D01*
X143414182Y-111668558D01*
X143644920Y-111668760D01*
X143858171Y-111580646D01*
X143886316Y-111552550D01*
X144069909Y-111552550D01*
X144158023Y-111765801D01*
X144321037Y-111929100D01*
X144534135Y-112017586D01*
X144764873Y-112017788D01*
X144978124Y-111929674D01*
X145141423Y-111766660D01*
X145229909Y-111553562D01*
X145230111Y-111322824D01*
X145197721Y-111244435D01*
X145308104Y-111198825D01*
X145471403Y-111035811D01*
X145559889Y-110822713D01*
X145560091Y-110591975D01*
X145528226Y-110514854D01*
X147419899Y-110514854D01*
X147508013Y-110728105D01*
X147671027Y-110891404D01*
X147884125Y-110979890D01*
X148114863Y-110980092D01*
X148328114Y-110891978D01*
X148491413Y-110728964D01*
X148579899Y-110515866D01*
X148580101Y-110285128D01*
X148491987Y-110071877D01*
X148328973Y-109908578D01*
X148228130Y-109866704D01*
X151858049Y-109866704D01*
X151946163Y-110079955D01*
X152109177Y-110243254D01*
X152322275Y-110331740D01*
X152553013Y-110331942D01*
X152766264Y-110243828D01*
X152929563Y-110080814D01*
X153018049Y-109867716D01*
X153018251Y-109636978D01*
X152930137Y-109423727D01*
X152767123Y-109260428D01*
X152554025Y-109171942D01*
X152323287Y-109171740D01*
X152110036Y-109259854D01*
X151946737Y-109422868D01*
X151858251Y-109635966D01*
X151858049Y-109866704D01*
X148228130Y-109866704D01*
X148115875Y-109820092D01*
X147885137Y-109819890D01*
X147671886Y-109908004D01*
X147508587Y-110071018D01*
X147420101Y-110284116D01*
X147419899Y-110514854D01*
X145528226Y-110514854D01*
X145471977Y-110378724D01*
X145308963Y-110215425D01*
X145095865Y-110126939D01*
X144865127Y-110126737D01*
X144651876Y-110214851D01*
X144488577Y-110377865D01*
X144400091Y-110590963D01*
X144399889Y-110821701D01*
X144432279Y-110900090D01*
X144321896Y-110945700D01*
X144158597Y-111108714D01*
X144070111Y-111321812D01*
X144069909Y-111552550D01*
X143886316Y-111552550D01*
X144021470Y-111417632D01*
X144109956Y-111204534D01*
X144110158Y-110973796D01*
X144022044Y-110760545D01*
X143859030Y-110597246D01*
X143645932Y-110508760D01*
X143415194Y-110508558D01*
X143201943Y-110596672D01*
X143038644Y-110759686D01*
X143034612Y-110769396D01*
X142915896Y-110720101D01*
X142685158Y-110719899D01*
X142471907Y-110808013D01*
X142308608Y-110971027D01*
X142220122Y-111184125D01*
X142219920Y-111414863D01*
X117755000Y-111414863D01*
X117755000Y-110484863D01*
X138519899Y-110484863D01*
X138608013Y-110698114D01*
X138771027Y-110861413D01*
X138984125Y-110949899D01*
X139214863Y-110950101D01*
X139428114Y-110861987D01*
X139591413Y-110698973D01*
X139679899Y-110485875D01*
X139680093Y-110264179D01*
X140919888Y-110264179D01*
X141008002Y-110477430D01*
X141171016Y-110640729D01*
X141384114Y-110729215D01*
X141614852Y-110729417D01*
X141828103Y-110641303D01*
X141869617Y-110599861D01*
X141951027Y-110681413D01*
X142164125Y-110769899D01*
X142394863Y-110770101D01*
X142608114Y-110681987D01*
X142771413Y-110518973D01*
X142859899Y-110305875D01*
X142860101Y-110075137D01*
X142771987Y-109861886D01*
X142608973Y-109698587D01*
X142395875Y-109610101D01*
X142165137Y-109609899D01*
X141951886Y-109698013D01*
X141910372Y-109739455D01*
X141828962Y-109657903D01*
X141615864Y-109569417D01*
X141385126Y-109569215D01*
X141171875Y-109657329D01*
X141008576Y-109820343D01*
X140920090Y-110033441D01*
X140919888Y-110264179D01*
X139680093Y-110264179D01*
X139680101Y-110255137D01*
X139591987Y-110041886D01*
X139428973Y-109878587D01*
X139215875Y-109790101D01*
X138985137Y-109789899D01*
X138771886Y-109878013D01*
X138608587Y-110041027D01*
X138520101Y-110254125D01*
X138519899Y-110484863D01*
X117755000Y-110484863D01*
X117755000Y-107766348D01*
X119669902Y-107766348D01*
X119758016Y-107979599D01*
X119921030Y-108142898D01*
X120134128Y-108231384D01*
X120364866Y-108231586D01*
X120578117Y-108143472D01*
X120741416Y-107980458D01*
X120829902Y-107767360D01*
X120829902Y-107766364D01*
X124169900Y-107766364D01*
X124258014Y-107979615D01*
X124421028Y-108142914D01*
X124634126Y-108231400D01*
X124864864Y-108231602D01*
X125078115Y-108143488D01*
X125241414Y-107980474D01*
X125329900Y-107767376D01*
X125329900Y-107766364D01*
X128669900Y-107766364D01*
X128758014Y-107979615D01*
X128921028Y-108142914D01*
X129134126Y-108231400D01*
X129364864Y-108231602D01*
X129578115Y-108143488D01*
X129741414Y-107980474D01*
X129764735Y-107924310D01*
X131124561Y-107924310D01*
X131212675Y-108137561D01*
X131375689Y-108300860D01*
X131588787Y-108389346D01*
X131819525Y-108389548D01*
X131939771Y-108339863D01*
X134019899Y-108339863D01*
X134108013Y-108553114D01*
X134271027Y-108716413D01*
X134484125Y-108804899D01*
X134714863Y-108805101D01*
X134928114Y-108716987D01*
X135070496Y-108574853D01*
X150401737Y-108574853D01*
X150489851Y-108788104D01*
X150652865Y-108951403D01*
X150865963Y-109039889D01*
X151096701Y-109040091D01*
X151309952Y-108951977D01*
X151473251Y-108788963D01*
X151561737Y-108575865D01*
X151561939Y-108345127D01*
X151473825Y-108131876D01*
X151310811Y-107968577D01*
X151097713Y-107880091D01*
X150866975Y-107879889D01*
X150653724Y-107968003D01*
X150490425Y-108131017D01*
X150401939Y-108344115D01*
X150401737Y-108574853D01*
X135070496Y-108574853D01*
X135091413Y-108553973D01*
X135179899Y-108340875D01*
X135180101Y-108110137D01*
X135091987Y-107896886D01*
X134928973Y-107733587D01*
X134715875Y-107645101D01*
X134485137Y-107644899D01*
X134271886Y-107733013D01*
X134108587Y-107896027D01*
X134020101Y-108109125D01*
X134019899Y-108339863D01*
X131939771Y-108339863D01*
X132032776Y-108301434D01*
X132196075Y-108138420D01*
X132284561Y-107925322D01*
X132284763Y-107694584D01*
X132196649Y-107481333D01*
X132033635Y-107318034D01*
X131820537Y-107229548D01*
X131589799Y-107229346D01*
X131376548Y-107317460D01*
X131213249Y-107480474D01*
X131124763Y-107693572D01*
X131124561Y-107924310D01*
X129764735Y-107924310D01*
X129829900Y-107767376D01*
X129830102Y-107536638D01*
X129741988Y-107323387D01*
X129578974Y-107160088D01*
X129365876Y-107071602D01*
X129135138Y-107071400D01*
X128921887Y-107159514D01*
X128758588Y-107322528D01*
X128670102Y-107535626D01*
X128669900Y-107766364D01*
X125329900Y-107766364D01*
X125330102Y-107536638D01*
X125241988Y-107323387D01*
X125078974Y-107160088D01*
X124865876Y-107071602D01*
X124635138Y-107071400D01*
X124421887Y-107159514D01*
X124258588Y-107322528D01*
X124170102Y-107535626D01*
X124169900Y-107766364D01*
X120829902Y-107766364D01*
X120830104Y-107536622D01*
X120741990Y-107323371D01*
X120578976Y-107160072D01*
X120365878Y-107071586D01*
X120135140Y-107071384D01*
X119921889Y-107159498D01*
X119758590Y-107322512D01*
X119670104Y-107535610D01*
X119669902Y-107766348D01*
X117755000Y-107766348D01*
X117755000Y-106359857D01*
X133699909Y-106359857D01*
X133788023Y-106573108D01*
X133951037Y-106736407D01*
X134164135Y-106824893D01*
X134394873Y-106825095D01*
X134608124Y-106736981D01*
X134771423Y-106573967D01*
X134859909Y-106360869D01*
X134860111Y-106130131D01*
X134771997Y-105916880D01*
X134686733Y-105831466D01*
X138129856Y-105831466D01*
X138217970Y-106044717D01*
X138306424Y-106133325D01*
X138263868Y-106175807D01*
X138175382Y-106388905D01*
X138175180Y-106619643D01*
X138263294Y-106832894D01*
X138348221Y-106917969D01*
X138333546Y-106932618D01*
X138245060Y-107145716D01*
X138244858Y-107376454D01*
X138332972Y-107589705D01*
X138495986Y-107753004D01*
X138709084Y-107841490D01*
X138939822Y-107841692D01*
X139153073Y-107753578D01*
X139316372Y-107590564D01*
X139404858Y-107377466D01*
X139405060Y-107146728D01*
X139316946Y-106933477D01*
X139232019Y-106848402D01*
X139246694Y-106833753D01*
X139335180Y-106620655D01*
X139335382Y-106389917D01*
X139247268Y-106176666D01*
X139158814Y-106088058D01*
X139201370Y-106045576D01*
X139255646Y-105914863D01*
X141119899Y-105914863D01*
X141208013Y-106128114D01*
X141324669Y-106244974D01*
X141308587Y-106261027D01*
X141220101Y-106474125D01*
X141219899Y-106704863D01*
X141308013Y-106918114D01*
X141471027Y-107081413D01*
X141684125Y-107169899D01*
X141782116Y-107169985D01*
X141781942Y-107368895D01*
X141870056Y-107582146D01*
X142033070Y-107745445D01*
X142246168Y-107833931D01*
X142476906Y-107834133D01*
X142690157Y-107746019D01*
X142853456Y-107583005D01*
X142941942Y-107369907D01*
X142942051Y-107244873D01*
X143229921Y-107244873D01*
X143318035Y-107458124D01*
X143481049Y-107621423D01*
X143694147Y-107709909D01*
X143924885Y-107710111D01*
X144138136Y-107621997D01*
X144301435Y-107458983D01*
X144389921Y-107245885D01*
X144390123Y-107015147D01*
X144302009Y-106801896D01*
X144138995Y-106638597D01*
X143925897Y-106550111D01*
X143695159Y-106549909D01*
X143481908Y-106638023D01*
X143318609Y-106801037D01*
X143230123Y-107014135D01*
X143229921Y-107244873D01*
X142942051Y-107244873D01*
X142942144Y-107139169D01*
X142854030Y-106925918D01*
X142691016Y-106762619D01*
X142477918Y-106674133D01*
X142379927Y-106674047D01*
X142380101Y-106475137D01*
X142291987Y-106261886D01*
X142175331Y-106145026D01*
X142191413Y-106128973D01*
X142279899Y-105915875D01*
X142280101Y-105685137D01*
X142197350Y-105484863D01*
X145849899Y-105484863D01*
X145938013Y-105698114D01*
X146101027Y-105861413D01*
X146314125Y-105949899D01*
X146399269Y-105949974D01*
X146399216Y-106010489D01*
X146487330Y-106223740D01*
X146650344Y-106387039D01*
X146863442Y-106475525D01*
X147094180Y-106475727D01*
X147297597Y-106391676D01*
X147288280Y-106414115D01*
X147288078Y-106644853D01*
X147376192Y-106858104D01*
X147539206Y-107021403D01*
X147752304Y-107109889D01*
X147983042Y-107110091D01*
X148196293Y-107021977D01*
X148359592Y-106858963D01*
X148448078Y-106645865D01*
X148448195Y-106512043D01*
X149829263Y-106512043D01*
X149917377Y-106725294D01*
X150080391Y-106888593D01*
X150293489Y-106977079D01*
X150524227Y-106977281D01*
X150737478Y-106889167D01*
X150900777Y-106726153D01*
X150989263Y-106513055D01*
X150989427Y-106325000D01*
X154398842Y-106325000D01*
X154454410Y-106604359D01*
X154612654Y-106841188D01*
X154849483Y-106999432D01*
X155128842Y-107055000D01*
X155871158Y-107055000D01*
X156150517Y-106999432D01*
X156387346Y-106841188D01*
X156545590Y-106604359D01*
X156601158Y-106325000D01*
X156545590Y-106045641D01*
X156387346Y-105808812D01*
X156150517Y-105650568D01*
X155871158Y-105595000D01*
X155128842Y-105595000D01*
X154849483Y-105650568D01*
X154612654Y-105808812D01*
X154454410Y-106045641D01*
X154398842Y-106325000D01*
X150989427Y-106325000D01*
X150989465Y-106282317D01*
X150901351Y-106069066D01*
X150738337Y-105905767D01*
X150525239Y-105817281D01*
X150294501Y-105817079D01*
X150081250Y-105905193D01*
X149917951Y-106068207D01*
X149829465Y-106281305D01*
X149829263Y-106512043D01*
X148448195Y-106512043D01*
X148448280Y-106415127D01*
X148360166Y-106201876D01*
X148197152Y-106038577D01*
X147984054Y-105950091D01*
X147753316Y-105949889D01*
X147549899Y-106033940D01*
X147559216Y-106011501D01*
X147559418Y-105780763D01*
X147471304Y-105567512D01*
X147308290Y-105404213D01*
X147095192Y-105315727D01*
X147010048Y-105315652D01*
X147010101Y-105255137D01*
X146921987Y-105041886D01*
X146758973Y-104878587D01*
X146673509Y-104843099D01*
X149624278Y-104843099D01*
X149712392Y-105056350D01*
X149875406Y-105219649D01*
X150088504Y-105308135D01*
X150319242Y-105308337D01*
X150532493Y-105220223D01*
X150639151Y-105113751D01*
X150560101Y-105304125D01*
X150559899Y-105534863D01*
X150648013Y-105748114D01*
X150811027Y-105911413D01*
X151024125Y-105999899D01*
X151254863Y-106000101D01*
X151468114Y-105911987D01*
X151631413Y-105748973D01*
X151719899Y-105535875D01*
X151720101Y-105305137D01*
X151631987Y-105091886D01*
X151468973Y-104928587D01*
X151456783Y-104923525D01*
X151501413Y-104878973D01*
X151589899Y-104665875D01*
X151590101Y-104435137D01*
X151501987Y-104221886D01*
X151338973Y-104058587D01*
X151125875Y-103970101D01*
X151006998Y-103969997D01*
X151007130Y-103819483D01*
X150919016Y-103606232D01*
X150841618Y-103528699D01*
X150881413Y-103488973D01*
X150969899Y-103275875D01*
X150970101Y-103045137D01*
X150881987Y-102831886D01*
X150718973Y-102668587D01*
X150505875Y-102580101D01*
X150275137Y-102579899D01*
X150061886Y-102668013D01*
X149898587Y-102831027D01*
X149810101Y-103044125D01*
X149809899Y-103274863D01*
X149898013Y-103488114D01*
X149975411Y-103565647D01*
X149935616Y-103605373D01*
X149847130Y-103818471D01*
X149846928Y-104049209D01*
X149917220Y-104219327D01*
X149876265Y-104236249D01*
X149712966Y-104399263D01*
X149624480Y-104612361D01*
X149624278Y-104843099D01*
X146673509Y-104843099D01*
X146545875Y-104790101D01*
X146315137Y-104789899D01*
X146101886Y-104878013D01*
X145938587Y-105041027D01*
X145850101Y-105254125D01*
X145849899Y-105484863D01*
X142197350Y-105484863D01*
X142191987Y-105471886D01*
X142028973Y-105308587D01*
X141815875Y-105220101D01*
X141585137Y-105219899D01*
X141371886Y-105308013D01*
X141208587Y-105471027D01*
X141120101Y-105684125D01*
X141119899Y-105914863D01*
X139255646Y-105914863D01*
X139289856Y-105832478D01*
X139290058Y-105601740D01*
X139201944Y-105388489D01*
X139038930Y-105225190D01*
X138825832Y-105136704D01*
X138595094Y-105136502D01*
X138381843Y-105224616D01*
X138218544Y-105387630D01*
X138130058Y-105600728D01*
X138129856Y-105831466D01*
X134686733Y-105831466D01*
X134608983Y-105753581D01*
X134395885Y-105665095D01*
X134165147Y-105664893D01*
X133951896Y-105753007D01*
X133788597Y-105916021D01*
X133700111Y-106129119D01*
X133699909Y-106359857D01*
X117755000Y-106359857D01*
X117755000Y-105154863D01*
X131709899Y-105154863D01*
X131798013Y-105368114D01*
X131961027Y-105531413D01*
X132174125Y-105619899D01*
X132400052Y-105620097D01*
X132399899Y-105794863D01*
X132488013Y-106008114D01*
X132651027Y-106171413D01*
X132864125Y-106259899D01*
X133094863Y-106260101D01*
X133308114Y-106171987D01*
X133471413Y-106008973D01*
X133559899Y-105795875D01*
X133560101Y-105565137D01*
X133471987Y-105351886D01*
X133308973Y-105188587D01*
X133095875Y-105100101D01*
X132869948Y-105099903D01*
X132870101Y-104925137D01*
X132781987Y-104711886D01*
X132675151Y-104604863D01*
X132779899Y-104604863D01*
X132868013Y-104818114D01*
X133031027Y-104981413D01*
X133244125Y-105069899D01*
X133474863Y-105070101D01*
X133688114Y-104981987D01*
X133851413Y-104818973D01*
X133939899Y-104605875D01*
X133940101Y-104375137D01*
X133851987Y-104161886D01*
X133688973Y-103998587D01*
X133475875Y-103910101D01*
X133245137Y-103909899D01*
X133031886Y-103998013D01*
X132868587Y-104161027D01*
X132780101Y-104374125D01*
X132779899Y-104604863D01*
X132675151Y-104604863D01*
X132618973Y-104548587D01*
X132405875Y-104460101D01*
X132175137Y-104459899D01*
X131961886Y-104548013D01*
X131798587Y-104711027D01*
X131710101Y-104924125D01*
X131709899Y-105154863D01*
X117755000Y-105154863D01*
X117755000Y-102534863D01*
X126439899Y-102534863D01*
X126528013Y-102748114D01*
X126691027Y-102911413D01*
X126904125Y-102999899D01*
X127134863Y-103000101D01*
X127348114Y-102911987D01*
X127511413Y-102748973D01*
X127599899Y-102535875D01*
X127600101Y-102305137D01*
X127546002Y-102174206D01*
X135007469Y-102174206D01*
X135095583Y-102387457D01*
X135258597Y-102550756D01*
X135471695Y-102639242D01*
X135702433Y-102639444D01*
X135882931Y-102564863D01*
X138129856Y-102564863D01*
X138217970Y-102778114D01*
X138380984Y-102941413D01*
X138594082Y-103029899D01*
X138824820Y-103030101D01*
X138992421Y-102960849D01*
X140565885Y-102960849D01*
X140653999Y-103174100D01*
X140817013Y-103337399D01*
X141030111Y-103425885D01*
X141249994Y-103426077D01*
X141249899Y-103534863D01*
X141338013Y-103748114D01*
X141501027Y-103911413D01*
X141714125Y-103999899D01*
X141944863Y-104000101D01*
X142158114Y-103911987D01*
X142321413Y-103748973D01*
X142409899Y-103535875D01*
X142409952Y-103474863D01*
X143929899Y-103474863D01*
X144018013Y-103688114D01*
X144181027Y-103851413D01*
X144394125Y-103939899D01*
X144624863Y-103940101D01*
X144838114Y-103851987D01*
X145001413Y-103688973D01*
X145069561Y-103524853D01*
X147209899Y-103524853D01*
X147298013Y-103738104D01*
X147461027Y-103901403D01*
X147674125Y-103989889D01*
X147904863Y-103990091D01*
X148118114Y-103901977D01*
X148281413Y-103738963D01*
X148369899Y-103525865D01*
X148370101Y-103295127D01*
X148281987Y-103081876D01*
X148118973Y-102918577D01*
X147905875Y-102830091D01*
X147675137Y-102829889D01*
X147461886Y-102918003D01*
X147298587Y-103081017D01*
X147210101Y-103294115D01*
X147209899Y-103524853D01*
X145069561Y-103524853D01*
X145089899Y-103475875D01*
X145090101Y-103245137D01*
X145001987Y-103031886D01*
X144838973Y-102868587D01*
X144625875Y-102780101D01*
X144395137Y-102779899D01*
X144181886Y-102868013D01*
X144018587Y-103031027D01*
X143930101Y-103244125D01*
X143929899Y-103474863D01*
X142409952Y-103474863D01*
X142410101Y-103305137D01*
X142321987Y-103091886D01*
X142158973Y-102928587D01*
X141945875Y-102840101D01*
X141725992Y-102839909D01*
X141726087Y-102731123D01*
X141637973Y-102517872D01*
X141474959Y-102354573D01*
X141261861Y-102266087D01*
X141031123Y-102265885D01*
X140817872Y-102353999D01*
X140654573Y-102517013D01*
X140566087Y-102730111D01*
X140565885Y-102960849D01*
X138992421Y-102960849D01*
X139038071Y-102941987D01*
X139201370Y-102778973D01*
X139289856Y-102565875D01*
X139290058Y-102335137D01*
X139201944Y-102121886D01*
X139038930Y-101958587D01*
X138825832Y-101870101D01*
X138595094Y-101869899D01*
X138381843Y-101958013D01*
X138218544Y-102121027D01*
X138130058Y-102334125D01*
X138129856Y-102564863D01*
X135882931Y-102564863D01*
X135915684Y-102551330D01*
X136078983Y-102388316D01*
X136167469Y-102175218D01*
X136167671Y-101944480D01*
X136079557Y-101731229D01*
X135916543Y-101567930D01*
X135703445Y-101479444D01*
X135472707Y-101479242D01*
X135259456Y-101567356D01*
X135096157Y-101730370D01*
X135007671Y-101943468D01*
X135007469Y-102174206D01*
X127546002Y-102174206D01*
X127511987Y-102091886D01*
X127348973Y-101928587D01*
X127135875Y-101840101D01*
X126905137Y-101839899D01*
X126691886Y-101928013D01*
X126528587Y-102091027D01*
X126440101Y-102304125D01*
X126439899Y-102534863D01*
X117755000Y-102534863D01*
X117755000Y-101253422D01*
X138833871Y-101253422D01*
X138921985Y-101466673D01*
X139084999Y-101629972D01*
X139298097Y-101718458D01*
X139528835Y-101718660D01*
X139742086Y-101630546D01*
X139905385Y-101467532D01*
X139993871Y-101254434D01*
X139994073Y-101023696D01*
X139905959Y-100810445D01*
X139880422Y-100784863D01*
X141749899Y-100784863D01*
X141838013Y-100998114D01*
X142001027Y-101161413D01*
X142155071Y-101225378D01*
X142051886Y-101268013D01*
X141888587Y-101431027D01*
X141800101Y-101644125D01*
X141799899Y-101874863D01*
X141888013Y-102088114D01*
X142051027Y-102251413D01*
X142264125Y-102339899D01*
X142494863Y-102340101D01*
X142708114Y-102251987D01*
X142871413Y-102088973D01*
X142959899Y-101875875D01*
X142960101Y-101645137D01*
X142931065Y-101574863D01*
X146439909Y-101574863D01*
X146528023Y-101788114D01*
X146691037Y-101951413D01*
X146904135Y-102039899D01*
X147134873Y-102040101D01*
X147147078Y-102035058D01*
X147147069Y-102044818D01*
X147235183Y-102258069D01*
X147398197Y-102421368D01*
X147611295Y-102509854D01*
X147842033Y-102510056D01*
X148055284Y-102421942D01*
X148218583Y-102258928D01*
X148307069Y-102045830D01*
X148307271Y-101815092D01*
X148219157Y-101601841D01*
X148056143Y-101438542D01*
X147919277Y-101381710D01*
X148015553Y-101341930D01*
X148178852Y-101178916D01*
X148180534Y-101174863D01*
X150119899Y-101174863D01*
X150208013Y-101388114D01*
X150371027Y-101551413D01*
X150584125Y-101639899D01*
X150814863Y-101640101D01*
X151028114Y-101551987D01*
X151191413Y-101388973D01*
X151215191Y-101331708D01*
X153343054Y-101331708D01*
X153431168Y-101544959D01*
X153594182Y-101708258D01*
X153807280Y-101796744D01*
X154038018Y-101796946D01*
X154251269Y-101708832D01*
X154414568Y-101545818D01*
X154503054Y-101332720D01*
X154503256Y-101101982D01*
X154415142Y-100888731D01*
X154252128Y-100725432D01*
X154039030Y-100636946D01*
X153808292Y-100636744D01*
X153595041Y-100724858D01*
X153431742Y-100887872D01*
X153343256Y-101100970D01*
X153343054Y-101331708D01*
X151215191Y-101331708D01*
X151279899Y-101175875D01*
X151280101Y-100945137D01*
X151191987Y-100731886D01*
X151028973Y-100568587D01*
X150815875Y-100480101D01*
X150585137Y-100479899D01*
X150371886Y-100568013D01*
X150208587Y-100731027D01*
X150120101Y-100944125D01*
X150119899Y-101174863D01*
X148180534Y-101174863D01*
X148267338Y-100965818D01*
X148267540Y-100735080D01*
X148179426Y-100521829D01*
X148016412Y-100358530D01*
X147803314Y-100270044D01*
X147572576Y-100269842D01*
X147359325Y-100357956D01*
X147196026Y-100520970D01*
X147107540Y-100734068D01*
X147107412Y-100880076D01*
X146905147Y-100879899D01*
X146691896Y-100968013D01*
X146528597Y-101131027D01*
X146440111Y-101344125D01*
X146439909Y-101574863D01*
X142931065Y-101574863D01*
X142871987Y-101431886D01*
X142708973Y-101268587D01*
X142554929Y-101204622D01*
X142658114Y-101161987D01*
X142821413Y-100998973D01*
X142909899Y-100785875D01*
X142910101Y-100555137D01*
X142821987Y-100341886D01*
X142658973Y-100178587D01*
X142650029Y-100174873D01*
X145899442Y-100174873D01*
X145987556Y-100388124D01*
X146150570Y-100551423D01*
X146363668Y-100639909D01*
X146594406Y-100640111D01*
X146807657Y-100551997D01*
X146970956Y-100388983D01*
X147059442Y-100175885D01*
X147059644Y-99945147D01*
X147026472Y-99864863D01*
X153629901Y-99864863D01*
X153718015Y-100078114D01*
X153881029Y-100241413D01*
X154094127Y-100329899D01*
X154324865Y-100330101D01*
X154538116Y-100241987D01*
X154583150Y-100197032D01*
X154612654Y-100241188D01*
X154849483Y-100399432D01*
X155128842Y-100455000D01*
X155871158Y-100455000D01*
X156150517Y-100399432D01*
X156387346Y-100241188D01*
X156545590Y-100004359D01*
X156601158Y-99725000D01*
X156545590Y-99445641D01*
X156387346Y-99208812D01*
X156150517Y-99050568D01*
X155871158Y-98995000D01*
X155128842Y-98995000D01*
X154849483Y-99050568D01*
X154612654Y-99208812D01*
X154563188Y-99282843D01*
X154538975Y-99258587D01*
X154325877Y-99170101D01*
X154095139Y-99169899D01*
X153881888Y-99258013D01*
X153718589Y-99421027D01*
X153630103Y-99634125D01*
X153629901Y-99864863D01*
X147026472Y-99864863D01*
X146971530Y-99731896D01*
X146808516Y-99568597D01*
X146595418Y-99480111D01*
X146364680Y-99479909D01*
X146151429Y-99568023D01*
X145988130Y-99731037D01*
X145899644Y-99944135D01*
X145899442Y-100174873D01*
X142650029Y-100174873D01*
X142445875Y-100090101D01*
X142215137Y-100089899D01*
X142001886Y-100178013D01*
X141838587Y-100341027D01*
X141750101Y-100554125D01*
X141749899Y-100784863D01*
X139880422Y-100784863D01*
X139742945Y-100647146D01*
X139529847Y-100558660D01*
X139299109Y-100558458D01*
X139085858Y-100646572D01*
X138922559Y-100809586D01*
X138834073Y-101022684D01*
X138833871Y-101253422D01*
X117755000Y-101253422D01*
X117755000Y-100304863D01*
X121229901Y-100304863D01*
X121318015Y-100518114D01*
X121481029Y-100681413D01*
X121694127Y-100769899D01*
X121924865Y-100770101D01*
X122138116Y-100681987D01*
X122301415Y-100518973D01*
X122328027Y-100454884D01*
X135712823Y-100454884D01*
X135800937Y-100668135D01*
X135963951Y-100831434D01*
X136177049Y-100919920D01*
X136407787Y-100920122D01*
X136621038Y-100832008D01*
X136784337Y-100668994D01*
X136872823Y-100455896D01*
X136873025Y-100225158D01*
X136784911Y-100011907D01*
X136621897Y-99848608D01*
X136408799Y-99760122D01*
X136178061Y-99759920D01*
X135964810Y-99848034D01*
X135801511Y-100011048D01*
X135713025Y-100224146D01*
X135712823Y-100454884D01*
X122328027Y-100454884D01*
X122389901Y-100305875D01*
X122390103Y-100075137D01*
X122301989Y-99861886D01*
X122138975Y-99698587D01*
X121925877Y-99610101D01*
X121695139Y-99609899D01*
X121481888Y-99698013D01*
X121318589Y-99861027D01*
X121230103Y-100074125D01*
X121229901Y-100304863D01*
X117755000Y-100304863D01*
X117755000Y-99314863D01*
X120359899Y-99314863D01*
X120448013Y-99528114D01*
X120611027Y-99691413D01*
X120824125Y-99779899D01*
X121054863Y-99780101D01*
X121268114Y-99691987D01*
X121431413Y-99528973D01*
X121519899Y-99315875D01*
X121519952Y-99254863D01*
X124869899Y-99254863D01*
X124958013Y-99468114D01*
X125121027Y-99631413D01*
X125334125Y-99719899D01*
X125564863Y-99720101D01*
X125778114Y-99631987D01*
X125941413Y-99468973D01*
X126029899Y-99255875D01*
X126030059Y-99072990D01*
X130761772Y-99072990D01*
X130849886Y-99286241D01*
X131012900Y-99449540D01*
X131225998Y-99538026D01*
X131456736Y-99538228D01*
X131537485Y-99504863D01*
X141799899Y-99504863D01*
X141888013Y-99718114D01*
X142051027Y-99881413D01*
X142264125Y-99969899D01*
X142494863Y-99970101D01*
X142708114Y-99881987D01*
X142871413Y-99718973D01*
X142959899Y-99505875D01*
X142960101Y-99275137D01*
X142871987Y-99061886D01*
X142708973Y-98898587D01*
X142495875Y-98810101D01*
X142265137Y-98809899D01*
X142051886Y-98898013D01*
X141888587Y-99061027D01*
X141800101Y-99274125D01*
X141799899Y-99504863D01*
X131537485Y-99504863D01*
X131669987Y-99450114D01*
X131833286Y-99287100D01*
X131921772Y-99074002D01*
X131921974Y-98843264D01*
X131833860Y-98630013D01*
X131670846Y-98466714D01*
X131457748Y-98378228D01*
X131227010Y-98378026D01*
X131013759Y-98466140D01*
X130850460Y-98629154D01*
X130761974Y-98842252D01*
X130761772Y-99072990D01*
X126030059Y-99072990D01*
X126030101Y-99025137D01*
X125941987Y-98811886D01*
X125778973Y-98648587D01*
X125565875Y-98560101D01*
X125335137Y-98559899D01*
X125121886Y-98648013D01*
X124958587Y-98811027D01*
X124870101Y-99024125D01*
X124869899Y-99254863D01*
X121519952Y-99254863D01*
X121520101Y-99085137D01*
X121431987Y-98871886D01*
X121268973Y-98708587D01*
X121055875Y-98620101D01*
X120825137Y-98619899D01*
X120611886Y-98708013D01*
X120448587Y-98871027D01*
X120360101Y-99084125D01*
X120359899Y-99314863D01*
X117755000Y-99314863D01*
X117755000Y-98414863D01*
X129369901Y-98414863D01*
X129458015Y-98628114D01*
X129621029Y-98791413D01*
X129834127Y-98879899D01*
X130064865Y-98880101D01*
X130278116Y-98791987D01*
X130441415Y-98628973D01*
X130529901Y-98415875D01*
X130529938Y-98373185D01*
X135511425Y-98373185D01*
X135599539Y-98586436D01*
X135762553Y-98749735D01*
X135975651Y-98838221D01*
X136206389Y-98838423D01*
X136419640Y-98750309D01*
X136494870Y-98675210D01*
X136521027Y-98701413D01*
X136734125Y-98789899D01*
X136964863Y-98790101D01*
X137178114Y-98701987D01*
X137254122Y-98626111D01*
X137279382Y-98651415D01*
X137492480Y-98739901D01*
X137723218Y-98740103D01*
X137732475Y-98736278D01*
X147775005Y-98736278D01*
X147863119Y-98949529D01*
X148026133Y-99112828D01*
X148239231Y-99201314D01*
X148469969Y-99201516D01*
X148683220Y-99113402D01*
X148846519Y-98950388D01*
X148935005Y-98737290D01*
X148935207Y-98506552D01*
X148872531Y-98354863D01*
X148879909Y-98354863D01*
X148968023Y-98568114D01*
X149131037Y-98731413D01*
X149344135Y-98819899D01*
X149574873Y-98820101D01*
X149788124Y-98731987D01*
X149951423Y-98568973D01*
X150039909Y-98355875D01*
X150040111Y-98125137D01*
X149951997Y-97911886D01*
X149788983Y-97748587D01*
X149575885Y-97660101D01*
X149345147Y-97659899D01*
X149131896Y-97748013D01*
X148968597Y-97911027D01*
X148880111Y-98124125D01*
X148879909Y-98354863D01*
X148872531Y-98354863D01*
X148847093Y-98293301D01*
X148684079Y-98130002D01*
X148470981Y-98041516D01*
X148240243Y-98041314D01*
X148026992Y-98129428D01*
X147863693Y-98292442D01*
X147775207Y-98505540D01*
X147775005Y-98736278D01*
X137732475Y-98736278D01*
X137936469Y-98651989D01*
X138099768Y-98488975D01*
X138188254Y-98275877D01*
X138188452Y-98049682D01*
X138250542Y-98111881D01*
X138463640Y-98200367D01*
X138694378Y-98200569D01*
X138907629Y-98112455D01*
X139070928Y-97949441D01*
X139159414Y-97736343D01*
X139159616Y-97505605D01*
X139071502Y-97292354D01*
X139014112Y-97234863D01*
X150229899Y-97234863D01*
X150318013Y-97448114D01*
X150481027Y-97611413D01*
X150694125Y-97699899D01*
X150924863Y-97700101D01*
X151138114Y-97611987D01*
X151301413Y-97448973D01*
X151389899Y-97235875D01*
X151390101Y-97005137D01*
X151301987Y-96791886D01*
X151138973Y-96628587D01*
X150925875Y-96540101D01*
X150695137Y-96539899D01*
X150481886Y-96628013D01*
X150318587Y-96791027D01*
X150230101Y-97004125D01*
X150229899Y-97234863D01*
X139014112Y-97234863D01*
X138908488Y-97129055D01*
X138695390Y-97040569D01*
X138464652Y-97040367D01*
X138251401Y-97128481D01*
X138088102Y-97291495D01*
X137999616Y-97504593D01*
X137999418Y-97730788D01*
X137937328Y-97668589D01*
X137724230Y-97580103D01*
X137493492Y-97579901D01*
X137280241Y-97668015D01*
X137204233Y-97743891D01*
X137178973Y-97718587D01*
X136965875Y-97630101D01*
X136735137Y-97629899D01*
X136521886Y-97718013D01*
X136446656Y-97793112D01*
X136420499Y-97766909D01*
X136207401Y-97678423D01*
X135976663Y-97678221D01*
X135763412Y-97766335D01*
X135600113Y-97929349D01*
X135511627Y-98142447D01*
X135511425Y-98373185D01*
X130529938Y-98373185D01*
X130530103Y-98185137D01*
X130441989Y-97971886D01*
X130278975Y-97808587D01*
X130065877Y-97720101D01*
X129835139Y-97719899D01*
X129621888Y-97808013D01*
X129458589Y-97971027D01*
X129370103Y-98184125D01*
X129369901Y-98414863D01*
X117755000Y-98414863D01*
X117755000Y-95904863D01*
X128609899Y-95904863D01*
X128698013Y-96118114D01*
X128861027Y-96281413D01*
X129074125Y-96369899D01*
X129304863Y-96370101D01*
X129407221Y-96327807D01*
X136207145Y-96327807D01*
X136295259Y-96541058D01*
X136458273Y-96704357D01*
X136671371Y-96792843D01*
X136902109Y-96793045D01*
X137115360Y-96704931D01*
X137210916Y-96609542D01*
X137212552Y-96611181D01*
X137425650Y-96699667D01*
X137656388Y-96699869D01*
X137869639Y-96611755D01*
X137966148Y-96515415D01*
X138077756Y-96627218D01*
X138290854Y-96715704D01*
X138521592Y-96715906D01*
X138734843Y-96627792D01*
X138898142Y-96464778D01*
X138914806Y-96424647D01*
X138994754Y-96618135D01*
X139157768Y-96781434D01*
X139370866Y-96869920D01*
X139601604Y-96870122D01*
X139814855Y-96782008D01*
X139978154Y-96618994D01*
X140015538Y-96528962D01*
X140114125Y-96569899D01*
X140344863Y-96570101D01*
X140558114Y-96481987D01*
X140677015Y-96363294D01*
X140730299Y-96416671D01*
X140943397Y-96505157D01*
X141174135Y-96505359D01*
X141387386Y-96417245D01*
X141550685Y-96254231D01*
X141559228Y-96233658D01*
X141559183Y-96284893D01*
X141647297Y-96498144D01*
X141810311Y-96661443D01*
X142023409Y-96749929D01*
X142254147Y-96750131D01*
X142467398Y-96662017D01*
X142630697Y-96499003D01*
X142719183Y-96285905D01*
X142719385Y-96055167D01*
X142664866Y-95923221D01*
X142782529Y-96041090D01*
X142995627Y-96129576D01*
X143226365Y-96129778D01*
X143307404Y-96096293D01*
X143301495Y-96102192D01*
X143213009Y-96315290D01*
X143212807Y-96546028D01*
X143300921Y-96759279D01*
X143463935Y-96922578D01*
X143677033Y-97011064D01*
X143907771Y-97011266D01*
X144121022Y-96923152D01*
X144284321Y-96760138D01*
X144372807Y-96547040D01*
X144373009Y-96316302D01*
X144342306Y-96241995D01*
X144370329Y-96241995D01*
X144458443Y-96455246D01*
X144621457Y-96618545D01*
X144834555Y-96707031D01*
X145065293Y-96707233D01*
X145278544Y-96619119D01*
X145441843Y-96456105D01*
X145530329Y-96243007D01*
X145530521Y-96023222D01*
X145830886Y-96023222D01*
X145919000Y-96236473D01*
X146082014Y-96399772D01*
X146295112Y-96488258D01*
X146525850Y-96488460D01*
X146566695Y-96471583D01*
X146604851Y-96563927D01*
X146767865Y-96727226D01*
X146980963Y-96815712D01*
X147211701Y-96815914D01*
X147424952Y-96727800D01*
X147588251Y-96564786D01*
X147676737Y-96351688D01*
X147676939Y-96120950D01*
X147645684Y-96045308D01*
X147723485Y-96123245D01*
X147936583Y-96211731D01*
X148167321Y-96211933D01*
X148380572Y-96123819D01*
X148543871Y-95960805D01*
X148608623Y-95804863D01*
X150509899Y-95804863D01*
X150598013Y-96018114D01*
X150761027Y-96181413D01*
X150974125Y-96269899D01*
X151204863Y-96270101D01*
X151418114Y-96181987D01*
X151581413Y-96018973D01*
X151669899Y-95805875D01*
X151670101Y-95575137D01*
X151581987Y-95361886D01*
X151418973Y-95198587D01*
X151205875Y-95110101D01*
X150975137Y-95109899D01*
X150761886Y-95198013D01*
X150598587Y-95361027D01*
X150510101Y-95574125D01*
X150509899Y-95804863D01*
X148608623Y-95804863D01*
X148632357Y-95747707D01*
X148632559Y-95516969D01*
X148544445Y-95303718D01*
X148465541Y-95224676D01*
X148551393Y-95138973D01*
X148631994Y-94944863D01*
X148759899Y-94944863D01*
X148848013Y-95158114D01*
X149011027Y-95321413D01*
X149224125Y-95409899D01*
X149454863Y-95410101D01*
X149668114Y-95321987D01*
X149831413Y-95158973D01*
X149919899Y-94945875D01*
X149920101Y-94715137D01*
X149831987Y-94501886D01*
X149668973Y-94338587D01*
X149455875Y-94250101D01*
X149225137Y-94249899D01*
X149011886Y-94338013D01*
X148848587Y-94501027D01*
X148760101Y-94714125D01*
X148759899Y-94944863D01*
X148631994Y-94944863D01*
X148639879Y-94925875D01*
X148640081Y-94695137D01*
X148551967Y-94481886D01*
X148388953Y-94318587D01*
X148175855Y-94230101D01*
X147945117Y-94229899D01*
X147731866Y-94318013D01*
X147568567Y-94481027D01*
X147480081Y-94694125D01*
X147479879Y-94924863D01*
X147567993Y-95138114D01*
X147646897Y-95217156D01*
X147561045Y-95302859D01*
X147472559Y-95515957D01*
X147472357Y-95746695D01*
X147503612Y-95822337D01*
X147425811Y-95744400D01*
X147212713Y-95655914D01*
X146981975Y-95655712D01*
X146941130Y-95672589D01*
X146902974Y-95580245D01*
X146739960Y-95416946D01*
X146526862Y-95328460D01*
X146296124Y-95328258D01*
X146082873Y-95416372D01*
X145919574Y-95579386D01*
X145831088Y-95792484D01*
X145830886Y-96023222D01*
X145530521Y-96023222D01*
X145530531Y-96012269D01*
X145442417Y-95799018D01*
X145438659Y-95795254D01*
X145532550Y-95701527D01*
X145621036Y-95488429D01*
X145621238Y-95257691D01*
X145533124Y-95044440D01*
X145370110Y-94881141D01*
X145157012Y-94792655D01*
X144926274Y-94792453D01*
X144713023Y-94880567D01*
X144549724Y-95043581D01*
X144461238Y-95256679D01*
X144461036Y-95487417D01*
X144549150Y-95700668D01*
X144552908Y-95704432D01*
X144459017Y-95798159D01*
X144370531Y-96011257D01*
X144370329Y-96241995D01*
X144342306Y-96241995D01*
X144284895Y-96103051D01*
X144121881Y-95939752D01*
X143908783Y-95851266D01*
X143678045Y-95851064D01*
X143597006Y-95884549D01*
X143602915Y-95878650D01*
X143691401Y-95665552D01*
X143691603Y-95434814D01*
X143603489Y-95221563D01*
X143440475Y-95058264D01*
X143227377Y-94969778D01*
X142996639Y-94969576D01*
X142783388Y-95057690D01*
X142697716Y-95143212D01*
X142668312Y-95072049D01*
X142572402Y-94975971D01*
X142635893Y-95002335D01*
X142866631Y-95002537D01*
X143079882Y-94914423D01*
X143243181Y-94751409D01*
X143331667Y-94538311D01*
X143331682Y-94520373D01*
X145962012Y-94520373D01*
X146050126Y-94733624D01*
X146213140Y-94896923D01*
X146426238Y-94985409D01*
X146656976Y-94985611D01*
X146870227Y-94897497D01*
X147033526Y-94734483D01*
X147122012Y-94521385D01*
X147122214Y-94290647D01*
X147034100Y-94077396D01*
X146871086Y-93914097D01*
X146657988Y-93825611D01*
X146427250Y-93825409D01*
X146213999Y-93913523D01*
X146050700Y-94076537D01*
X145962214Y-94289635D01*
X145962012Y-94520373D01*
X143331682Y-94520373D01*
X143331869Y-94307573D01*
X143243755Y-94094322D01*
X143080741Y-93931023D01*
X142867643Y-93842537D01*
X142636905Y-93842335D01*
X142423654Y-93930449D01*
X142260355Y-94093463D01*
X142171869Y-94306561D01*
X142171667Y-94537299D01*
X142259781Y-94750550D01*
X142355691Y-94846628D01*
X142292200Y-94820264D01*
X142061462Y-94820062D01*
X141848211Y-94908176D01*
X141684912Y-95071190D01*
X141596426Y-95284288D01*
X141596224Y-95515026D01*
X141684338Y-95728277D01*
X141722526Y-95766532D01*
X141647871Y-95841057D01*
X141639328Y-95861630D01*
X141639373Y-95810395D01*
X141551259Y-95597144D01*
X141388245Y-95433845D01*
X141175147Y-95345359D01*
X140944409Y-95345157D01*
X140731158Y-95433271D01*
X140612257Y-95551964D01*
X140558973Y-95498587D01*
X140345875Y-95410101D01*
X140115137Y-95409899D01*
X139901886Y-95498013D01*
X139738587Y-95661027D01*
X139701203Y-95751059D01*
X139602616Y-95710122D01*
X139371878Y-95709920D01*
X139158627Y-95798034D01*
X138995328Y-95961048D01*
X138978664Y-96001179D01*
X138898716Y-95807691D01*
X138735702Y-95644392D01*
X138522604Y-95555906D01*
X138291866Y-95555704D01*
X138078615Y-95643818D01*
X137982106Y-95740158D01*
X137870498Y-95628355D01*
X137657400Y-95539869D01*
X137426662Y-95539667D01*
X137213411Y-95627781D01*
X137117855Y-95723170D01*
X137116219Y-95721531D01*
X136903121Y-95633045D01*
X136672383Y-95632843D01*
X136459132Y-95720957D01*
X136295833Y-95883971D01*
X136207347Y-96097069D01*
X136207145Y-96327807D01*
X129407221Y-96327807D01*
X129518114Y-96281987D01*
X129681413Y-96118973D01*
X129769899Y-95905875D01*
X129770101Y-95675137D01*
X129681987Y-95461886D01*
X129518973Y-95298587D01*
X129305875Y-95210101D01*
X129075137Y-95209899D01*
X128861886Y-95298013D01*
X128698587Y-95461027D01*
X128610101Y-95674125D01*
X128609899Y-95904863D01*
X117755000Y-95904863D01*
X117755000Y-94754863D01*
X129359899Y-94754863D01*
X129448013Y-94968114D01*
X129611027Y-95131413D01*
X129824125Y-95219899D01*
X130054863Y-95220101D01*
X130268114Y-95131987D01*
X130431413Y-94968973D01*
X130503709Y-94794863D01*
X132629899Y-94794863D01*
X132718013Y-95008114D01*
X132881027Y-95171413D01*
X133094125Y-95259899D01*
X133324863Y-95260101D01*
X133538114Y-95171987D01*
X133701413Y-95008973D01*
X133789899Y-94795875D01*
X133790043Y-94630827D01*
X140325572Y-94630827D01*
X140413686Y-94844078D01*
X140576700Y-95007377D01*
X140789798Y-95095863D01*
X141020536Y-95096065D01*
X141233787Y-95007951D01*
X141397086Y-94844937D01*
X141485572Y-94631839D01*
X141485774Y-94401101D01*
X141397660Y-94187850D01*
X141234646Y-94024551D01*
X141021548Y-93936065D01*
X140790810Y-93935863D01*
X140577559Y-94023977D01*
X140414260Y-94186991D01*
X140325774Y-94400089D01*
X140325572Y-94630827D01*
X133790043Y-94630827D01*
X133790101Y-94565137D01*
X133701987Y-94351886D01*
X133538973Y-94188587D01*
X133325875Y-94100101D01*
X133095137Y-94099899D01*
X132881886Y-94188013D01*
X132718587Y-94351027D01*
X132630101Y-94564125D01*
X132629899Y-94794863D01*
X130503709Y-94794863D01*
X130519899Y-94755875D01*
X130520101Y-94525137D01*
X130431987Y-94311886D01*
X130268973Y-94148587D01*
X130055875Y-94060101D01*
X129825137Y-94059899D01*
X129611886Y-94148013D01*
X129448587Y-94311027D01*
X129360101Y-94524125D01*
X129359899Y-94754863D01*
X117755000Y-94754863D01*
X117755000Y-93154863D01*
X126009854Y-93154863D01*
X126097968Y-93368114D01*
X126260982Y-93531413D01*
X126474080Y-93619899D01*
X126704818Y-93620101D01*
X126918069Y-93531987D01*
X127035397Y-93414863D01*
X133789899Y-93414863D01*
X133878013Y-93628114D01*
X134041027Y-93791413D01*
X134254125Y-93879899D01*
X134484863Y-93880101D01*
X134698114Y-93791987D01*
X134861413Y-93628973D01*
X134949899Y-93415875D01*
X134950101Y-93185137D01*
X134933461Y-93144863D01*
X140199897Y-93144863D01*
X140288011Y-93358114D01*
X140451025Y-93521413D01*
X140664123Y-93609899D01*
X140894861Y-93610101D01*
X141108112Y-93521987D01*
X141271411Y-93358973D01*
X141359897Y-93145875D01*
X141360099Y-92915137D01*
X141271985Y-92701886D01*
X141185227Y-92614976D01*
X141291415Y-92508973D01*
X141379901Y-92295875D01*
X141380103Y-92065137D01*
X141291989Y-91851886D01*
X141128975Y-91688587D01*
X140915877Y-91600101D01*
X140685139Y-91599899D01*
X140471888Y-91688013D01*
X140308589Y-91851027D01*
X140220103Y-92064125D01*
X140219901Y-92294863D01*
X140308015Y-92508114D01*
X140394773Y-92595024D01*
X140288585Y-92701027D01*
X140200099Y-92914125D01*
X140199897Y-93144863D01*
X134933461Y-93144863D01*
X134861987Y-92971886D01*
X134698973Y-92808587D01*
X134485875Y-92720101D01*
X134255137Y-92719899D01*
X134041886Y-92808013D01*
X133878587Y-92971027D01*
X133790101Y-93184125D01*
X133789899Y-93414863D01*
X127035397Y-93414863D01*
X127081368Y-93368973D01*
X127169854Y-93155875D01*
X127170056Y-92925137D01*
X127081942Y-92711886D01*
X126918928Y-92548587D01*
X126705830Y-92460101D01*
X126475092Y-92459899D01*
X126261841Y-92548013D01*
X126098542Y-92711027D01*
X126010056Y-92924125D01*
X126009854Y-93154863D01*
X117755000Y-93154863D01*
X117755000Y-91624863D01*
X128669899Y-91624863D01*
X128758013Y-91838114D01*
X128921027Y-92001413D01*
X129134125Y-92089899D01*
X129364863Y-92090101D01*
X129578114Y-92001987D01*
X129741413Y-91838973D01*
X129829899Y-91625875D01*
X129830101Y-91395137D01*
X129751481Y-91204863D01*
X129759899Y-91204863D01*
X129848013Y-91418114D01*
X130011027Y-91581413D01*
X130224125Y-91669899D01*
X130454863Y-91670101D01*
X130668114Y-91581987D01*
X130750036Y-91500208D01*
X130871028Y-91621412D01*
X131084126Y-91709898D01*
X131314864Y-91710100D01*
X131528115Y-91621986D01*
X131691414Y-91458972D01*
X131704054Y-91428532D01*
X131708013Y-91438114D01*
X131871027Y-91601413D01*
X132084125Y-91689899D01*
X132314863Y-91690101D01*
X132528114Y-91601987D01*
X132605824Y-91524413D01*
X132628013Y-91578114D01*
X132791027Y-91741413D01*
X133004125Y-91829899D01*
X133234863Y-91830101D01*
X133448114Y-91741987D01*
X133611413Y-91578973D01*
X133699899Y-91365875D01*
X133700101Y-91135137D01*
X133611987Y-90921886D01*
X133505129Y-90814841D01*
X140429899Y-90814841D01*
X140518013Y-91028092D01*
X140681027Y-91191391D01*
X140894125Y-91279877D01*
X141124863Y-91280079D01*
X141161688Y-91264863D01*
X141849899Y-91264863D01*
X141938013Y-91478114D01*
X142101027Y-91641413D01*
X142314125Y-91729899D01*
X142544863Y-91730101D01*
X142758114Y-91641987D01*
X142921413Y-91478973D01*
X143009899Y-91265875D01*
X143010101Y-91035137D01*
X142921987Y-90821886D01*
X142758973Y-90658587D01*
X142545875Y-90570101D01*
X142315137Y-90569899D01*
X142101886Y-90658013D01*
X141938587Y-90821027D01*
X141850101Y-91034125D01*
X141849899Y-91264863D01*
X141161688Y-91264863D01*
X141338114Y-91191965D01*
X141501413Y-91028951D01*
X141589899Y-90815853D01*
X141590101Y-90585115D01*
X141501987Y-90371864D01*
X141338973Y-90208565D01*
X141125875Y-90120079D01*
X140895137Y-90119877D01*
X140681886Y-90207991D01*
X140518587Y-90371005D01*
X140430101Y-90584103D01*
X140429899Y-90814841D01*
X133505129Y-90814841D01*
X133448973Y-90758587D01*
X133235875Y-90670101D01*
X133005137Y-90669899D01*
X132791886Y-90758013D01*
X132714176Y-90835587D01*
X132691987Y-90781886D01*
X132528973Y-90618587D01*
X132315875Y-90530101D01*
X132085137Y-90529899D01*
X131871886Y-90618013D01*
X131708587Y-90781027D01*
X131695947Y-90811467D01*
X131691988Y-90801885D01*
X131528974Y-90638586D01*
X131315876Y-90550100D01*
X131085138Y-90549898D01*
X130871887Y-90638012D01*
X130789965Y-90719791D01*
X130668973Y-90598587D01*
X130455875Y-90510101D01*
X130225137Y-90509899D01*
X130011886Y-90598013D01*
X129848587Y-90761027D01*
X129760101Y-90974125D01*
X129759899Y-91204863D01*
X129751481Y-91204863D01*
X129741987Y-91181886D01*
X129578973Y-91018587D01*
X129365875Y-90930101D01*
X129135137Y-90929899D01*
X128921886Y-91018013D01*
X128758587Y-91181027D01*
X128670101Y-91394125D01*
X128669899Y-91624863D01*
X117755000Y-91624863D01*
X117755000Y-90244863D01*
X128239899Y-90244863D01*
X128328013Y-90458114D01*
X128491027Y-90621413D01*
X128704125Y-90709899D01*
X128934863Y-90710101D01*
X129148114Y-90621987D01*
X129311413Y-90458973D01*
X129399899Y-90245875D01*
X129400101Y-90015137D01*
X129311987Y-89801886D01*
X129148973Y-89638587D01*
X128935875Y-89550101D01*
X128705137Y-89549899D01*
X128491886Y-89638013D01*
X128328587Y-89801027D01*
X128240101Y-90014125D01*
X128239899Y-90244863D01*
X117755000Y-90244863D01*
X117755000Y-88974853D01*
X128269899Y-88974853D01*
X128358013Y-89188104D01*
X128521027Y-89351403D01*
X128734125Y-89439889D01*
X128964863Y-89440091D01*
X129178114Y-89351977D01*
X129341413Y-89188963D01*
X129429899Y-88975865D01*
X129429957Y-88909930D01*
X129624863Y-88910101D01*
X129838114Y-88821987D01*
X130001413Y-88658973D01*
X130019647Y-88615060D01*
X139079889Y-88615060D01*
X139168003Y-88828311D01*
X139219748Y-88880146D01*
X139168577Y-88931228D01*
X139080091Y-89144326D01*
X139079889Y-89375064D01*
X139168003Y-89588315D01*
X139331017Y-89751614D01*
X139544115Y-89840100D01*
X139774853Y-89840302D01*
X139988104Y-89752188D01*
X140151403Y-89589174D01*
X140239889Y-89376076D01*
X140240091Y-89145338D01*
X140206840Y-89064863D01*
X141859856Y-89064863D01*
X141947970Y-89278114D01*
X142024713Y-89354991D01*
X141948544Y-89431027D01*
X141860058Y-89644125D01*
X141859856Y-89874863D01*
X141947970Y-90088114D01*
X142110984Y-90251413D01*
X142324082Y-90339899D01*
X142554820Y-90340101D01*
X142768071Y-90251987D01*
X142931370Y-90088973D01*
X143019856Y-89875875D01*
X143020058Y-89645137D01*
X143019945Y-89644863D01*
X144829899Y-89644863D01*
X144918013Y-89858114D01*
X145081027Y-90021413D01*
X145294125Y-90109899D01*
X145524863Y-90110101D01*
X145738114Y-90021987D01*
X145901413Y-89858973D01*
X145989899Y-89645875D01*
X145990101Y-89415137D01*
X145901987Y-89201886D01*
X145738973Y-89038587D01*
X145525875Y-88950101D01*
X145295137Y-88949899D01*
X145081886Y-89038013D01*
X144918587Y-89201027D01*
X144830101Y-89414125D01*
X144829899Y-89644863D01*
X143019945Y-89644863D01*
X142931944Y-89431886D01*
X142855201Y-89355009D01*
X142931370Y-89278973D01*
X143019856Y-89065875D01*
X143020058Y-88835137D01*
X142931944Y-88621886D01*
X142768930Y-88458587D01*
X142555832Y-88370101D01*
X142325094Y-88369899D01*
X142111843Y-88458013D01*
X141948544Y-88621027D01*
X141860058Y-88834125D01*
X141859856Y-89064863D01*
X140206840Y-89064863D01*
X140151977Y-88932087D01*
X140100232Y-88880252D01*
X140151403Y-88829170D01*
X140239889Y-88616072D01*
X140240091Y-88385334D01*
X140151977Y-88172083D01*
X139988963Y-88008784D01*
X139775865Y-87920298D01*
X139545127Y-87920096D01*
X139331876Y-88008210D01*
X139168577Y-88171224D01*
X139080091Y-88384322D01*
X139079889Y-88615060D01*
X130019647Y-88615060D01*
X130089899Y-88445875D01*
X130090101Y-88215137D01*
X130001987Y-88001886D01*
X129838973Y-87838587D01*
X129625875Y-87750101D01*
X129395137Y-87749899D01*
X129181886Y-87838013D01*
X129018587Y-88001027D01*
X128930101Y-88214125D01*
X128930043Y-88280060D01*
X128735137Y-88279889D01*
X128521886Y-88368003D01*
X128358587Y-88531017D01*
X128270101Y-88744115D01*
X128269899Y-88974853D01*
X117755000Y-88974853D01*
X117755000Y-86854863D01*
X126119899Y-86854863D01*
X126208013Y-87068114D01*
X126371027Y-87231413D01*
X126584125Y-87319899D01*
X126814863Y-87320101D01*
X127028114Y-87231987D01*
X127045267Y-87214863D01*
X140729899Y-87214863D01*
X140818013Y-87428114D01*
X140981027Y-87591413D01*
X141194125Y-87679899D01*
X141424863Y-87680101D01*
X141638114Y-87591987D01*
X141801413Y-87428973D01*
X141889899Y-87215875D01*
X141890101Y-86985137D01*
X141801987Y-86771886D01*
X141638973Y-86608587D01*
X141425875Y-86520101D01*
X141195137Y-86519899D01*
X140981886Y-86608013D01*
X140818587Y-86771027D01*
X140730101Y-86984125D01*
X140729899Y-87214863D01*
X127045267Y-87214863D01*
X127191413Y-87068973D01*
X127279899Y-86855875D01*
X127280101Y-86625137D01*
X127191987Y-86411886D01*
X127028973Y-86248587D01*
X126815875Y-86160101D01*
X126585137Y-86159899D01*
X126371886Y-86248013D01*
X126208587Y-86411027D01*
X126120101Y-86624125D01*
X126119899Y-86854863D01*
X117755000Y-86854863D01*
X117755000Y-84084859D01*
X130159899Y-84084859D01*
X130248013Y-84298110D01*
X130411027Y-84461409D01*
X130624125Y-84549895D01*
X130854863Y-84550097D01*
X130915933Y-84524863D01*
X155509899Y-84524863D01*
X155598013Y-84738114D01*
X155761027Y-84901413D01*
X155974125Y-84989899D01*
X156204863Y-84990101D01*
X156418114Y-84901987D01*
X156581413Y-84738973D01*
X156669899Y-84525875D01*
X156670101Y-84295137D01*
X156581987Y-84081886D01*
X156418973Y-83918587D01*
X156205875Y-83830101D01*
X155975137Y-83829899D01*
X155761886Y-83918013D01*
X155598587Y-84081027D01*
X155510101Y-84294125D01*
X155509899Y-84524863D01*
X130915933Y-84524863D01*
X131068114Y-84461983D01*
X131231413Y-84298969D01*
X131319899Y-84085871D01*
X131320101Y-83855133D01*
X131231987Y-83641882D01*
X131068973Y-83478583D01*
X130855875Y-83390097D01*
X130625137Y-83389895D01*
X130411886Y-83478009D01*
X130248587Y-83641023D01*
X130160101Y-83854121D01*
X130159899Y-84084859D01*
X117755000Y-84084859D01*
X117755000Y-80674863D01*
X120149899Y-80674863D01*
X120238013Y-80888114D01*
X120401027Y-81051413D01*
X120614125Y-81139899D01*
X120844863Y-81140101D01*
X121058114Y-81051987D01*
X121221413Y-80888973D01*
X121309899Y-80675875D01*
X121310101Y-80445137D01*
X121221987Y-80231886D01*
X121058973Y-80068587D01*
X120845875Y-79980101D01*
X120615137Y-79979899D01*
X120401886Y-80068013D01*
X120238587Y-80231027D01*
X120150101Y-80444125D01*
X120149899Y-80674863D01*
X117755000Y-80674863D01*
X117755000Y-79700000D01*
X123095000Y-79700000D01*
X123095000Y-82150000D01*
X123101090Y-82180615D01*
X123118431Y-82206569D01*
X123144385Y-82223910D01*
X123175000Y-82230000D01*
X125625000Y-82230000D01*
X125655615Y-82223910D01*
X125681569Y-82206569D01*
X125698910Y-82180615D01*
X125705000Y-82150000D01*
X125705000Y-79924863D01*
X128709899Y-79924863D01*
X128798013Y-80138114D01*
X128961027Y-80301413D01*
X129174125Y-80389899D01*
X129404863Y-80390101D01*
X129618114Y-80301987D01*
X129781413Y-80138973D01*
X129869899Y-79925875D01*
X129870101Y-79695137D01*
X129781987Y-79481886D01*
X129618973Y-79318587D01*
X129405875Y-79230101D01*
X129175137Y-79229899D01*
X128961886Y-79318013D01*
X128798587Y-79481027D01*
X128710101Y-79694125D01*
X128709899Y-79924863D01*
X125705000Y-79924863D01*
X125705000Y-79700000D01*
X125698910Y-79669385D01*
X125681569Y-79643431D01*
X125655615Y-79626090D01*
X125625000Y-79620000D01*
X123175000Y-79620000D01*
X123144385Y-79626090D01*
X123118431Y-79643431D01*
X123101090Y-79669385D01*
X123095000Y-79700000D01*
X117755000Y-79700000D01*
X117755000Y-79182869D01*
X121899899Y-79182869D01*
X121988013Y-79396120D01*
X122151027Y-79559419D01*
X122364125Y-79647905D01*
X122594863Y-79648107D01*
X122808114Y-79559993D01*
X122971413Y-79396979D01*
X123059899Y-79183881D01*
X123060101Y-78953143D01*
X122971987Y-78739892D01*
X122808973Y-78576593D01*
X122664911Y-78516773D01*
X125675030Y-78516773D01*
X125763144Y-78730024D01*
X125926158Y-78893323D01*
X126139256Y-78981809D01*
X126369994Y-78982011D01*
X126583245Y-78893897D01*
X126746544Y-78730883D01*
X126835030Y-78517785D01*
X126835207Y-78314863D01*
X133579899Y-78314863D01*
X133668013Y-78528114D01*
X133831027Y-78691413D01*
X134044125Y-78779899D01*
X134274863Y-78780101D01*
X134488114Y-78691987D01*
X134651413Y-78528973D01*
X134739899Y-78315875D01*
X134740101Y-78085137D01*
X134651987Y-77871886D01*
X134488973Y-77708587D01*
X134275875Y-77620101D01*
X134045137Y-77619899D01*
X133831886Y-77708013D01*
X133668587Y-77871027D01*
X133580101Y-78084125D01*
X133579899Y-78314863D01*
X126835207Y-78314863D01*
X126835232Y-78287047D01*
X126770284Y-78129862D01*
X126911413Y-77988979D01*
X126999899Y-77775881D01*
X127000101Y-77545143D01*
X126911987Y-77331892D01*
X126748973Y-77168593D01*
X126535875Y-77080107D01*
X126305137Y-77079905D01*
X126091886Y-77168019D01*
X125928587Y-77331033D01*
X125840101Y-77544131D01*
X125839899Y-77774869D01*
X125904847Y-77932054D01*
X125763718Y-78072937D01*
X125675232Y-78286035D01*
X125675030Y-78516773D01*
X122664911Y-78516773D01*
X122595875Y-78488107D01*
X122365137Y-78487905D01*
X122151886Y-78576019D01*
X121988587Y-78739033D01*
X121900101Y-78952131D01*
X121899899Y-79182869D01*
X117755000Y-79182869D01*
X117755000Y-75105000D01*
X120679178Y-75105000D01*
X120671886Y-75108013D01*
X120671886Y-75108013D01*
G37*
X120671886Y-75108013D02*
X120508587Y-75271027D01*
X120420101Y-75484125D01*
X120419899Y-75714863D01*
X120508013Y-75928114D01*
X120671027Y-76091413D01*
X120884125Y-76179899D01*
X121114863Y-76180101D01*
X121328114Y-76091987D01*
X121491413Y-75928973D01*
X121579899Y-75715875D01*
X121580101Y-75485137D01*
X121491987Y-75271886D01*
X121328973Y-75108587D01*
X121320335Y-75105000D01*
X157045000Y-75105000D01*
X157045000Y-114395000D01*
X155715113Y-114395000D01*
X155871413Y-114238973D01*
X155959899Y-114025875D01*
X155960101Y-113795137D01*
X155871987Y-113581886D01*
X155708973Y-113418587D01*
X155495875Y-113330101D01*
X155265137Y-113329899D01*
X155051886Y-113418013D01*
X154888587Y-113581027D01*
X154800101Y-113794125D01*
X154799899Y-114024863D01*
X154888013Y-114238114D01*
X155044625Y-114395000D01*
X120652419Y-114395000D01*
X120708114Y-114371987D01*
X120871413Y-114208973D01*
X120959899Y-113995875D01*
X120959907Y-113986979D01*
X121059502Y-114086574D01*
X121171178Y-113974898D01*
X121245454Y-114196932D01*
X121753324Y-114356305D01*
X122283525Y-114309193D01*
X122554546Y-114196932D01*
X122628823Y-113974897D01*
X121900000Y-113246073D01*
X121885858Y-113260216D01*
X121639784Y-113014142D01*
X121653927Y-113000000D01*
X122146073Y-113000000D01*
X122864515Y-113718441D01*
X122864515Y-113750000D01*
X122886246Y-113859250D01*
X122948132Y-113951868D01*
X123040750Y-114013754D01*
X123150000Y-114035485D01*
X124650000Y-114035485D01*
X124759250Y-114013754D01*
X124851868Y-113951868D01*
X124913754Y-113859250D01*
X124935485Y-113750000D01*
X124935485Y-113709726D01*
X129859893Y-113709726D01*
X129948007Y-113922977D01*
X130111021Y-114086276D01*
X130324119Y-114174762D01*
X130554857Y-114174964D01*
X130768108Y-114086850D01*
X130931407Y-113923836D01*
X131019893Y-113710738D01*
X131020095Y-113480000D01*
X131013842Y-113464865D01*
X139439899Y-113464865D01*
X139528013Y-113678116D01*
X139691027Y-113841415D01*
X139904125Y-113929901D01*
X140134863Y-113930103D01*
X140348114Y-113841989D01*
X140511413Y-113678975D01*
X140531279Y-113631131D01*
X144462476Y-113631131D01*
X144550590Y-113844382D01*
X144713604Y-114007681D01*
X144926702Y-114096167D01*
X145157440Y-114096369D01*
X145370691Y-114008255D01*
X145533990Y-113845241D01*
X145622476Y-113632143D01*
X145622678Y-113401405D01*
X145534564Y-113188154D01*
X145371550Y-113024855D01*
X145158452Y-112936369D01*
X144927714Y-112936167D01*
X144714463Y-113024281D01*
X144551164Y-113187295D01*
X144462678Y-113400393D01*
X144462476Y-113631131D01*
X140531279Y-113631131D01*
X140599899Y-113465877D01*
X140600101Y-113235139D01*
X140511987Y-113021888D01*
X140348973Y-112858589D01*
X140135875Y-112770103D01*
X139905137Y-112769901D01*
X139691886Y-112858015D01*
X139528587Y-113021029D01*
X139440101Y-113234127D01*
X139439899Y-113464865D01*
X131013842Y-113464865D01*
X130931981Y-113266749D01*
X130768967Y-113103450D01*
X130555869Y-113014964D01*
X130325131Y-113014762D01*
X130111880Y-113102876D01*
X129948581Y-113265890D01*
X129860095Y-113478988D01*
X129859893Y-113709726D01*
X124935485Y-113709726D01*
X124935485Y-112684863D01*
X133119899Y-112684863D01*
X133208013Y-112898114D01*
X133371027Y-113061413D01*
X133584125Y-113149899D01*
X133814863Y-113150101D01*
X134028114Y-113061987D01*
X134191413Y-112898973D01*
X134279899Y-112685875D01*
X134280101Y-112455137D01*
X134191987Y-112241886D01*
X134028973Y-112078587D01*
X133815875Y-111990101D01*
X133585137Y-111989899D01*
X133371886Y-112078013D01*
X133208587Y-112241027D01*
X133120101Y-112454125D01*
X133119899Y-112684863D01*
X124935485Y-112684863D01*
X124935485Y-112250000D01*
X124913754Y-112140750D01*
X124851868Y-112048132D01*
X124759250Y-111986246D01*
X124650000Y-111964515D01*
X123150000Y-111964515D01*
X123040750Y-111986246D01*
X122948132Y-112048132D01*
X122886246Y-112140750D01*
X122864515Y-112250000D01*
X122864515Y-112281559D01*
X122146073Y-113000000D01*
X121653927Y-113000000D01*
X120925103Y-112271177D01*
X120703068Y-112345454D01*
X120543695Y-112853324D01*
X120586747Y-113337834D01*
X120495875Y-113300101D01*
X120265137Y-113299899D01*
X120051886Y-113388013D01*
X119888587Y-113551027D01*
X119800101Y-113764125D01*
X119799899Y-113994863D01*
X119888013Y-114208114D01*
X120051027Y-114371413D01*
X120107831Y-114395000D01*
X117755000Y-114395000D01*
X117755000Y-112025103D01*
X121171177Y-112025103D01*
X121900000Y-112753927D01*
X122628823Y-112025103D01*
X122554546Y-111803068D01*
X122046676Y-111643695D01*
X121516475Y-111690807D01*
X121245454Y-111803068D01*
X121171177Y-112025103D01*
X117755000Y-112025103D01*
X117755000Y-111414863D01*
X142219920Y-111414863D01*
X142308034Y-111628114D01*
X142471048Y-111791413D01*
X142684146Y-111879899D01*
X142914884Y-111880101D01*
X143128135Y-111791987D01*
X143291434Y-111628973D01*
X143295466Y-111619263D01*
X143414182Y-111668558D01*
X143644920Y-111668760D01*
X143858171Y-111580646D01*
X143886316Y-111552550D01*
X144069909Y-111552550D01*
X144158023Y-111765801D01*
X144321037Y-111929100D01*
X144534135Y-112017586D01*
X144764873Y-112017788D01*
X144978124Y-111929674D01*
X145141423Y-111766660D01*
X145229909Y-111553562D01*
X145230111Y-111322824D01*
X145197721Y-111244435D01*
X145308104Y-111198825D01*
X145471403Y-111035811D01*
X145559889Y-110822713D01*
X145560091Y-110591975D01*
X145528226Y-110514854D01*
X147419899Y-110514854D01*
X147508013Y-110728105D01*
X147671027Y-110891404D01*
X147884125Y-110979890D01*
X148114863Y-110980092D01*
X148328114Y-110891978D01*
X148491413Y-110728964D01*
X148579899Y-110515866D01*
X148580101Y-110285128D01*
X148491987Y-110071877D01*
X148328973Y-109908578D01*
X148228130Y-109866704D01*
X151858049Y-109866704D01*
X151946163Y-110079955D01*
X152109177Y-110243254D01*
X152322275Y-110331740D01*
X152553013Y-110331942D01*
X152766264Y-110243828D01*
X152929563Y-110080814D01*
X153018049Y-109867716D01*
X153018251Y-109636978D01*
X152930137Y-109423727D01*
X152767123Y-109260428D01*
X152554025Y-109171942D01*
X152323287Y-109171740D01*
X152110036Y-109259854D01*
X151946737Y-109422868D01*
X151858251Y-109635966D01*
X151858049Y-109866704D01*
X148228130Y-109866704D01*
X148115875Y-109820092D01*
X147885137Y-109819890D01*
X147671886Y-109908004D01*
X147508587Y-110071018D01*
X147420101Y-110284116D01*
X147419899Y-110514854D01*
X145528226Y-110514854D01*
X145471977Y-110378724D01*
X145308963Y-110215425D01*
X145095865Y-110126939D01*
X144865127Y-110126737D01*
X144651876Y-110214851D01*
X144488577Y-110377865D01*
X144400091Y-110590963D01*
X144399889Y-110821701D01*
X144432279Y-110900090D01*
X144321896Y-110945700D01*
X144158597Y-111108714D01*
X144070111Y-111321812D01*
X144069909Y-111552550D01*
X143886316Y-111552550D01*
X144021470Y-111417632D01*
X144109956Y-111204534D01*
X144110158Y-110973796D01*
X144022044Y-110760545D01*
X143859030Y-110597246D01*
X143645932Y-110508760D01*
X143415194Y-110508558D01*
X143201943Y-110596672D01*
X143038644Y-110759686D01*
X143034612Y-110769396D01*
X142915896Y-110720101D01*
X142685158Y-110719899D01*
X142471907Y-110808013D01*
X142308608Y-110971027D01*
X142220122Y-111184125D01*
X142219920Y-111414863D01*
X117755000Y-111414863D01*
X117755000Y-110484863D01*
X138519899Y-110484863D01*
X138608013Y-110698114D01*
X138771027Y-110861413D01*
X138984125Y-110949899D01*
X139214863Y-110950101D01*
X139428114Y-110861987D01*
X139591413Y-110698973D01*
X139679899Y-110485875D01*
X139680093Y-110264179D01*
X140919888Y-110264179D01*
X141008002Y-110477430D01*
X141171016Y-110640729D01*
X141384114Y-110729215D01*
X141614852Y-110729417D01*
X141828103Y-110641303D01*
X141869617Y-110599861D01*
X141951027Y-110681413D01*
X142164125Y-110769899D01*
X142394863Y-110770101D01*
X142608114Y-110681987D01*
X142771413Y-110518973D01*
X142859899Y-110305875D01*
X142860101Y-110075137D01*
X142771987Y-109861886D01*
X142608973Y-109698587D01*
X142395875Y-109610101D01*
X142165137Y-109609899D01*
X141951886Y-109698013D01*
X141910372Y-109739455D01*
X141828962Y-109657903D01*
X141615864Y-109569417D01*
X141385126Y-109569215D01*
X141171875Y-109657329D01*
X141008576Y-109820343D01*
X140920090Y-110033441D01*
X140919888Y-110264179D01*
X139680093Y-110264179D01*
X139680101Y-110255137D01*
X139591987Y-110041886D01*
X139428973Y-109878587D01*
X139215875Y-109790101D01*
X138985137Y-109789899D01*
X138771886Y-109878013D01*
X138608587Y-110041027D01*
X138520101Y-110254125D01*
X138519899Y-110484863D01*
X117755000Y-110484863D01*
X117755000Y-107766348D01*
X119669902Y-107766348D01*
X119758016Y-107979599D01*
X119921030Y-108142898D01*
X120134128Y-108231384D01*
X120364866Y-108231586D01*
X120578117Y-108143472D01*
X120741416Y-107980458D01*
X120829902Y-107767360D01*
X120829902Y-107766364D01*
X124169900Y-107766364D01*
X124258014Y-107979615D01*
X124421028Y-108142914D01*
X124634126Y-108231400D01*
X124864864Y-108231602D01*
X125078115Y-108143488D01*
X125241414Y-107980474D01*
X125329900Y-107767376D01*
X125329900Y-107766364D01*
X128669900Y-107766364D01*
X128758014Y-107979615D01*
X128921028Y-108142914D01*
X129134126Y-108231400D01*
X129364864Y-108231602D01*
X129578115Y-108143488D01*
X129741414Y-107980474D01*
X129764735Y-107924310D01*
X131124561Y-107924310D01*
X131212675Y-108137561D01*
X131375689Y-108300860D01*
X131588787Y-108389346D01*
X131819525Y-108389548D01*
X131939771Y-108339863D01*
X134019899Y-108339863D01*
X134108013Y-108553114D01*
X134271027Y-108716413D01*
X134484125Y-108804899D01*
X134714863Y-108805101D01*
X134928114Y-108716987D01*
X135070496Y-108574853D01*
X150401737Y-108574853D01*
X150489851Y-108788104D01*
X150652865Y-108951403D01*
X150865963Y-109039889D01*
X151096701Y-109040091D01*
X151309952Y-108951977D01*
X151473251Y-108788963D01*
X151561737Y-108575865D01*
X151561939Y-108345127D01*
X151473825Y-108131876D01*
X151310811Y-107968577D01*
X151097713Y-107880091D01*
X150866975Y-107879889D01*
X150653724Y-107968003D01*
X150490425Y-108131017D01*
X150401939Y-108344115D01*
X150401737Y-108574853D01*
X135070496Y-108574853D01*
X135091413Y-108553973D01*
X135179899Y-108340875D01*
X135180101Y-108110137D01*
X135091987Y-107896886D01*
X134928973Y-107733587D01*
X134715875Y-107645101D01*
X134485137Y-107644899D01*
X134271886Y-107733013D01*
X134108587Y-107896027D01*
X134020101Y-108109125D01*
X134019899Y-108339863D01*
X131939771Y-108339863D01*
X132032776Y-108301434D01*
X132196075Y-108138420D01*
X132284561Y-107925322D01*
X132284763Y-107694584D01*
X132196649Y-107481333D01*
X132033635Y-107318034D01*
X131820537Y-107229548D01*
X131589799Y-107229346D01*
X131376548Y-107317460D01*
X131213249Y-107480474D01*
X131124763Y-107693572D01*
X131124561Y-107924310D01*
X129764735Y-107924310D01*
X129829900Y-107767376D01*
X129830102Y-107536638D01*
X129741988Y-107323387D01*
X129578974Y-107160088D01*
X129365876Y-107071602D01*
X129135138Y-107071400D01*
X128921887Y-107159514D01*
X128758588Y-107322528D01*
X128670102Y-107535626D01*
X128669900Y-107766364D01*
X125329900Y-107766364D01*
X125330102Y-107536638D01*
X125241988Y-107323387D01*
X125078974Y-107160088D01*
X124865876Y-107071602D01*
X124635138Y-107071400D01*
X124421887Y-107159514D01*
X124258588Y-107322528D01*
X124170102Y-107535626D01*
X124169900Y-107766364D01*
X120829902Y-107766364D01*
X120830104Y-107536622D01*
X120741990Y-107323371D01*
X120578976Y-107160072D01*
X120365878Y-107071586D01*
X120135140Y-107071384D01*
X119921889Y-107159498D01*
X119758590Y-107322512D01*
X119670104Y-107535610D01*
X119669902Y-107766348D01*
X117755000Y-107766348D01*
X117755000Y-106359857D01*
X133699909Y-106359857D01*
X133788023Y-106573108D01*
X133951037Y-106736407D01*
X134164135Y-106824893D01*
X134394873Y-106825095D01*
X134608124Y-106736981D01*
X134771423Y-106573967D01*
X134859909Y-106360869D01*
X134860111Y-106130131D01*
X134771997Y-105916880D01*
X134686733Y-105831466D01*
X138129856Y-105831466D01*
X138217970Y-106044717D01*
X138306424Y-106133325D01*
X138263868Y-106175807D01*
X138175382Y-106388905D01*
X138175180Y-106619643D01*
X138263294Y-106832894D01*
X138348221Y-106917969D01*
X138333546Y-106932618D01*
X138245060Y-107145716D01*
X138244858Y-107376454D01*
X138332972Y-107589705D01*
X138495986Y-107753004D01*
X138709084Y-107841490D01*
X138939822Y-107841692D01*
X139153073Y-107753578D01*
X139316372Y-107590564D01*
X139404858Y-107377466D01*
X139405060Y-107146728D01*
X139316946Y-106933477D01*
X139232019Y-106848402D01*
X139246694Y-106833753D01*
X139335180Y-106620655D01*
X139335382Y-106389917D01*
X139247268Y-106176666D01*
X139158814Y-106088058D01*
X139201370Y-106045576D01*
X139255646Y-105914863D01*
X141119899Y-105914863D01*
X141208013Y-106128114D01*
X141324669Y-106244974D01*
X141308587Y-106261027D01*
X141220101Y-106474125D01*
X141219899Y-106704863D01*
X141308013Y-106918114D01*
X141471027Y-107081413D01*
X141684125Y-107169899D01*
X141782116Y-107169985D01*
X141781942Y-107368895D01*
X141870056Y-107582146D01*
X142033070Y-107745445D01*
X142246168Y-107833931D01*
X142476906Y-107834133D01*
X142690157Y-107746019D01*
X142853456Y-107583005D01*
X142941942Y-107369907D01*
X142942051Y-107244873D01*
X143229921Y-107244873D01*
X143318035Y-107458124D01*
X143481049Y-107621423D01*
X143694147Y-107709909D01*
X143924885Y-107710111D01*
X144138136Y-107621997D01*
X144301435Y-107458983D01*
X144389921Y-107245885D01*
X144390123Y-107015147D01*
X144302009Y-106801896D01*
X144138995Y-106638597D01*
X143925897Y-106550111D01*
X143695159Y-106549909D01*
X143481908Y-106638023D01*
X143318609Y-106801037D01*
X143230123Y-107014135D01*
X143229921Y-107244873D01*
X142942051Y-107244873D01*
X142942144Y-107139169D01*
X142854030Y-106925918D01*
X142691016Y-106762619D01*
X142477918Y-106674133D01*
X142379927Y-106674047D01*
X142380101Y-106475137D01*
X142291987Y-106261886D01*
X142175331Y-106145026D01*
X142191413Y-106128973D01*
X142279899Y-105915875D01*
X142280101Y-105685137D01*
X142197350Y-105484863D01*
X145849899Y-105484863D01*
X145938013Y-105698114D01*
X146101027Y-105861413D01*
X146314125Y-105949899D01*
X146399269Y-105949974D01*
X146399216Y-106010489D01*
X146487330Y-106223740D01*
X146650344Y-106387039D01*
X146863442Y-106475525D01*
X147094180Y-106475727D01*
X147297597Y-106391676D01*
X147288280Y-106414115D01*
X147288078Y-106644853D01*
X147376192Y-106858104D01*
X147539206Y-107021403D01*
X147752304Y-107109889D01*
X147983042Y-107110091D01*
X148196293Y-107021977D01*
X148359592Y-106858963D01*
X148448078Y-106645865D01*
X148448195Y-106512043D01*
X149829263Y-106512043D01*
X149917377Y-106725294D01*
X150080391Y-106888593D01*
X150293489Y-106977079D01*
X150524227Y-106977281D01*
X150737478Y-106889167D01*
X150900777Y-106726153D01*
X150989263Y-106513055D01*
X150989427Y-106325000D01*
X154398842Y-106325000D01*
X154454410Y-106604359D01*
X154612654Y-106841188D01*
X154849483Y-106999432D01*
X155128842Y-107055000D01*
X155871158Y-107055000D01*
X156150517Y-106999432D01*
X156387346Y-106841188D01*
X156545590Y-106604359D01*
X156601158Y-106325000D01*
X156545590Y-106045641D01*
X156387346Y-105808812D01*
X156150517Y-105650568D01*
X155871158Y-105595000D01*
X155128842Y-105595000D01*
X154849483Y-105650568D01*
X154612654Y-105808812D01*
X154454410Y-106045641D01*
X154398842Y-106325000D01*
X150989427Y-106325000D01*
X150989465Y-106282317D01*
X150901351Y-106069066D01*
X150738337Y-105905767D01*
X150525239Y-105817281D01*
X150294501Y-105817079D01*
X150081250Y-105905193D01*
X149917951Y-106068207D01*
X149829465Y-106281305D01*
X149829263Y-106512043D01*
X148448195Y-106512043D01*
X148448280Y-106415127D01*
X148360166Y-106201876D01*
X148197152Y-106038577D01*
X147984054Y-105950091D01*
X147753316Y-105949889D01*
X147549899Y-106033940D01*
X147559216Y-106011501D01*
X147559418Y-105780763D01*
X147471304Y-105567512D01*
X147308290Y-105404213D01*
X147095192Y-105315727D01*
X147010048Y-105315652D01*
X147010101Y-105255137D01*
X146921987Y-105041886D01*
X146758973Y-104878587D01*
X146673509Y-104843099D01*
X149624278Y-104843099D01*
X149712392Y-105056350D01*
X149875406Y-105219649D01*
X150088504Y-105308135D01*
X150319242Y-105308337D01*
X150532493Y-105220223D01*
X150639151Y-105113751D01*
X150560101Y-105304125D01*
X150559899Y-105534863D01*
X150648013Y-105748114D01*
X150811027Y-105911413D01*
X151024125Y-105999899D01*
X151254863Y-106000101D01*
X151468114Y-105911987D01*
X151631413Y-105748973D01*
X151719899Y-105535875D01*
X151720101Y-105305137D01*
X151631987Y-105091886D01*
X151468973Y-104928587D01*
X151456783Y-104923525D01*
X151501413Y-104878973D01*
X151589899Y-104665875D01*
X151590101Y-104435137D01*
X151501987Y-104221886D01*
X151338973Y-104058587D01*
X151125875Y-103970101D01*
X151006998Y-103969997D01*
X151007130Y-103819483D01*
X150919016Y-103606232D01*
X150841618Y-103528699D01*
X150881413Y-103488973D01*
X150969899Y-103275875D01*
X150970101Y-103045137D01*
X150881987Y-102831886D01*
X150718973Y-102668587D01*
X150505875Y-102580101D01*
X150275137Y-102579899D01*
X150061886Y-102668013D01*
X149898587Y-102831027D01*
X149810101Y-103044125D01*
X149809899Y-103274863D01*
X149898013Y-103488114D01*
X149975411Y-103565647D01*
X149935616Y-103605373D01*
X149847130Y-103818471D01*
X149846928Y-104049209D01*
X149917220Y-104219327D01*
X149876265Y-104236249D01*
X149712966Y-104399263D01*
X149624480Y-104612361D01*
X149624278Y-104843099D01*
X146673509Y-104843099D01*
X146545875Y-104790101D01*
X146315137Y-104789899D01*
X146101886Y-104878013D01*
X145938587Y-105041027D01*
X145850101Y-105254125D01*
X145849899Y-105484863D01*
X142197350Y-105484863D01*
X142191987Y-105471886D01*
X142028973Y-105308587D01*
X141815875Y-105220101D01*
X141585137Y-105219899D01*
X141371886Y-105308013D01*
X141208587Y-105471027D01*
X141120101Y-105684125D01*
X141119899Y-105914863D01*
X139255646Y-105914863D01*
X139289856Y-105832478D01*
X139290058Y-105601740D01*
X139201944Y-105388489D01*
X139038930Y-105225190D01*
X138825832Y-105136704D01*
X138595094Y-105136502D01*
X138381843Y-105224616D01*
X138218544Y-105387630D01*
X138130058Y-105600728D01*
X138129856Y-105831466D01*
X134686733Y-105831466D01*
X134608983Y-105753581D01*
X134395885Y-105665095D01*
X134165147Y-105664893D01*
X133951896Y-105753007D01*
X133788597Y-105916021D01*
X133700111Y-106129119D01*
X133699909Y-106359857D01*
X117755000Y-106359857D01*
X117755000Y-105154863D01*
X131709899Y-105154863D01*
X131798013Y-105368114D01*
X131961027Y-105531413D01*
X132174125Y-105619899D01*
X132400052Y-105620097D01*
X132399899Y-105794863D01*
X132488013Y-106008114D01*
X132651027Y-106171413D01*
X132864125Y-106259899D01*
X133094863Y-106260101D01*
X133308114Y-106171987D01*
X133471413Y-106008973D01*
X133559899Y-105795875D01*
X133560101Y-105565137D01*
X133471987Y-105351886D01*
X133308973Y-105188587D01*
X133095875Y-105100101D01*
X132869948Y-105099903D01*
X132870101Y-104925137D01*
X132781987Y-104711886D01*
X132675151Y-104604863D01*
X132779899Y-104604863D01*
X132868013Y-104818114D01*
X133031027Y-104981413D01*
X133244125Y-105069899D01*
X133474863Y-105070101D01*
X133688114Y-104981987D01*
X133851413Y-104818973D01*
X133939899Y-104605875D01*
X133940101Y-104375137D01*
X133851987Y-104161886D01*
X133688973Y-103998587D01*
X133475875Y-103910101D01*
X133245137Y-103909899D01*
X133031886Y-103998013D01*
X132868587Y-104161027D01*
X132780101Y-104374125D01*
X132779899Y-104604863D01*
X132675151Y-104604863D01*
X132618973Y-104548587D01*
X132405875Y-104460101D01*
X132175137Y-104459899D01*
X131961886Y-104548013D01*
X131798587Y-104711027D01*
X131710101Y-104924125D01*
X131709899Y-105154863D01*
X117755000Y-105154863D01*
X117755000Y-102534863D01*
X126439899Y-102534863D01*
X126528013Y-102748114D01*
X126691027Y-102911413D01*
X126904125Y-102999899D01*
X127134863Y-103000101D01*
X127348114Y-102911987D01*
X127511413Y-102748973D01*
X127599899Y-102535875D01*
X127600101Y-102305137D01*
X127546002Y-102174206D01*
X135007469Y-102174206D01*
X135095583Y-102387457D01*
X135258597Y-102550756D01*
X135471695Y-102639242D01*
X135702433Y-102639444D01*
X135882931Y-102564863D01*
X138129856Y-102564863D01*
X138217970Y-102778114D01*
X138380984Y-102941413D01*
X138594082Y-103029899D01*
X138824820Y-103030101D01*
X138992421Y-102960849D01*
X140565885Y-102960849D01*
X140653999Y-103174100D01*
X140817013Y-103337399D01*
X141030111Y-103425885D01*
X141249994Y-103426077D01*
X141249899Y-103534863D01*
X141338013Y-103748114D01*
X141501027Y-103911413D01*
X141714125Y-103999899D01*
X141944863Y-104000101D01*
X142158114Y-103911987D01*
X142321413Y-103748973D01*
X142409899Y-103535875D01*
X142409952Y-103474863D01*
X143929899Y-103474863D01*
X144018013Y-103688114D01*
X144181027Y-103851413D01*
X144394125Y-103939899D01*
X144624863Y-103940101D01*
X144838114Y-103851987D01*
X145001413Y-103688973D01*
X145069561Y-103524853D01*
X147209899Y-103524853D01*
X147298013Y-103738104D01*
X147461027Y-103901403D01*
X147674125Y-103989889D01*
X147904863Y-103990091D01*
X148118114Y-103901977D01*
X148281413Y-103738963D01*
X148369899Y-103525865D01*
X148370101Y-103295127D01*
X148281987Y-103081876D01*
X148118973Y-102918577D01*
X147905875Y-102830091D01*
X147675137Y-102829889D01*
X147461886Y-102918003D01*
X147298587Y-103081017D01*
X147210101Y-103294115D01*
X147209899Y-103524853D01*
X145069561Y-103524853D01*
X145089899Y-103475875D01*
X145090101Y-103245137D01*
X145001987Y-103031886D01*
X144838973Y-102868587D01*
X144625875Y-102780101D01*
X144395137Y-102779899D01*
X144181886Y-102868013D01*
X144018587Y-103031027D01*
X143930101Y-103244125D01*
X143929899Y-103474863D01*
X142409952Y-103474863D01*
X142410101Y-103305137D01*
X142321987Y-103091886D01*
X142158973Y-102928587D01*
X141945875Y-102840101D01*
X141725992Y-102839909D01*
X141726087Y-102731123D01*
X141637973Y-102517872D01*
X141474959Y-102354573D01*
X141261861Y-102266087D01*
X141031123Y-102265885D01*
X140817872Y-102353999D01*
X140654573Y-102517013D01*
X140566087Y-102730111D01*
X140565885Y-102960849D01*
X138992421Y-102960849D01*
X139038071Y-102941987D01*
X139201370Y-102778973D01*
X139289856Y-102565875D01*
X139290058Y-102335137D01*
X139201944Y-102121886D01*
X139038930Y-101958587D01*
X138825832Y-101870101D01*
X138595094Y-101869899D01*
X138381843Y-101958013D01*
X138218544Y-102121027D01*
X138130058Y-102334125D01*
X138129856Y-102564863D01*
X135882931Y-102564863D01*
X135915684Y-102551330D01*
X136078983Y-102388316D01*
X136167469Y-102175218D01*
X136167671Y-101944480D01*
X136079557Y-101731229D01*
X135916543Y-101567930D01*
X135703445Y-101479444D01*
X135472707Y-101479242D01*
X135259456Y-101567356D01*
X135096157Y-101730370D01*
X135007671Y-101943468D01*
X135007469Y-102174206D01*
X127546002Y-102174206D01*
X127511987Y-102091886D01*
X127348973Y-101928587D01*
X127135875Y-101840101D01*
X126905137Y-101839899D01*
X126691886Y-101928013D01*
X126528587Y-102091027D01*
X126440101Y-102304125D01*
X126439899Y-102534863D01*
X117755000Y-102534863D01*
X117755000Y-101253422D01*
X138833871Y-101253422D01*
X138921985Y-101466673D01*
X139084999Y-101629972D01*
X139298097Y-101718458D01*
X139528835Y-101718660D01*
X139742086Y-101630546D01*
X139905385Y-101467532D01*
X139993871Y-101254434D01*
X139994073Y-101023696D01*
X139905959Y-100810445D01*
X139880422Y-100784863D01*
X141749899Y-100784863D01*
X141838013Y-100998114D01*
X142001027Y-101161413D01*
X142155071Y-101225378D01*
X142051886Y-101268013D01*
X141888587Y-101431027D01*
X141800101Y-101644125D01*
X141799899Y-101874863D01*
X141888013Y-102088114D01*
X142051027Y-102251413D01*
X142264125Y-102339899D01*
X142494863Y-102340101D01*
X142708114Y-102251987D01*
X142871413Y-102088973D01*
X142959899Y-101875875D01*
X142960101Y-101645137D01*
X142931065Y-101574863D01*
X146439909Y-101574863D01*
X146528023Y-101788114D01*
X146691037Y-101951413D01*
X146904135Y-102039899D01*
X147134873Y-102040101D01*
X147147078Y-102035058D01*
X147147069Y-102044818D01*
X147235183Y-102258069D01*
X147398197Y-102421368D01*
X147611295Y-102509854D01*
X147842033Y-102510056D01*
X148055284Y-102421942D01*
X148218583Y-102258928D01*
X148307069Y-102045830D01*
X148307271Y-101815092D01*
X148219157Y-101601841D01*
X148056143Y-101438542D01*
X147919277Y-101381710D01*
X148015553Y-101341930D01*
X148178852Y-101178916D01*
X148180534Y-101174863D01*
X150119899Y-101174863D01*
X150208013Y-101388114D01*
X150371027Y-101551413D01*
X150584125Y-101639899D01*
X150814863Y-101640101D01*
X151028114Y-101551987D01*
X151191413Y-101388973D01*
X151215191Y-101331708D01*
X153343054Y-101331708D01*
X153431168Y-101544959D01*
X153594182Y-101708258D01*
X153807280Y-101796744D01*
X154038018Y-101796946D01*
X154251269Y-101708832D01*
X154414568Y-101545818D01*
X154503054Y-101332720D01*
X154503256Y-101101982D01*
X154415142Y-100888731D01*
X154252128Y-100725432D01*
X154039030Y-100636946D01*
X153808292Y-100636744D01*
X153595041Y-100724858D01*
X153431742Y-100887872D01*
X153343256Y-101100970D01*
X153343054Y-101331708D01*
X151215191Y-101331708D01*
X151279899Y-101175875D01*
X151280101Y-100945137D01*
X151191987Y-100731886D01*
X151028973Y-100568587D01*
X150815875Y-100480101D01*
X150585137Y-100479899D01*
X150371886Y-100568013D01*
X150208587Y-100731027D01*
X150120101Y-100944125D01*
X150119899Y-101174863D01*
X148180534Y-101174863D01*
X148267338Y-100965818D01*
X148267540Y-100735080D01*
X148179426Y-100521829D01*
X148016412Y-100358530D01*
X147803314Y-100270044D01*
X147572576Y-100269842D01*
X147359325Y-100357956D01*
X147196026Y-100520970D01*
X147107540Y-100734068D01*
X147107412Y-100880076D01*
X146905147Y-100879899D01*
X146691896Y-100968013D01*
X146528597Y-101131027D01*
X146440111Y-101344125D01*
X146439909Y-101574863D01*
X142931065Y-101574863D01*
X142871987Y-101431886D01*
X142708973Y-101268587D01*
X142554929Y-101204622D01*
X142658114Y-101161987D01*
X142821413Y-100998973D01*
X142909899Y-100785875D01*
X142910101Y-100555137D01*
X142821987Y-100341886D01*
X142658973Y-100178587D01*
X142650029Y-100174873D01*
X145899442Y-100174873D01*
X145987556Y-100388124D01*
X146150570Y-100551423D01*
X146363668Y-100639909D01*
X146594406Y-100640111D01*
X146807657Y-100551997D01*
X146970956Y-100388983D01*
X147059442Y-100175885D01*
X147059644Y-99945147D01*
X147026472Y-99864863D01*
X153629901Y-99864863D01*
X153718015Y-100078114D01*
X153881029Y-100241413D01*
X154094127Y-100329899D01*
X154324865Y-100330101D01*
X154538116Y-100241987D01*
X154583150Y-100197032D01*
X154612654Y-100241188D01*
X154849483Y-100399432D01*
X155128842Y-100455000D01*
X155871158Y-100455000D01*
X156150517Y-100399432D01*
X156387346Y-100241188D01*
X156545590Y-100004359D01*
X156601158Y-99725000D01*
X156545590Y-99445641D01*
X156387346Y-99208812D01*
X156150517Y-99050568D01*
X155871158Y-98995000D01*
X155128842Y-98995000D01*
X154849483Y-99050568D01*
X154612654Y-99208812D01*
X154563188Y-99282843D01*
X154538975Y-99258587D01*
X154325877Y-99170101D01*
X154095139Y-99169899D01*
X153881888Y-99258013D01*
X153718589Y-99421027D01*
X153630103Y-99634125D01*
X153629901Y-99864863D01*
X147026472Y-99864863D01*
X146971530Y-99731896D01*
X146808516Y-99568597D01*
X146595418Y-99480111D01*
X146364680Y-99479909D01*
X146151429Y-99568023D01*
X145988130Y-99731037D01*
X145899644Y-99944135D01*
X145899442Y-100174873D01*
X142650029Y-100174873D01*
X142445875Y-100090101D01*
X142215137Y-100089899D01*
X142001886Y-100178013D01*
X141838587Y-100341027D01*
X141750101Y-100554125D01*
X141749899Y-100784863D01*
X139880422Y-100784863D01*
X139742945Y-100647146D01*
X139529847Y-100558660D01*
X139299109Y-100558458D01*
X139085858Y-100646572D01*
X138922559Y-100809586D01*
X138834073Y-101022684D01*
X138833871Y-101253422D01*
X117755000Y-101253422D01*
X117755000Y-100304863D01*
X121229901Y-100304863D01*
X121318015Y-100518114D01*
X121481029Y-100681413D01*
X121694127Y-100769899D01*
X121924865Y-100770101D01*
X122138116Y-100681987D01*
X122301415Y-100518973D01*
X122328027Y-100454884D01*
X135712823Y-100454884D01*
X135800937Y-100668135D01*
X135963951Y-100831434D01*
X136177049Y-100919920D01*
X136407787Y-100920122D01*
X136621038Y-100832008D01*
X136784337Y-100668994D01*
X136872823Y-100455896D01*
X136873025Y-100225158D01*
X136784911Y-100011907D01*
X136621897Y-99848608D01*
X136408799Y-99760122D01*
X136178061Y-99759920D01*
X135964810Y-99848034D01*
X135801511Y-100011048D01*
X135713025Y-100224146D01*
X135712823Y-100454884D01*
X122328027Y-100454884D01*
X122389901Y-100305875D01*
X122390103Y-100075137D01*
X122301989Y-99861886D01*
X122138975Y-99698587D01*
X121925877Y-99610101D01*
X121695139Y-99609899D01*
X121481888Y-99698013D01*
X121318589Y-99861027D01*
X121230103Y-100074125D01*
X121229901Y-100304863D01*
X117755000Y-100304863D01*
X117755000Y-99314863D01*
X120359899Y-99314863D01*
X120448013Y-99528114D01*
X120611027Y-99691413D01*
X120824125Y-99779899D01*
X121054863Y-99780101D01*
X121268114Y-99691987D01*
X121431413Y-99528973D01*
X121519899Y-99315875D01*
X121519952Y-99254863D01*
X124869899Y-99254863D01*
X124958013Y-99468114D01*
X125121027Y-99631413D01*
X125334125Y-99719899D01*
X125564863Y-99720101D01*
X125778114Y-99631987D01*
X125941413Y-99468973D01*
X126029899Y-99255875D01*
X126030059Y-99072990D01*
X130761772Y-99072990D01*
X130849886Y-99286241D01*
X131012900Y-99449540D01*
X131225998Y-99538026D01*
X131456736Y-99538228D01*
X131537485Y-99504863D01*
X141799899Y-99504863D01*
X141888013Y-99718114D01*
X142051027Y-99881413D01*
X142264125Y-99969899D01*
X142494863Y-99970101D01*
X142708114Y-99881987D01*
X142871413Y-99718973D01*
X142959899Y-99505875D01*
X142960101Y-99275137D01*
X142871987Y-99061886D01*
X142708973Y-98898587D01*
X142495875Y-98810101D01*
X142265137Y-98809899D01*
X142051886Y-98898013D01*
X141888587Y-99061027D01*
X141800101Y-99274125D01*
X141799899Y-99504863D01*
X131537485Y-99504863D01*
X131669987Y-99450114D01*
X131833286Y-99287100D01*
X131921772Y-99074002D01*
X131921974Y-98843264D01*
X131833860Y-98630013D01*
X131670846Y-98466714D01*
X131457748Y-98378228D01*
X131227010Y-98378026D01*
X131013759Y-98466140D01*
X130850460Y-98629154D01*
X130761974Y-98842252D01*
X130761772Y-99072990D01*
X126030059Y-99072990D01*
X126030101Y-99025137D01*
X125941987Y-98811886D01*
X125778973Y-98648587D01*
X125565875Y-98560101D01*
X125335137Y-98559899D01*
X125121886Y-98648013D01*
X124958587Y-98811027D01*
X124870101Y-99024125D01*
X124869899Y-99254863D01*
X121519952Y-99254863D01*
X121520101Y-99085137D01*
X121431987Y-98871886D01*
X121268973Y-98708587D01*
X121055875Y-98620101D01*
X120825137Y-98619899D01*
X120611886Y-98708013D01*
X120448587Y-98871027D01*
X120360101Y-99084125D01*
X120359899Y-99314863D01*
X117755000Y-99314863D01*
X117755000Y-98414863D01*
X129369901Y-98414863D01*
X129458015Y-98628114D01*
X129621029Y-98791413D01*
X129834127Y-98879899D01*
X130064865Y-98880101D01*
X130278116Y-98791987D01*
X130441415Y-98628973D01*
X130529901Y-98415875D01*
X130529938Y-98373185D01*
X135511425Y-98373185D01*
X135599539Y-98586436D01*
X135762553Y-98749735D01*
X135975651Y-98838221D01*
X136206389Y-98838423D01*
X136419640Y-98750309D01*
X136494870Y-98675210D01*
X136521027Y-98701413D01*
X136734125Y-98789899D01*
X136964863Y-98790101D01*
X137178114Y-98701987D01*
X137254122Y-98626111D01*
X137279382Y-98651415D01*
X137492480Y-98739901D01*
X137723218Y-98740103D01*
X137732475Y-98736278D01*
X147775005Y-98736278D01*
X147863119Y-98949529D01*
X148026133Y-99112828D01*
X148239231Y-99201314D01*
X148469969Y-99201516D01*
X148683220Y-99113402D01*
X148846519Y-98950388D01*
X148935005Y-98737290D01*
X148935207Y-98506552D01*
X148872531Y-98354863D01*
X148879909Y-98354863D01*
X148968023Y-98568114D01*
X149131037Y-98731413D01*
X149344135Y-98819899D01*
X149574873Y-98820101D01*
X149788124Y-98731987D01*
X149951423Y-98568973D01*
X150039909Y-98355875D01*
X150040111Y-98125137D01*
X149951997Y-97911886D01*
X149788983Y-97748587D01*
X149575885Y-97660101D01*
X149345147Y-97659899D01*
X149131896Y-97748013D01*
X148968597Y-97911027D01*
X148880111Y-98124125D01*
X148879909Y-98354863D01*
X148872531Y-98354863D01*
X148847093Y-98293301D01*
X148684079Y-98130002D01*
X148470981Y-98041516D01*
X148240243Y-98041314D01*
X148026992Y-98129428D01*
X147863693Y-98292442D01*
X147775207Y-98505540D01*
X147775005Y-98736278D01*
X137732475Y-98736278D01*
X137936469Y-98651989D01*
X138099768Y-98488975D01*
X138188254Y-98275877D01*
X138188452Y-98049682D01*
X138250542Y-98111881D01*
X138463640Y-98200367D01*
X138694378Y-98200569D01*
X138907629Y-98112455D01*
X139070928Y-97949441D01*
X139159414Y-97736343D01*
X139159616Y-97505605D01*
X139071502Y-97292354D01*
X139014112Y-97234863D01*
X150229899Y-97234863D01*
X150318013Y-97448114D01*
X150481027Y-97611413D01*
X150694125Y-97699899D01*
X150924863Y-97700101D01*
X151138114Y-97611987D01*
X151301413Y-97448973D01*
X151389899Y-97235875D01*
X151390101Y-97005137D01*
X151301987Y-96791886D01*
X151138973Y-96628587D01*
X150925875Y-96540101D01*
X150695137Y-96539899D01*
X150481886Y-96628013D01*
X150318587Y-96791027D01*
X150230101Y-97004125D01*
X150229899Y-97234863D01*
X139014112Y-97234863D01*
X138908488Y-97129055D01*
X138695390Y-97040569D01*
X138464652Y-97040367D01*
X138251401Y-97128481D01*
X138088102Y-97291495D01*
X137999616Y-97504593D01*
X137999418Y-97730788D01*
X137937328Y-97668589D01*
X137724230Y-97580103D01*
X137493492Y-97579901D01*
X137280241Y-97668015D01*
X137204233Y-97743891D01*
X137178973Y-97718587D01*
X136965875Y-97630101D01*
X136735137Y-97629899D01*
X136521886Y-97718013D01*
X136446656Y-97793112D01*
X136420499Y-97766909D01*
X136207401Y-97678423D01*
X135976663Y-97678221D01*
X135763412Y-97766335D01*
X135600113Y-97929349D01*
X135511627Y-98142447D01*
X135511425Y-98373185D01*
X130529938Y-98373185D01*
X130530103Y-98185137D01*
X130441989Y-97971886D01*
X130278975Y-97808587D01*
X130065877Y-97720101D01*
X129835139Y-97719899D01*
X129621888Y-97808013D01*
X129458589Y-97971027D01*
X129370103Y-98184125D01*
X129369901Y-98414863D01*
X117755000Y-98414863D01*
X117755000Y-95904863D01*
X128609899Y-95904863D01*
X128698013Y-96118114D01*
X128861027Y-96281413D01*
X129074125Y-96369899D01*
X129304863Y-96370101D01*
X129407221Y-96327807D01*
X136207145Y-96327807D01*
X136295259Y-96541058D01*
X136458273Y-96704357D01*
X136671371Y-96792843D01*
X136902109Y-96793045D01*
X137115360Y-96704931D01*
X137210916Y-96609542D01*
X137212552Y-96611181D01*
X137425650Y-96699667D01*
X137656388Y-96699869D01*
X137869639Y-96611755D01*
X137966148Y-96515415D01*
X138077756Y-96627218D01*
X138290854Y-96715704D01*
X138521592Y-96715906D01*
X138734843Y-96627792D01*
X138898142Y-96464778D01*
X138914806Y-96424647D01*
X138994754Y-96618135D01*
X139157768Y-96781434D01*
X139370866Y-96869920D01*
X139601604Y-96870122D01*
X139814855Y-96782008D01*
X139978154Y-96618994D01*
X140015538Y-96528962D01*
X140114125Y-96569899D01*
X140344863Y-96570101D01*
X140558114Y-96481987D01*
X140677015Y-96363294D01*
X140730299Y-96416671D01*
X140943397Y-96505157D01*
X141174135Y-96505359D01*
X141387386Y-96417245D01*
X141550685Y-96254231D01*
X141559228Y-96233658D01*
X141559183Y-96284893D01*
X141647297Y-96498144D01*
X141810311Y-96661443D01*
X142023409Y-96749929D01*
X142254147Y-96750131D01*
X142467398Y-96662017D01*
X142630697Y-96499003D01*
X142719183Y-96285905D01*
X142719385Y-96055167D01*
X142664866Y-95923221D01*
X142782529Y-96041090D01*
X142995627Y-96129576D01*
X143226365Y-96129778D01*
X143307404Y-96096293D01*
X143301495Y-96102192D01*
X143213009Y-96315290D01*
X143212807Y-96546028D01*
X143300921Y-96759279D01*
X143463935Y-96922578D01*
X143677033Y-97011064D01*
X143907771Y-97011266D01*
X144121022Y-96923152D01*
X144284321Y-96760138D01*
X144372807Y-96547040D01*
X144373009Y-96316302D01*
X144342306Y-96241995D01*
X144370329Y-96241995D01*
X144458443Y-96455246D01*
X144621457Y-96618545D01*
X144834555Y-96707031D01*
X145065293Y-96707233D01*
X145278544Y-96619119D01*
X145441843Y-96456105D01*
X145530329Y-96243007D01*
X145530521Y-96023222D01*
X145830886Y-96023222D01*
X145919000Y-96236473D01*
X146082014Y-96399772D01*
X146295112Y-96488258D01*
X146525850Y-96488460D01*
X146566695Y-96471583D01*
X146604851Y-96563927D01*
X146767865Y-96727226D01*
X146980963Y-96815712D01*
X147211701Y-96815914D01*
X147424952Y-96727800D01*
X147588251Y-96564786D01*
X147676737Y-96351688D01*
X147676939Y-96120950D01*
X147645684Y-96045308D01*
X147723485Y-96123245D01*
X147936583Y-96211731D01*
X148167321Y-96211933D01*
X148380572Y-96123819D01*
X148543871Y-95960805D01*
X148608623Y-95804863D01*
X150509899Y-95804863D01*
X150598013Y-96018114D01*
X150761027Y-96181413D01*
X150974125Y-96269899D01*
X151204863Y-96270101D01*
X151418114Y-96181987D01*
X151581413Y-96018973D01*
X151669899Y-95805875D01*
X151670101Y-95575137D01*
X151581987Y-95361886D01*
X151418973Y-95198587D01*
X151205875Y-95110101D01*
X150975137Y-95109899D01*
X150761886Y-95198013D01*
X150598587Y-95361027D01*
X150510101Y-95574125D01*
X150509899Y-95804863D01*
X148608623Y-95804863D01*
X148632357Y-95747707D01*
X148632559Y-95516969D01*
X148544445Y-95303718D01*
X148465541Y-95224676D01*
X148551393Y-95138973D01*
X148631994Y-94944863D01*
X148759899Y-94944863D01*
X148848013Y-95158114D01*
X149011027Y-95321413D01*
X149224125Y-95409899D01*
X149454863Y-95410101D01*
X149668114Y-95321987D01*
X149831413Y-95158973D01*
X149919899Y-94945875D01*
X149920101Y-94715137D01*
X149831987Y-94501886D01*
X149668973Y-94338587D01*
X149455875Y-94250101D01*
X149225137Y-94249899D01*
X149011886Y-94338013D01*
X148848587Y-94501027D01*
X148760101Y-94714125D01*
X148759899Y-94944863D01*
X148631994Y-94944863D01*
X148639879Y-94925875D01*
X148640081Y-94695137D01*
X148551967Y-94481886D01*
X148388953Y-94318587D01*
X148175855Y-94230101D01*
X147945117Y-94229899D01*
X147731866Y-94318013D01*
X147568567Y-94481027D01*
X147480081Y-94694125D01*
X147479879Y-94924863D01*
X147567993Y-95138114D01*
X147646897Y-95217156D01*
X147561045Y-95302859D01*
X147472559Y-95515957D01*
X147472357Y-95746695D01*
X147503612Y-95822337D01*
X147425811Y-95744400D01*
X147212713Y-95655914D01*
X146981975Y-95655712D01*
X146941130Y-95672589D01*
X146902974Y-95580245D01*
X146739960Y-95416946D01*
X146526862Y-95328460D01*
X146296124Y-95328258D01*
X146082873Y-95416372D01*
X145919574Y-95579386D01*
X145831088Y-95792484D01*
X145830886Y-96023222D01*
X145530521Y-96023222D01*
X145530531Y-96012269D01*
X145442417Y-95799018D01*
X145438659Y-95795254D01*
X145532550Y-95701527D01*
X145621036Y-95488429D01*
X145621238Y-95257691D01*
X145533124Y-95044440D01*
X145370110Y-94881141D01*
X145157012Y-94792655D01*
X144926274Y-94792453D01*
X144713023Y-94880567D01*
X144549724Y-95043581D01*
X144461238Y-95256679D01*
X144461036Y-95487417D01*
X144549150Y-95700668D01*
X144552908Y-95704432D01*
X144459017Y-95798159D01*
X144370531Y-96011257D01*
X144370329Y-96241995D01*
X144342306Y-96241995D01*
X144284895Y-96103051D01*
X144121881Y-95939752D01*
X143908783Y-95851266D01*
X143678045Y-95851064D01*
X143597006Y-95884549D01*
X143602915Y-95878650D01*
X143691401Y-95665552D01*
X143691603Y-95434814D01*
X143603489Y-95221563D01*
X143440475Y-95058264D01*
X143227377Y-94969778D01*
X142996639Y-94969576D01*
X142783388Y-95057690D01*
X142697716Y-95143212D01*
X142668312Y-95072049D01*
X142572402Y-94975971D01*
X142635893Y-95002335D01*
X142866631Y-95002537D01*
X143079882Y-94914423D01*
X143243181Y-94751409D01*
X143331667Y-94538311D01*
X143331682Y-94520373D01*
X145962012Y-94520373D01*
X146050126Y-94733624D01*
X146213140Y-94896923D01*
X146426238Y-94985409D01*
X146656976Y-94985611D01*
X146870227Y-94897497D01*
X147033526Y-94734483D01*
X147122012Y-94521385D01*
X147122214Y-94290647D01*
X147034100Y-94077396D01*
X146871086Y-93914097D01*
X146657988Y-93825611D01*
X146427250Y-93825409D01*
X146213999Y-93913523D01*
X146050700Y-94076537D01*
X145962214Y-94289635D01*
X145962012Y-94520373D01*
X143331682Y-94520373D01*
X143331869Y-94307573D01*
X143243755Y-94094322D01*
X143080741Y-93931023D01*
X142867643Y-93842537D01*
X142636905Y-93842335D01*
X142423654Y-93930449D01*
X142260355Y-94093463D01*
X142171869Y-94306561D01*
X142171667Y-94537299D01*
X142259781Y-94750550D01*
X142355691Y-94846628D01*
X142292200Y-94820264D01*
X142061462Y-94820062D01*
X141848211Y-94908176D01*
X141684912Y-95071190D01*
X141596426Y-95284288D01*
X141596224Y-95515026D01*
X141684338Y-95728277D01*
X141722526Y-95766532D01*
X141647871Y-95841057D01*
X141639328Y-95861630D01*
X141639373Y-95810395D01*
X141551259Y-95597144D01*
X141388245Y-95433845D01*
X141175147Y-95345359D01*
X140944409Y-95345157D01*
X140731158Y-95433271D01*
X140612257Y-95551964D01*
X140558973Y-95498587D01*
X140345875Y-95410101D01*
X140115137Y-95409899D01*
X139901886Y-95498013D01*
X139738587Y-95661027D01*
X139701203Y-95751059D01*
X139602616Y-95710122D01*
X139371878Y-95709920D01*
X139158627Y-95798034D01*
X138995328Y-95961048D01*
X138978664Y-96001179D01*
X138898716Y-95807691D01*
X138735702Y-95644392D01*
X138522604Y-95555906D01*
X138291866Y-95555704D01*
X138078615Y-95643818D01*
X137982106Y-95740158D01*
X137870498Y-95628355D01*
X137657400Y-95539869D01*
X137426662Y-95539667D01*
X137213411Y-95627781D01*
X137117855Y-95723170D01*
X137116219Y-95721531D01*
X136903121Y-95633045D01*
X136672383Y-95632843D01*
X136459132Y-95720957D01*
X136295833Y-95883971D01*
X136207347Y-96097069D01*
X136207145Y-96327807D01*
X129407221Y-96327807D01*
X129518114Y-96281987D01*
X129681413Y-96118973D01*
X129769899Y-95905875D01*
X129770101Y-95675137D01*
X129681987Y-95461886D01*
X129518973Y-95298587D01*
X129305875Y-95210101D01*
X129075137Y-95209899D01*
X128861886Y-95298013D01*
X128698587Y-95461027D01*
X128610101Y-95674125D01*
X128609899Y-95904863D01*
X117755000Y-95904863D01*
X117755000Y-94754863D01*
X129359899Y-94754863D01*
X129448013Y-94968114D01*
X129611027Y-95131413D01*
X129824125Y-95219899D01*
X130054863Y-95220101D01*
X130268114Y-95131987D01*
X130431413Y-94968973D01*
X130503709Y-94794863D01*
X132629899Y-94794863D01*
X132718013Y-95008114D01*
X132881027Y-95171413D01*
X133094125Y-95259899D01*
X133324863Y-95260101D01*
X133538114Y-95171987D01*
X133701413Y-95008973D01*
X133789899Y-94795875D01*
X133790043Y-94630827D01*
X140325572Y-94630827D01*
X140413686Y-94844078D01*
X140576700Y-95007377D01*
X140789798Y-95095863D01*
X141020536Y-95096065D01*
X141233787Y-95007951D01*
X141397086Y-94844937D01*
X141485572Y-94631839D01*
X141485774Y-94401101D01*
X141397660Y-94187850D01*
X141234646Y-94024551D01*
X141021548Y-93936065D01*
X140790810Y-93935863D01*
X140577559Y-94023977D01*
X140414260Y-94186991D01*
X140325774Y-94400089D01*
X140325572Y-94630827D01*
X133790043Y-94630827D01*
X133790101Y-94565137D01*
X133701987Y-94351886D01*
X133538973Y-94188587D01*
X133325875Y-94100101D01*
X133095137Y-94099899D01*
X132881886Y-94188013D01*
X132718587Y-94351027D01*
X132630101Y-94564125D01*
X132629899Y-94794863D01*
X130503709Y-94794863D01*
X130519899Y-94755875D01*
X130520101Y-94525137D01*
X130431987Y-94311886D01*
X130268973Y-94148587D01*
X130055875Y-94060101D01*
X129825137Y-94059899D01*
X129611886Y-94148013D01*
X129448587Y-94311027D01*
X129360101Y-94524125D01*
X129359899Y-94754863D01*
X117755000Y-94754863D01*
X117755000Y-93154863D01*
X126009854Y-93154863D01*
X126097968Y-93368114D01*
X126260982Y-93531413D01*
X126474080Y-93619899D01*
X126704818Y-93620101D01*
X126918069Y-93531987D01*
X127035397Y-93414863D01*
X133789899Y-93414863D01*
X133878013Y-93628114D01*
X134041027Y-93791413D01*
X134254125Y-93879899D01*
X134484863Y-93880101D01*
X134698114Y-93791987D01*
X134861413Y-93628973D01*
X134949899Y-93415875D01*
X134950101Y-93185137D01*
X134933461Y-93144863D01*
X140199897Y-93144863D01*
X140288011Y-93358114D01*
X140451025Y-93521413D01*
X140664123Y-93609899D01*
X140894861Y-93610101D01*
X141108112Y-93521987D01*
X141271411Y-93358973D01*
X141359897Y-93145875D01*
X141360099Y-92915137D01*
X141271985Y-92701886D01*
X141185227Y-92614976D01*
X141291415Y-92508973D01*
X141379901Y-92295875D01*
X141380103Y-92065137D01*
X141291989Y-91851886D01*
X141128975Y-91688587D01*
X140915877Y-91600101D01*
X140685139Y-91599899D01*
X140471888Y-91688013D01*
X140308589Y-91851027D01*
X140220103Y-92064125D01*
X140219901Y-92294863D01*
X140308015Y-92508114D01*
X140394773Y-92595024D01*
X140288585Y-92701027D01*
X140200099Y-92914125D01*
X140199897Y-93144863D01*
X134933461Y-93144863D01*
X134861987Y-92971886D01*
X134698973Y-92808587D01*
X134485875Y-92720101D01*
X134255137Y-92719899D01*
X134041886Y-92808013D01*
X133878587Y-92971027D01*
X133790101Y-93184125D01*
X133789899Y-93414863D01*
X127035397Y-93414863D01*
X127081368Y-93368973D01*
X127169854Y-93155875D01*
X127170056Y-92925137D01*
X127081942Y-92711886D01*
X126918928Y-92548587D01*
X126705830Y-92460101D01*
X126475092Y-92459899D01*
X126261841Y-92548013D01*
X126098542Y-92711027D01*
X126010056Y-92924125D01*
X126009854Y-93154863D01*
X117755000Y-93154863D01*
X117755000Y-91624863D01*
X128669899Y-91624863D01*
X128758013Y-91838114D01*
X128921027Y-92001413D01*
X129134125Y-92089899D01*
X129364863Y-92090101D01*
X129578114Y-92001987D01*
X129741413Y-91838973D01*
X129829899Y-91625875D01*
X129830101Y-91395137D01*
X129751481Y-91204863D01*
X129759899Y-91204863D01*
X129848013Y-91418114D01*
X130011027Y-91581413D01*
X130224125Y-91669899D01*
X130454863Y-91670101D01*
X130668114Y-91581987D01*
X130750036Y-91500208D01*
X130871028Y-91621412D01*
X131084126Y-91709898D01*
X131314864Y-91710100D01*
X131528115Y-91621986D01*
X131691414Y-91458972D01*
X131704054Y-91428532D01*
X131708013Y-91438114D01*
X131871027Y-91601413D01*
X132084125Y-91689899D01*
X132314863Y-91690101D01*
X132528114Y-91601987D01*
X132605824Y-91524413D01*
X132628013Y-91578114D01*
X132791027Y-91741413D01*
X133004125Y-91829899D01*
X133234863Y-91830101D01*
X133448114Y-91741987D01*
X133611413Y-91578973D01*
X133699899Y-91365875D01*
X133700101Y-91135137D01*
X133611987Y-90921886D01*
X133505129Y-90814841D01*
X140429899Y-90814841D01*
X140518013Y-91028092D01*
X140681027Y-91191391D01*
X140894125Y-91279877D01*
X141124863Y-91280079D01*
X141161688Y-91264863D01*
X141849899Y-91264863D01*
X141938013Y-91478114D01*
X142101027Y-91641413D01*
X142314125Y-91729899D01*
X142544863Y-91730101D01*
X142758114Y-91641987D01*
X142921413Y-91478973D01*
X143009899Y-91265875D01*
X143010101Y-91035137D01*
X142921987Y-90821886D01*
X142758973Y-90658587D01*
X142545875Y-90570101D01*
X142315137Y-90569899D01*
X142101886Y-90658013D01*
X141938587Y-90821027D01*
X141850101Y-91034125D01*
X141849899Y-91264863D01*
X141161688Y-91264863D01*
X141338114Y-91191965D01*
X141501413Y-91028951D01*
X141589899Y-90815853D01*
X141590101Y-90585115D01*
X141501987Y-90371864D01*
X141338973Y-90208565D01*
X141125875Y-90120079D01*
X140895137Y-90119877D01*
X140681886Y-90207991D01*
X140518587Y-90371005D01*
X140430101Y-90584103D01*
X140429899Y-90814841D01*
X133505129Y-90814841D01*
X133448973Y-90758587D01*
X133235875Y-90670101D01*
X133005137Y-90669899D01*
X132791886Y-90758013D01*
X132714176Y-90835587D01*
X132691987Y-90781886D01*
X132528973Y-90618587D01*
X132315875Y-90530101D01*
X132085137Y-90529899D01*
X131871886Y-90618013D01*
X131708587Y-90781027D01*
X131695947Y-90811467D01*
X131691988Y-90801885D01*
X131528974Y-90638586D01*
X131315876Y-90550100D01*
X131085138Y-90549898D01*
X130871887Y-90638012D01*
X130789965Y-90719791D01*
X130668973Y-90598587D01*
X130455875Y-90510101D01*
X130225137Y-90509899D01*
X130011886Y-90598013D01*
X129848587Y-90761027D01*
X129760101Y-90974125D01*
X129759899Y-91204863D01*
X129751481Y-91204863D01*
X129741987Y-91181886D01*
X129578973Y-91018587D01*
X129365875Y-90930101D01*
X129135137Y-90929899D01*
X128921886Y-91018013D01*
X128758587Y-91181027D01*
X128670101Y-91394125D01*
X128669899Y-91624863D01*
X117755000Y-91624863D01*
X117755000Y-90244863D01*
X128239899Y-90244863D01*
X128328013Y-90458114D01*
X128491027Y-90621413D01*
X128704125Y-90709899D01*
X128934863Y-90710101D01*
X129148114Y-90621987D01*
X129311413Y-90458973D01*
X129399899Y-90245875D01*
X129400101Y-90015137D01*
X129311987Y-89801886D01*
X129148973Y-89638587D01*
X128935875Y-89550101D01*
X128705137Y-89549899D01*
X128491886Y-89638013D01*
X128328587Y-89801027D01*
X128240101Y-90014125D01*
X128239899Y-90244863D01*
X117755000Y-90244863D01*
X117755000Y-88974853D01*
X128269899Y-88974853D01*
X128358013Y-89188104D01*
X128521027Y-89351403D01*
X128734125Y-89439889D01*
X128964863Y-89440091D01*
X129178114Y-89351977D01*
X129341413Y-89188963D01*
X129429899Y-88975865D01*
X129429957Y-88909930D01*
X129624863Y-88910101D01*
X129838114Y-88821987D01*
X130001413Y-88658973D01*
X130019647Y-88615060D01*
X139079889Y-88615060D01*
X139168003Y-88828311D01*
X139219748Y-88880146D01*
X139168577Y-88931228D01*
X139080091Y-89144326D01*
X139079889Y-89375064D01*
X139168003Y-89588315D01*
X139331017Y-89751614D01*
X139544115Y-89840100D01*
X139774853Y-89840302D01*
X139988104Y-89752188D01*
X140151403Y-89589174D01*
X140239889Y-89376076D01*
X140240091Y-89145338D01*
X140206840Y-89064863D01*
X141859856Y-89064863D01*
X141947970Y-89278114D01*
X142024713Y-89354991D01*
X141948544Y-89431027D01*
X141860058Y-89644125D01*
X141859856Y-89874863D01*
X141947970Y-90088114D01*
X142110984Y-90251413D01*
X142324082Y-90339899D01*
X142554820Y-90340101D01*
X142768071Y-90251987D01*
X142931370Y-90088973D01*
X143019856Y-89875875D01*
X143020058Y-89645137D01*
X143019945Y-89644863D01*
X144829899Y-89644863D01*
X144918013Y-89858114D01*
X145081027Y-90021413D01*
X145294125Y-90109899D01*
X145524863Y-90110101D01*
X145738114Y-90021987D01*
X145901413Y-89858973D01*
X145989899Y-89645875D01*
X145990101Y-89415137D01*
X145901987Y-89201886D01*
X145738973Y-89038587D01*
X145525875Y-88950101D01*
X145295137Y-88949899D01*
X145081886Y-89038013D01*
X144918587Y-89201027D01*
X144830101Y-89414125D01*
X144829899Y-89644863D01*
X143019945Y-89644863D01*
X142931944Y-89431886D01*
X142855201Y-89355009D01*
X142931370Y-89278973D01*
X143019856Y-89065875D01*
X143020058Y-88835137D01*
X142931944Y-88621886D01*
X142768930Y-88458587D01*
X142555832Y-88370101D01*
X142325094Y-88369899D01*
X142111843Y-88458013D01*
X141948544Y-88621027D01*
X141860058Y-88834125D01*
X141859856Y-89064863D01*
X140206840Y-89064863D01*
X140151977Y-88932087D01*
X140100232Y-88880252D01*
X140151403Y-88829170D01*
X140239889Y-88616072D01*
X140240091Y-88385334D01*
X140151977Y-88172083D01*
X139988963Y-88008784D01*
X139775865Y-87920298D01*
X139545127Y-87920096D01*
X139331876Y-88008210D01*
X139168577Y-88171224D01*
X139080091Y-88384322D01*
X139079889Y-88615060D01*
X130019647Y-88615060D01*
X130089899Y-88445875D01*
X130090101Y-88215137D01*
X130001987Y-88001886D01*
X129838973Y-87838587D01*
X129625875Y-87750101D01*
X129395137Y-87749899D01*
X129181886Y-87838013D01*
X129018587Y-88001027D01*
X128930101Y-88214125D01*
X128930043Y-88280060D01*
X128735137Y-88279889D01*
X128521886Y-88368003D01*
X128358587Y-88531017D01*
X128270101Y-88744115D01*
X128269899Y-88974853D01*
X117755000Y-88974853D01*
X117755000Y-86854863D01*
X126119899Y-86854863D01*
X126208013Y-87068114D01*
X126371027Y-87231413D01*
X126584125Y-87319899D01*
X126814863Y-87320101D01*
X127028114Y-87231987D01*
X127045267Y-87214863D01*
X140729899Y-87214863D01*
X140818013Y-87428114D01*
X140981027Y-87591413D01*
X141194125Y-87679899D01*
X141424863Y-87680101D01*
X141638114Y-87591987D01*
X141801413Y-87428973D01*
X141889899Y-87215875D01*
X141890101Y-86985137D01*
X141801987Y-86771886D01*
X141638973Y-86608587D01*
X141425875Y-86520101D01*
X141195137Y-86519899D01*
X140981886Y-86608013D01*
X140818587Y-86771027D01*
X140730101Y-86984125D01*
X140729899Y-87214863D01*
X127045267Y-87214863D01*
X127191413Y-87068973D01*
X127279899Y-86855875D01*
X127280101Y-86625137D01*
X127191987Y-86411886D01*
X127028973Y-86248587D01*
X126815875Y-86160101D01*
X126585137Y-86159899D01*
X126371886Y-86248013D01*
X126208587Y-86411027D01*
X126120101Y-86624125D01*
X126119899Y-86854863D01*
X117755000Y-86854863D01*
X117755000Y-84084859D01*
X130159899Y-84084859D01*
X130248013Y-84298110D01*
X130411027Y-84461409D01*
X130624125Y-84549895D01*
X130854863Y-84550097D01*
X130915933Y-84524863D01*
X155509899Y-84524863D01*
X155598013Y-84738114D01*
X155761027Y-84901413D01*
X155974125Y-84989899D01*
X156204863Y-84990101D01*
X156418114Y-84901987D01*
X156581413Y-84738973D01*
X156669899Y-84525875D01*
X156670101Y-84295137D01*
X156581987Y-84081886D01*
X156418973Y-83918587D01*
X156205875Y-83830101D01*
X155975137Y-83829899D01*
X155761886Y-83918013D01*
X155598587Y-84081027D01*
X155510101Y-84294125D01*
X155509899Y-84524863D01*
X130915933Y-84524863D01*
X131068114Y-84461983D01*
X131231413Y-84298969D01*
X131319899Y-84085871D01*
X131320101Y-83855133D01*
X131231987Y-83641882D01*
X131068973Y-83478583D01*
X130855875Y-83390097D01*
X130625137Y-83389895D01*
X130411886Y-83478009D01*
X130248587Y-83641023D01*
X130160101Y-83854121D01*
X130159899Y-84084859D01*
X117755000Y-84084859D01*
X117755000Y-80674863D01*
X120149899Y-80674863D01*
X120238013Y-80888114D01*
X120401027Y-81051413D01*
X120614125Y-81139899D01*
X120844863Y-81140101D01*
X121058114Y-81051987D01*
X121221413Y-80888973D01*
X121309899Y-80675875D01*
X121310101Y-80445137D01*
X121221987Y-80231886D01*
X121058973Y-80068587D01*
X120845875Y-79980101D01*
X120615137Y-79979899D01*
X120401886Y-80068013D01*
X120238587Y-80231027D01*
X120150101Y-80444125D01*
X120149899Y-80674863D01*
X117755000Y-80674863D01*
X117755000Y-79700000D01*
X123095000Y-79700000D01*
X123095000Y-82150000D01*
X123101090Y-82180615D01*
X123118431Y-82206569D01*
X123144385Y-82223910D01*
X123175000Y-82230000D01*
X125625000Y-82230000D01*
X125655615Y-82223910D01*
X125681569Y-82206569D01*
X125698910Y-82180615D01*
X125705000Y-82150000D01*
X125705000Y-79924863D01*
X128709899Y-79924863D01*
X128798013Y-80138114D01*
X128961027Y-80301413D01*
X129174125Y-80389899D01*
X129404863Y-80390101D01*
X129618114Y-80301987D01*
X129781413Y-80138973D01*
X129869899Y-79925875D01*
X129870101Y-79695137D01*
X129781987Y-79481886D01*
X129618973Y-79318587D01*
X129405875Y-79230101D01*
X129175137Y-79229899D01*
X128961886Y-79318013D01*
X128798587Y-79481027D01*
X128710101Y-79694125D01*
X128709899Y-79924863D01*
X125705000Y-79924863D01*
X125705000Y-79700000D01*
X125698910Y-79669385D01*
X125681569Y-79643431D01*
X125655615Y-79626090D01*
X125625000Y-79620000D01*
X123175000Y-79620000D01*
X123144385Y-79626090D01*
X123118431Y-79643431D01*
X123101090Y-79669385D01*
X123095000Y-79700000D01*
X117755000Y-79700000D01*
X117755000Y-79182869D01*
X121899899Y-79182869D01*
X121988013Y-79396120D01*
X122151027Y-79559419D01*
X122364125Y-79647905D01*
X122594863Y-79648107D01*
X122808114Y-79559993D01*
X122971413Y-79396979D01*
X123059899Y-79183881D01*
X123060101Y-78953143D01*
X122971987Y-78739892D01*
X122808973Y-78576593D01*
X122664911Y-78516773D01*
X125675030Y-78516773D01*
X125763144Y-78730024D01*
X125926158Y-78893323D01*
X126139256Y-78981809D01*
X126369994Y-78982011D01*
X126583245Y-78893897D01*
X126746544Y-78730883D01*
X126835030Y-78517785D01*
X126835207Y-78314863D01*
X133579899Y-78314863D01*
X133668013Y-78528114D01*
X133831027Y-78691413D01*
X134044125Y-78779899D01*
X134274863Y-78780101D01*
X134488114Y-78691987D01*
X134651413Y-78528973D01*
X134739899Y-78315875D01*
X134740101Y-78085137D01*
X134651987Y-77871886D01*
X134488973Y-77708587D01*
X134275875Y-77620101D01*
X134045137Y-77619899D01*
X133831886Y-77708013D01*
X133668587Y-77871027D01*
X133580101Y-78084125D01*
X133579899Y-78314863D01*
X126835207Y-78314863D01*
X126835232Y-78287047D01*
X126770284Y-78129862D01*
X126911413Y-77988979D01*
X126999899Y-77775881D01*
X127000101Y-77545143D01*
X126911987Y-77331892D01*
X126748973Y-77168593D01*
X126535875Y-77080107D01*
X126305137Y-77079905D01*
X126091886Y-77168019D01*
X125928587Y-77331033D01*
X125840101Y-77544131D01*
X125839899Y-77774869D01*
X125904847Y-77932054D01*
X125763718Y-78072937D01*
X125675232Y-78286035D01*
X125675030Y-78516773D01*
X122664911Y-78516773D01*
X122595875Y-78488107D01*
X122365137Y-78487905D01*
X122151886Y-78576019D01*
X121988587Y-78739033D01*
X121900101Y-78952131D01*
X121899899Y-79182869D01*
X117755000Y-79182869D01*
X117755000Y-75105000D01*
X120679178Y-75105000D01*
X120671886Y-75108013D01*
M02*
