G04 #@! TF.FileFunction,Copper,L4,Bot,Signal*
%FSLAX46Y46*%
G04 Gerber Fmt 4.6, Leading zero omitted, Abs format (unit mm)*
G04 Created by KiCad (PCBNEW 4.1.0-alpha+201607160317+6981~46~ubuntu14.04.1-product) date Fri Jul 22 01:01:49 2016*
%MOMM*%
%LPD*%
G01*
G04 APERTURE LIST*
%ADD10C,0.100000*%
%ADD11R,0.400000X0.600000*%
%ADD12R,0.600000X0.400000*%
%ADD13R,1.900000X1.900000*%
%ADD14R,1.400000X1.600000*%
%ADD15R,1.350000X0.400000*%
%ADD16O,1.600000X0.900000*%
%ADD17R,1.500000X1.500000*%
%ADD18C,1.500000*%
%ADD19R,0.800000X0.600000*%
%ADD20R,0.800000X1.200000*%
%ADD21R,0.800000X1.700000*%
%ADD22R,0.800000X1.100000*%
%ADD23R,0.450000X0.300000*%
%ADD24R,0.500000X0.500000*%
%ADD25R,0.700000X0.250000*%
%ADD26R,0.640000X1.200000*%
%ADD27R,1.400000X1.700000*%
%ADD28R,0.800000X1.500000*%
%ADD29R,1.150000X1.500000*%
%ADD30R,1.500000X1.150000*%
%ADD31R,0.797560X0.797560*%
%ADD32R,0.750000X0.800000*%
%ADD33C,0.600000*%
%ADD34C,0.160000*%
%ADD35C,0.350000*%
%ADD36C,0.400000*%
G04 APERTURE END LIST*
D10*
D11*
X138050000Y-102450000D03*
X137150000Y-102450000D03*
D12*
X136800000Y-78150000D03*
X136800000Y-79050000D03*
X140150000Y-95152932D03*
X140150000Y-94252932D03*
D11*
X139100000Y-92752932D03*
X138200000Y-92752932D03*
D12*
X146350000Y-109000000D03*
X146350000Y-109900000D03*
X146350000Y-108000000D03*
X146350000Y-107100000D03*
D13*
X155500000Y-104225000D03*
X155500000Y-101825000D03*
D14*
X153050000Y-99825000D03*
X153050000Y-106225000D03*
D15*
X152825000Y-101725000D03*
X152825000Y-102375000D03*
X152825000Y-104325000D03*
X152825000Y-103675000D03*
X152825000Y-103025000D03*
D16*
X155500000Y-106325000D03*
X155500000Y-99725000D03*
D17*
X123900000Y-113000000D03*
D18*
X121900000Y-113000000D03*
D19*
X134625000Y-107325000D03*
X134625000Y-104925000D03*
D12*
X134600000Y-103800000D03*
X134600000Y-102900000D03*
D20*
X124450000Y-82150000D03*
X125400000Y-79550000D03*
X123500000Y-79550000D03*
X124450000Y-90150000D03*
X125400000Y-87550000D03*
X123500000Y-87550000D03*
D11*
X137150000Y-101350000D03*
X138050000Y-101350000D03*
D12*
X142950000Y-97950000D03*
X142950000Y-97050000D03*
X141850000Y-97950000D03*
X141850000Y-97050000D03*
X140740000Y-97050000D03*
X140740000Y-97950000D03*
D11*
X149650000Y-104700000D03*
X148750000Y-104700000D03*
X149650000Y-103600000D03*
X148750000Y-103600000D03*
D12*
X147350000Y-97950000D03*
X147350000Y-97050000D03*
X146250000Y-97950000D03*
X146250000Y-97050000D03*
X145150000Y-97950000D03*
X145150000Y-97050000D03*
X144050000Y-97050000D03*
X144050000Y-97950000D03*
D11*
X148750000Y-102500000D03*
X149650000Y-102500000D03*
X133850000Y-95352932D03*
X134750000Y-95352932D03*
X133850000Y-94052932D03*
X134750000Y-94052932D03*
X149400000Y-105900000D03*
X148500000Y-105900000D03*
D12*
X145050000Y-108000000D03*
X145050000Y-107100000D03*
D11*
X126900000Y-82250000D03*
X127800000Y-82250000D03*
X126900000Y-90250000D03*
X127800000Y-90250000D03*
X126900000Y-80950000D03*
X127800000Y-80950000D03*
X126900000Y-88950000D03*
X127800000Y-88950000D03*
X126900000Y-79650000D03*
X127800000Y-79650000D03*
X126900000Y-87650000D03*
X127800000Y-87650000D03*
D21*
X147600000Y-113500000D03*
X144200000Y-113500000D03*
D22*
X145900000Y-111850000D03*
D21*
X152550000Y-113500000D03*
X149150000Y-113500000D03*
D22*
X150850000Y-111850000D03*
D23*
X148450000Y-101500000D03*
X148450000Y-101000000D03*
X148450000Y-100500000D03*
X149800000Y-100500000D03*
X149800000Y-101000000D03*
X149800000Y-101500000D03*
D24*
X139000000Y-93902932D03*
X138200000Y-93902932D03*
X137400000Y-93902932D03*
X136600000Y-93902932D03*
X135800000Y-93902932D03*
X135800000Y-94702932D03*
X135800000Y-95502932D03*
X136600000Y-95502932D03*
X137400000Y-95502932D03*
X138200000Y-95502932D03*
X139000000Y-95502932D03*
X139000000Y-94702932D03*
D25*
X149875000Y-107500000D03*
X149875000Y-108000000D03*
X149875000Y-108500000D03*
X149875000Y-109000000D03*
X149875000Y-109500000D03*
X148025000Y-109500000D03*
X148025000Y-109000000D03*
X148025000Y-108500000D03*
X148025000Y-108000000D03*
X148025000Y-107500000D03*
D26*
X148950000Y-109100000D03*
X148950000Y-107900000D03*
D27*
X138350000Y-76150000D03*
D28*
X143100000Y-79050000D03*
X142000000Y-79050000D03*
X139800000Y-79050000D03*
X140900000Y-79050000D03*
X145300000Y-79050000D03*
X144200000Y-79050000D03*
X146400000Y-79050000D03*
X147500000Y-79050000D03*
D27*
X151250000Y-76150000D03*
D29*
X138225000Y-85900000D03*
D30*
X138800000Y-90625000D03*
X145400000Y-90625000D03*
X147700000Y-90625000D03*
D31*
X156450000Y-75650000D03*
X156450000Y-77148600D03*
X118350000Y-75600700D03*
X118350000Y-77099300D03*
X118350000Y-112400700D03*
X118350000Y-113899300D03*
X156450000Y-112400000D03*
X156450000Y-113898600D03*
D32*
X135350000Y-77850000D03*
X135350000Y-79350000D03*
D33*
X147868179Y-106529990D03*
X152438150Y-109751841D03*
X150204379Y-104728236D03*
X135587570Y-102059343D03*
X139413972Y-101138559D03*
X150390000Y-103160000D03*
X136787246Y-96212944D03*
X143810022Y-107130010D03*
X148059980Y-94810000D03*
X149460010Y-98240000D03*
X156090000Y-84410000D03*
X126589955Y-93040000D03*
X141499989Y-110149316D03*
X145042577Y-113516268D03*
X148000000Y-110399991D03*
X133700000Y-112570000D03*
X134370000Y-93300000D03*
X126700000Y-86740000D03*
X120940000Y-99200000D03*
X121810002Y-100190000D03*
X124699998Y-91275000D03*
X124700000Y-97200000D03*
X123775000Y-83324998D03*
X120718308Y-81481704D03*
X136589998Y-102597422D03*
X127650000Y-78810000D03*
X153960000Y-104900000D03*
X139110000Y-111140000D03*
X145880000Y-106470000D03*
X143560000Y-98530000D03*
X121941342Y-94238658D03*
X121940000Y-96860000D03*
X138581176Y-89555352D03*
X138709957Y-104956590D03*
X133686969Y-97511905D03*
X136027233Y-96212944D03*
X141220742Y-98952665D03*
X147680000Y-89560000D03*
X139300000Y-85910000D03*
X131710000Y-108680000D03*
X127349968Y-93040000D03*
X132576873Y-103400170D03*
X146090000Y-112900000D03*
X155310000Y-95230000D03*
X155310000Y-110960000D03*
X147200000Y-112189998D03*
X133701950Y-113512089D03*
X149470000Y-96050010D03*
X133130000Y-76680000D03*
X154530000Y-91250000D03*
X137000000Y-93130000D03*
X129680000Y-82200000D03*
X127600000Y-86750000D03*
X124650613Y-77153552D03*
X121850000Y-91260000D03*
X121850000Y-88580000D03*
X120220000Y-109250000D03*
X129260000Y-101020000D03*
X124720000Y-109250000D03*
X129220000Y-109250000D03*
X124770000Y-101030000D03*
X120240000Y-101020000D03*
X151140000Y-105420000D03*
X138709957Y-102450000D03*
X142176325Y-95400163D03*
X140905673Y-94515964D03*
X134280010Y-106244994D03*
X133210000Y-94680000D03*
X129290000Y-79810000D03*
X120730000Y-80560000D03*
X125450000Y-99140000D03*
X126255131Y-78401910D03*
X129950002Y-98300000D03*
X134160000Y-78200000D03*
X144650010Y-111437687D03*
X140020000Y-113350002D03*
X120380000Y-113880000D03*
X155380000Y-113910000D03*
X145041137Y-95372554D03*
X147790000Y-103409990D03*
X148052458Y-95631832D03*
X142439957Y-88950000D03*
X150427029Y-103934346D03*
X144510000Y-103360000D03*
X144950430Y-96127132D03*
X146410987Y-95908359D03*
X147096838Y-96235813D03*
X139659990Y-89260201D03*
X142439957Y-89760000D03*
X145410000Y-89530000D03*
X138709957Y-105716603D03*
X141700000Y-105800000D03*
X138755281Y-106504780D03*
X141800000Y-106590000D03*
X136292924Y-100340021D03*
X129250001Y-107651501D03*
X147020010Y-101460000D03*
X147687439Y-100849943D03*
X150981838Y-108459990D03*
X120250003Y-107651485D03*
X121000000Y-75600000D03*
X141059272Y-95925258D03*
X147727170Y-101929955D03*
X142380000Y-101760000D03*
X129250000Y-91510000D03*
X143111502Y-95549677D03*
X138406729Y-96135805D03*
X142139284Y-96170030D03*
X137541525Y-96119768D03*
X143530057Y-111088659D03*
X142800021Y-111300000D03*
X141310000Y-87100000D03*
X141010000Y-90699978D03*
X140230000Y-95990000D03*
X127020000Y-102420000D03*
X151010000Y-104550000D03*
X142280000Y-110190000D03*
X130439994Y-113594863D03*
X128850000Y-88859990D03*
X132290000Y-105040000D03*
X128820000Y-90130000D03*
X132980000Y-105680000D03*
X141830000Y-103420000D03*
X129940000Y-94640000D03*
X129190000Y-95790000D03*
X141145986Y-102845986D03*
X142330000Y-100670000D03*
X129510000Y-88330000D03*
X131341873Y-98958127D03*
X133360000Y-104490000D03*
X153923155Y-101216845D03*
X154210002Y-99750000D03*
X144979990Y-110706838D03*
X142751768Y-94422436D03*
X139486741Y-96290021D03*
X151090000Y-95690000D03*
X150810000Y-97120000D03*
X150700000Y-101060000D03*
X134600000Y-108225000D03*
X142380000Y-99390000D03*
X146479543Y-100060010D03*
X143792908Y-96431165D03*
X139659990Y-88500197D03*
X142430000Y-91150000D03*
X138824959Y-107261591D03*
X142362043Y-107254032D03*
X131704662Y-107809447D03*
X124750001Y-107651501D03*
X139100000Y-110370000D03*
X122480000Y-79068006D03*
X136091526Y-98258322D03*
X130340000Y-91090000D03*
X136850000Y-98210000D03*
X131200001Y-91129999D03*
X137608355Y-98160002D03*
X132200000Y-91110000D03*
X138579515Y-97620468D03*
X133120000Y-91250000D03*
X146430000Y-105370000D03*
X140779998Y-93030000D03*
X146979317Y-105895626D03*
X140800002Y-92180000D03*
X148355106Y-98621415D03*
X146542113Y-94405510D03*
X150409364Y-106397180D03*
X149340000Y-94830000D03*
X126420000Y-77660006D03*
X130740000Y-83969996D03*
D34*
X147970010Y-106529990D02*
X147868179Y-106529990D01*
X148500000Y-106000000D02*
X147970010Y-106529990D01*
X148500000Y-105900000D02*
X148500000Y-106000000D01*
X150176143Y-104700000D02*
X150204379Y-104728236D01*
X149650000Y-104700000D02*
X150176143Y-104700000D01*
X149650000Y-103475736D02*
X149965736Y-103160000D01*
X149965736Y-103160000D02*
X150390000Y-103160000D01*
X149650000Y-103600000D02*
X149650000Y-103475736D01*
X136296913Y-101350000D02*
X135587570Y-102059343D01*
X137150000Y-101350000D02*
X136296913Y-101350000D01*
X143840032Y-107100000D02*
X143810022Y-107130010D01*
X145050000Y-107100000D02*
X143840032Y-107100000D01*
X147636840Y-95976611D02*
X147449999Y-95789770D01*
X147890001Y-97509999D02*
X147890001Y-96379203D01*
X147449999Y-95789770D02*
X147449999Y-95419981D01*
X147350000Y-97950000D02*
X147450000Y-97950000D01*
X147449999Y-95419981D02*
X148059980Y-94810000D01*
X147890001Y-96379203D02*
X147636840Y-96126042D01*
X147636840Y-96126042D02*
X147636840Y-95976611D01*
X147450000Y-97950000D02*
X147890001Y-97509999D01*
X145026309Y-113500000D02*
X145042577Y-113516268D01*
X144200000Y-113500000D02*
X145026309Y-113500000D01*
X148550000Y-105900000D02*
X148500000Y-105900000D01*
X146250000Y-97950000D02*
X147350000Y-97950000D01*
X145150000Y-97950000D02*
X146250000Y-97950000D01*
X137150000Y-102450000D02*
X136737420Y-102450000D01*
X136737420Y-102450000D02*
X136589998Y-102597422D01*
D35*
X142000000Y-79050000D02*
X142000000Y-78450000D01*
X142000000Y-78450000D02*
X141460000Y-77910000D01*
X141460000Y-77910000D02*
X138640000Y-77910000D01*
X138640000Y-77910000D02*
X137500000Y-79050000D01*
X137500000Y-79050000D02*
X136800000Y-79050000D01*
D34*
X127800000Y-78960000D02*
X127650000Y-78810000D01*
X127800000Y-79650000D02*
X127800000Y-78960000D01*
X153875000Y-104900000D02*
X153960000Y-104900000D01*
X152825000Y-104325000D02*
X153300000Y-104325000D01*
X153300000Y-104325000D02*
X153875000Y-104900000D01*
X145880000Y-106730000D02*
X145880000Y-106470000D01*
X146250000Y-107100000D02*
X145880000Y-106730000D01*
X146350000Y-107100000D02*
X146250000Y-107100000D01*
X144050000Y-97950000D02*
X143950000Y-97950000D01*
X143560000Y-98340000D02*
X143560000Y-98530000D01*
X143950000Y-97950000D02*
X143560000Y-98340000D01*
D36*
X138581176Y-90406176D02*
X138581176Y-89555352D01*
X138800000Y-90625000D02*
X138581176Y-90406176D01*
D34*
X152825000Y-104325000D02*
X152245000Y-104325000D01*
X151120000Y-102500000D02*
X149650000Y-102500000D01*
X152245000Y-104325000D02*
X151780000Y-103860000D01*
X151780000Y-103860000D02*
X151780000Y-103160000D01*
X151780000Y-103160000D02*
X151120000Y-102500000D01*
X140740000Y-97950000D02*
X140740000Y-98471923D01*
X140740000Y-98471923D02*
X141220742Y-98952665D01*
D36*
X147700000Y-90625000D02*
X147700000Y-89580000D01*
X147700000Y-89580000D02*
X147680000Y-89560000D01*
X138225000Y-85900000D02*
X139290000Y-85900000D01*
X139290000Y-85900000D02*
X139300000Y-85910000D01*
D34*
X145900000Y-112710000D02*
X146090000Y-112900000D01*
X145900000Y-111850000D02*
X145900000Y-112710000D01*
X146834565Y-107100000D02*
X146350000Y-107100000D01*
X147234565Y-107500000D02*
X146834565Y-107100000D01*
X148025000Y-107500000D02*
X147234565Y-107500000D01*
X149150000Y-111850000D02*
X147200000Y-111850000D01*
X147200000Y-111850000D02*
X145900000Y-111850000D01*
X147200000Y-112189998D02*
X147200000Y-111850000D01*
X150850000Y-111850000D02*
X149150000Y-111850000D01*
X149150000Y-113500000D02*
X149150000Y-111850000D01*
D36*
X147700000Y-90625000D02*
X147875000Y-90625000D01*
X151250000Y-76150000D02*
X138350000Y-76150000D01*
X138350000Y-76150000D02*
X133660000Y-76150000D01*
X133660000Y-76150000D02*
X133130000Y-76680000D01*
X135350000Y-79300000D02*
X134283198Y-79300000D01*
X134283198Y-79300000D02*
X133130000Y-78146802D01*
X133130000Y-78146802D02*
X133130000Y-76680000D01*
X135350000Y-79300000D02*
X136550000Y-79300000D01*
X136550000Y-79300000D02*
X136800000Y-79050000D01*
D34*
X135600000Y-79050000D02*
X135350000Y-79300000D01*
X142000000Y-79050000D02*
X142000000Y-78660000D01*
X146350000Y-109900000D02*
X145920000Y-110330000D01*
X145920000Y-110330000D02*
X145920000Y-111830000D01*
X145920000Y-111830000D02*
X145900000Y-111850000D01*
X150850000Y-111850000D02*
X150850000Y-112000000D01*
X137400000Y-93902932D02*
X137400000Y-93530000D01*
X137400000Y-93530000D02*
X137000000Y-93130000D01*
X137000000Y-93130000D02*
X136600000Y-93530000D01*
X136600000Y-93530000D02*
X136600000Y-93902932D01*
X137000000Y-93130000D02*
X137370000Y-92760000D01*
X137370000Y-92760000D02*
X138192932Y-92760000D01*
X138192932Y-92760000D02*
X138200000Y-92752932D01*
X127800000Y-87650000D02*
X127800000Y-86950000D01*
X127800000Y-86950000D02*
X127600000Y-86750000D01*
X127800000Y-87650000D02*
X127800000Y-88950000D01*
X137400000Y-94702932D02*
X138175000Y-94702932D01*
X138175000Y-94702932D02*
X139000000Y-94702932D01*
X138200000Y-93902932D02*
X138200000Y-94677932D01*
X138200000Y-94677932D02*
X138175000Y-94702932D01*
X136575000Y-94702932D02*
X137400000Y-94702932D01*
X137400000Y-93902932D02*
X137400000Y-94702932D01*
X135800000Y-94702932D02*
X136575000Y-94702932D01*
X136600000Y-93902932D02*
X136600000Y-94677932D01*
X136600000Y-94677932D02*
X136575000Y-94702932D01*
X140150000Y-94252932D02*
X139700000Y-94702932D01*
X139700000Y-94702932D02*
X139000000Y-94702932D01*
X138200000Y-92752932D02*
X138200000Y-93902932D01*
X148025000Y-109500000D02*
X146875000Y-109500000D01*
X146875000Y-109500000D02*
X146600000Y-109775000D01*
X146475000Y-109775000D02*
X146350000Y-109900000D01*
X146600000Y-109775000D02*
X146475000Y-109775000D01*
X127800000Y-80950000D02*
X127800000Y-79650000D01*
X148450000Y-101000000D02*
X148829000Y-101000000D01*
X148829000Y-101000000D02*
X149125000Y-101296000D01*
X149125000Y-101296000D02*
X149125000Y-101775000D01*
X149125000Y-101775000D02*
X149650000Y-102300000D01*
X149650000Y-102300000D02*
X149650000Y-102500000D01*
X150715736Y-105420000D02*
X151140000Y-105420000D01*
X150645736Y-105350000D02*
X150715736Y-105420000D01*
X147410000Y-105350000D02*
X150645736Y-105350000D01*
X146889999Y-104829999D02*
X147410000Y-105350000D01*
X141089956Y-104829999D02*
X146889999Y-104829999D01*
X138709957Y-102450000D02*
X141089956Y-104829999D01*
X138050000Y-102450000D02*
X138709957Y-102450000D01*
X138050000Y-101350000D02*
X138050000Y-102450000D01*
X140150000Y-95152932D02*
X140267068Y-95152932D01*
X140267068Y-95152932D02*
X140904036Y-94515964D01*
X140904036Y-94515964D02*
X140905673Y-94515964D01*
X139000000Y-93902932D02*
X139410000Y-93902932D01*
X139410000Y-93902932D02*
X139500001Y-93812931D01*
X139500001Y-93812931D02*
X140626904Y-93812931D01*
X140626904Y-93812931D02*
X140900000Y-94086027D01*
X140900000Y-94086027D02*
X140900000Y-94510291D01*
X140900000Y-94510291D02*
X140905673Y-94515964D01*
X142710001Y-95933839D02*
X142176325Y-95400163D01*
X142400000Y-97950000D02*
X142400000Y-96749202D01*
X142400000Y-96749202D02*
X142710001Y-96439201D01*
X142710001Y-96439201D02*
X142710001Y-95933839D01*
X142400000Y-97950000D02*
X142950000Y-97950000D01*
X141850000Y-97950000D02*
X142400000Y-97950000D01*
X133850000Y-94670000D02*
X133850000Y-94052932D01*
X133850000Y-95352932D02*
X133850000Y-94670000D01*
X133850000Y-94670000D02*
X133220000Y-94670000D01*
X133220000Y-94670000D02*
X133210000Y-94680000D01*
X140150000Y-95152932D02*
X139800000Y-95502932D01*
X139800000Y-95502932D02*
X139000000Y-95502932D01*
X139100000Y-92752932D02*
X139100000Y-93802932D01*
X139100000Y-93802932D02*
X139000000Y-93902932D01*
D35*
X136800000Y-78150000D02*
X137450000Y-78150000D01*
X137450000Y-78150000D02*
X138220000Y-77380000D01*
X143630000Y-77380000D02*
X144200000Y-77950000D01*
X144200000Y-77950000D02*
X144200000Y-79050000D01*
X138220000Y-77380000D02*
X143630000Y-77380000D01*
D36*
X135350000Y-77900000D02*
X136550000Y-77900000D01*
X136550000Y-77900000D02*
X136800000Y-78150000D01*
X134160000Y-78200000D02*
X134450000Y-77910000D01*
X134450000Y-77910000D02*
X135340000Y-77910000D01*
X135340000Y-77910000D02*
X135350000Y-77900000D01*
X118350000Y-113899300D02*
X120360700Y-113899300D01*
X120360700Y-113899300D02*
X120380000Y-113880000D01*
X156450000Y-113898600D02*
X155391400Y-113898600D01*
X155391400Y-113898600D02*
X155380000Y-113910000D01*
D34*
X155380000Y-111930000D02*
X155380000Y-113910000D01*
X149875000Y-109000000D02*
X152450000Y-109000000D01*
X152450000Y-109000000D02*
X155380000Y-111930000D01*
X144440022Y-110659556D02*
X144430011Y-110669567D01*
X144440022Y-110449978D02*
X144440022Y-110659556D01*
X146350000Y-109000000D02*
X145890000Y-109000000D01*
X145890000Y-109000000D02*
X144440022Y-110449978D01*
X144430011Y-110669567D02*
X144430011Y-111217688D01*
X144430011Y-111217688D02*
X144650010Y-111437687D01*
X148025000Y-109000000D02*
X146350000Y-109000000D01*
X143299978Y-93631395D02*
X145041137Y-95372554D01*
X143299978Y-80159978D02*
X143299978Y-93631395D01*
X143100000Y-79960000D02*
X143299978Y-80159978D01*
X143100000Y-79050000D02*
X143100000Y-79960000D01*
X147759999Y-98390001D02*
X148220000Y-97930000D01*
X148220000Y-96223638D02*
X148052458Y-96056096D01*
X144360426Y-98886501D02*
X144360426Y-98390001D01*
X145100002Y-103760002D02*
X145100002Y-99626077D01*
X148220000Y-97930000D02*
X148220000Y-96223638D01*
X145540000Y-104200000D02*
X145100002Y-103760002D01*
X147790000Y-103409990D02*
X146999990Y-104200000D01*
X146999990Y-104200000D02*
X145540000Y-104200000D01*
X145100002Y-99626077D02*
X144360426Y-98886501D01*
X148052458Y-96056096D02*
X148052458Y-95631832D01*
X144360426Y-98390001D02*
X147759999Y-98390001D01*
X147980010Y-103600000D02*
X147790000Y-103409990D01*
X148750000Y-103600000D02*
X147980010Y-103600000D01*
X139800000Y-79960000D02*
X142439957Y-82599957D01*
X142439957Y-82599957D02*
X142439957Y-88950000D01*
X139800000Y-79050000D02*
X139800000Y-79960000D01*
X149190001Y-104159999D02*
X150000797Y-104159999D01*
X148750000Y-104600000D02*
X149190001Y-104159999D01*
X148750000Y-104700000D02*
X148750000Y-104600000D01*
X150000797Y-104159999D02*
X150226450Y-103934346D01*
X150226450Y-103934346D02*
X150427029Y-103934346D01*
X140900000Y-79050000D02*
X140900000Y-79960000D01*
X140900000Y-79960000D02*
X142979967Y-82039967D01*
X142979967Y-82039967D02*
X142979967Y-93851583D01*
X142979967Y-93851583D02*
X143291770Y-94163386D01*
X143291770Y-94163386D02*
X143291770Y-94681788D01*
X143291770Y-94681788D02*
X143010970Y-94962588D01*
X141599274Y-95187439D02*
X141599274Y-96165986D01*
X141599274Y-96165986D02*
X141300000Y-96465260D01*
X141300000Y-96465260D02*
X141300000Y-98268233D01*
X141300000Y-98268233D02*
X141561755Y-98529988D01*
X141561755Y-98529988D02*
X142760784Y-98529988D01*
X141926552Y-94860161D02*
X141599274Y-95187439D01*
X142435527Y-94860161D02*
X141926552Y-94860161D01*
X142537954Y-94962588D02*
X142435527Y-94860161D01*
X143010970Y-94962588D02*
X142537954Y-94962588D01*
X144510000Y-100279204D02*
X144510000Y-103360000D01*
X142760784Y-98529988D02*
X144510000Y-100279204D01*
X144950430Y-96127132D02*
X145167562Y-95910000D01*
X145167562Y-95910000D02*
X145400000Y-95910000D01*
X145400000Y-95910000D02*
X145581138Y-95728862D01*
X145581138Y-95728862D02*
X145581139Y-95113352D01*
X143619989Y-93152202D02*
X143619989Y-81640011D01*
X145300000Y-79960000D02*
X145300000Y-79050000D01*
X145150000Y-96326702D02*
X144950430Y-96127132D01*
X145581139Y-95113352D02*
X143619989Y-93152202D01*
X145150000Y-97050000D02*
X145150000Y-96326702D01*
X143619989Y-81640011D02*
X145300000Y-79960000D01*
X146400000Y-79960000D02*
X143940000Y-82420000D01*
X146400000Y-79050000D02*
X146400000Y-79960000D01*
X146110988Y-95608360D02*
X146410987Y-95908359D01*
X146110988Y-95190638D02*
X146110988Y-95608360D01*
X143940000Y-82420000D02*
X143940000Y-93019650D01*
X143940000Y-93019650D02*
X146110988Y-95190638D01*
X146250000Y-97050000D02*
X146250000Y-96069346D01*
X146250000Y-96069346D02*
X146410987Y-95908359D01*
X147350000Y-97050000D02*
X147350000Y-96488975D01*
X144409999Y-93037086D02*
X147096838Y-95723925D01*
X147096838Y-95723925D02*
X147096838Y-96235813D01*
X147500000Y-79960000D02*
X144409999Y-83050001D01*
X147500000Y-79050000D02*
X147500000Y-79960000D01*
X147350000Y-96488975D02*
X147096838Y-96235813D01*
X144409999Y-83050001D02*
X144409999Y-93037086D01*
X142439957Y-89760000D02*
X141940158Y-89260201D01*
X141940158Y-89260201D02*
X139659990Y-89260201D01*
X145400000Y-90625000D02*
X145400000Y-89540000D01*
X145400000Y-89540000D02*
X145410000Y-89530000D01*
X126900000Y-90250000D02*
X124550000Y-90250000D01*
X124550000Y-90250000D02*
X124450000Y-90150000D01*
X125400000Y-87550000D02*
X126800000Y-87550000D01*
X126800000Y-87550000D02*
X126900000Y-87650000D01*
X156450000Y-77148600D02*
X156450000Y-77150000D01*
X156450000Y-77150000D02*
X157090000Y-77790000D01*
X156460000Y-112400000D02*
X156450000Y-112400000D01*
X157090000Y-77790000D02*
X157090000Y-111770000D01*
X157090000Y-111770000D02*
X156460000Y-112400000D01*
X138793354Y-105800000D02*
X138709957Y-105716603D01*
X141700000Y-105800000D02*
X138793354Y-105800000D01*
X141800000Y-106590000D02*
X138840501Y-106590000D01*
X138840501Y-106590000D02*
X138755281Y-106504780D01*
X132990000Y-106750000D02*
X133940000Y-105800000D01*
X135868660Y-100340021D02*
X136292924Y-100340021D01*
X133940000Y-105800000D02*
X133940000Y-102268681D01*
X130151502Y-106750000D02*
X132990000Y-106750000D01*
X129250001Y-107651501D02*
X130151502Y-106750000D01*
X133940000Y-102268681D02*
X135868660Y-100340021D01*
X147020010Y-100718170D02*
X147020010Y-101460000D01*
X147428238Y-100309942D02*
X147020010Y-100718170D01*
X147946640Y-100309942D02*
X147428238Y-100309942D01*
X148136698Y-100500000D02*
X147946640Y-100309942D01*
X148450000Y-100500000D02*
X148136698Y-100500000D01*
X147687439Y-101122439D02*
X147687439Y-100849943D01*
X148065000Y-101500000D02*
X147687439Y-101122439D01*
X148450000Y-101500000D02*
X148065000Y-101500000D01*
X149875000Y-108500000D02*
X150941828Y-108500000D01*
X150941828Y-108500000D02*
X150981838Y-108459990D01*
X123500000Y-79550000D02*
X123500000Y-78100000D01*
X123500000Y-78100000D02*
X121000000Y-75600000D01*
X120150000Y-75620000D02*
X120150000Y-75610000D01*
X156400000Y-75650000D02*
X156450000Y-75650000D01*
X120150000Y-75610000D02*
X120700001Y-75059999D01*
X120700001Y-75059999D02*
X155809999Y-75059999D01*
X155809999Y-75059999D02*
X156400000Y-75650000D01*
X120150000Y-75620000D02*
X120130700Y-75600700D01*
X120130700Y-75600700D02*
X118350000Y-75600700D01*
X123500000Y-87550000D02*
X123500000Y-87375000D01*
X123500000Y-87375000D02*
X120150000Y-84025000D01*
X120150000Y-84025000D02*
X120150000Y-75620000D01*
X126900000Y-82250000D02*
X124550000Y-82250000D01*
X124550000Y-82250000D02*
X124450000Y-82150000D01*
X126900000Y-79650000D02*
X125500000Y-79650000D01*
X125500000Y-79650000D02*
X125400000Y-79550000D01*
X142260011Y-111570011D02*
X142260011Y-111040808D01*
X142260011Y-111040808D02*
X142940002Y-110360817D01*
X147600000Y-113500000D02*
X145800000Y-113500000D01*
X142250000Y-106260796D02*
X142250000Y-105570000D01*
X142940002Y-110360817D02*
X142940002Y-106950798D01*
X142628232Y-98849999D02*
X142120799Y-98849999D01*
X142250000Y-105570000D02*
X141910000Y-105230000D01*
X144660000Y-112360000D02*
X143050000Y-112360000D01*
X145800000Y-113500000D02*
X144660000Y-112360000D01*
X143050000Y-112360000D02*
X142260011Y-111570011D01*
X137600000Y-100867998D02*
X137657999Y-100809999D01*
X141910000Y-105230000D02*
X139950000Y-105230000D01*
X137657999Y-100809999D02*
X138442001Y-100809999D01*
X142940002Y-106950798D02*
X142250000Y-106260796D01*
X143959998Y-100181765D02*
X142628232Y-98849999D01*
X139950000Y-105230000D02*
X137600000Y-102880000D01*
X137600000Y-102880000D02*
X137600000Y-100867998D01*
X138442001Y-100809999D02*
X138490001Y-100857999D01*
X140199999Y-98724873D02*
X140199999Y-97590001D01*
X140199999Y-97590001D02*
X140740000Y-97050000D01*
X138490001Y-100857999D02*
X138490001Y-101430842D01*
X138490001Y-101430842D02*
X141569147Y-104509988D01*
X141569147Y-104509988D02*
X143312575Y-104509988D01*
X143312575Y-104509988D02*
X143959998Y-103862565D01*
X143959998Y-103862565D02*
X143959998Y-100181765D01*
X142120799Y-98849999D02*
X141469999Y-99500799D01*
X141469999Y-99500799D02*
X140975925Y-99500799D01*
X140975925Y-99500799D02*
X140199999Y-98724873D01*
X140740000Y-96244530D02*
X141059272Y-95925258D01*
X140740000Y-97050000D02*
X140740000Y-96244530D01*
X147600000Y-113950000D02*
X147600000Y-113500000D01*
X130909980Y-96339980D02*
X133690010Y-99120010D01*
X133690010Y-99120010D02*
X139283184Y-99120010D01*
X139283184Y-99120010D02*
X141923174Y-101760000D01*
X141923174Y-101760000D02*
X142380000Y-101760000D01*
X129250000Y-91510000D02*
X129250000Y-91934264D01*
X129250000Y-91934264D02*
X130909980Y-93594244D01*
X130909980Y-93594244D02*
X130909980Y-96339980D01*
X148297215Y-102500000D02*
X147727170Y-101929955D01*
X148750000Y-102500000D02*
X148297215Y-102500000D01*
X142950000Y-97050000D02*
X142950000Y-96690000D01*
X143111502Y-96528498D02*
X143111502Y-95549677D01*
X142950000Y-96690000D02*
X143111502Y-96528498D01*
X138200000Y-95502932D02*
X138200000Y-95929076D01*
X138200000Y-95929076D02*
X138406729Y-96135805D01*
X141850000Y-96459314D02*
X142139284Y-96170030D01*
X141850000Y-97050000D02*
X141850000Y-96459314D01*
X137400000Y-95502932D02*
X137400000Y-95978243D01*
X137400000Y-95978243D02*
X137541525Y-96119768D01*
X143530057Y-111088659D02*
X143530057Y-110183302D01*
X143270020Y-106576310D02*
X143916332Y-105929998D01*
X146250000Y-105930000D02*
X147390000Y-107070000D01*
X143270020Y-107359212D02*
X143270020Y-106576310D01*
X147390000Y-107070000D02*
X148330000Y-107070000D01*
X143779998Y-109933361D02*
X143779998Y-107869190D01*
X143779998Y-107869190D02*
X143270020Y-107359212D01*
X146139202Y-105929998D02*
X146139204Y-105930000D01*
X148330000Y-107070000D02*
X149400000Y-106000000D01*
X143530057Y-110183302D02*
X143779998Y-109933361D01*
X143916332Y-105929998D02*
X146139202Y-105929998D01*
X146139204Y-105930000D02*
X146250000Y-105930000D01*
X149400000Y-106000000D02*
X149400000Y-105900000D01*
X149875000Y-107500000D02*
X149875000Y-106475000D01*
X149875000Y-106475000D02*
X149400000Y-106000000D01*
X143150020Y-111649999D02*
X142800021Y-111300000D01*
X144110000Y-111429202D02*
X143889203Y-111649999D01*
X145050000Y-108000000D02*
X145050000Y-109115922D01*
X143889203Y-111649999D02*
X143150020Y-111649999D01*
X144110000Y-110055922D02*
X144110000Y-111429202D01*
X145050000Y-109115922D02*
X144110000Y-110055922D01*
X146842001Y-107559999D02*
X145950001Y-107559999D01*
X147282002Y-108000000D02*
X146842001Y-107559999D01*
X148025000Y-108000000D02*
X147282002Y-108000000D01*
X145510000Y-108000000D02*
X145050000Y-108000000D01*
X145950001Y-107559999D02*
X145510000Y-108000000D01*
X141010000Y-91498308D02*
X141010000Y-90699978D01*
X141445674Y-94774326D02*
X141445674Y-91933982D01*
X140230000Y-95990000D02*
X141445674Y-94774326D01*
X141445674Y-91933982D02*
X141010000Y-91498308D01*
X132550000Y-87100000D02*
X141310000Y-87100000D01*
X127800000Y-82350000D02*
X132550000Y-87100000D01*
X127800000Y-82250000D02*
X127800000Y-82350000D01*
X126900000Y-80950000D02*
X126900000Y-81150000D01*
X126900000Y-81150000D02*
X127800000Y-82050000D01*
X127800000Y-82050000D02*
X127800000Y-82250000D01*
X126900000Y-88950000D02*
X126900000Y-89150000D01*
X126900000Y-89150000D02*
X127800000Y-90050000D01*
X127800000Y-90050000D02*
X127800000Y-90250000D01*
X127020000Y-102420000D02*
X127020000Y-94380000D01*
X127020000Y-94380000D02*
X126049954Y-93409954D01*
X126049954Y-93409954D02*
X126049954Y-92160046D01*
X126049954Y-92160046D02*
X127800000Y-90410000D01*
X127800000Y-90410000D02*
X127800000Y-90250000D01*
X149875000Y-109500000D02*
X151410000Y-109500000D01*
X151410000Y-109500000D02*
X152550000Y-110640000D01*
X152550000Y-110640000D02*
X152550000Y-113500000D01*
X142280000Y-110190000D02*
X140710000Y-111760000D01*
X140710000Y-111760000D02*
X132274857Y-111760000D01*
X132274857Y-111760000D02*
X130439994Y-113594863D01*
X129430001Y-89439991D02*
X128850000Y-88859990D01*
X128530000Y-91422563D02*
X129430001Y-90522562D01*
X129430001Y-90522562D02*
X129430001Y-89439991D01*
X128530000Y-101280000D02*
X128530000Y-91422563D01*
X132290000Y-105040000D02*
X128530000Y-101280000D01*
X128820000Y-90680000D02*
X128820000Y-90130000D01*
X128209989Y-91290011D02*
X128820000Y-90680000D01*
X129117437Y-105680000D02*
X128209989Y-104772552D01*
X132980000Y-105680000D02*
X129117437Y-105680000D01*
X128209989Y-104772552D02*
X128209989Y-91290011D01*
X129940000Y-94640000D02*
X129940000Y-96300000D01*
X129940000Y-96300000D02*
X133120000Y-99480000D01*
X133120000Y-99480000D02*
X138980000Y-99480000D01*
X138980000Y-99480000D02*
X141830000Y-102330000D01*
X141830000Y-102330000D02*
X141830000Y-103420000D01*
X141145986Y-102845986D02*
X141145986Y-102098548D01*
X141145986Y-102098548D02*
X138847449Y-99800011D01*
X138847449Y-99800011D02*
X132947448Y-99800011D01*
X132947448Y-99800011D02*
X129190000Y-96042563D01*
X129190000Y-96042563D02*
X129190000Y-95910000D01*
X129190000Y-95910000D02*
X129190000Y-95790000D01*
X141285736Y-100670000D02*
X142330000Y-100670000D01*
X129510000Y-88330000D02*
X129510000Y-88754264D01*
X134175862Y-98800000D02*
X139415736Y-98800000D01*
X131229990Y-95854128D02*
X134175862Y-98800000D01*
X131229990Y-92779192D02*
X131229990Y-95854128D01*
X129799999Y-91349201D02*
X131229990Y-92779192D01*
X129510000Y-88754264D02*
X129799999Y-89044263D01*
X139415736Y-98800000D02*
X141285736Y-100670000D01*
X129799999Y-89044263D02*
X129799999Y-91349201D01*
X133360000Y-100976254D02*
X131341873Y-98958127D01*
X133360000Y-104490000D02*
X133360000Y-100976254D01*
X154210002Y-99750000D02*
X154210002Y-100929998D01*
X154210002Y-100929998D02*
X153923155Y-101216845D01*
X142751768Y-94422436D02*
X142451769Y-94122437D01*
X142451769Y-94122437D02*
X142451769Y-91950956D01*
X141570002Y-90430798D02*
X141289202Y-90149998D01*
X140770798Y-90149998D02*
X139980000Y-90940796D01*
X139980000Y-90940796D02*
X139980000Y-91202002D01*
X139980000Y-91202002D02*
X139732002Y-91450000D01*
X135800000Y-93492932D02*
X135800000Y-93902932D01*
X142451769Y-91950956D02*
X141570002Y-91069189D01*
X141570002Y-91069189D02*
X141570002Y-90430798D01*
X139732002Y-91450000D02*
X137842932Y-91450000D01*
X141289202Y-90149998D02*
X140770798Y-90149998D01*
X137842932Y-91450000D02*
X135800000Y-93492932D01*
X134750000Y-94052932D02*
X135650000Y-94052932D01*
X135650000Y-94052932D02*
X135800000Y-93902932D01*
X139023817Y-96752945D02*
X139486741Y-96290021D01*
X135487232Y-95815700D02*
X135487232Y-96472145D01*
X135487232Y-96472145D02*
X135768032Y-96752945D01*
X135768032Y-96752945D02*
X139023817Y-96752945D01*
X135800000Y-95502932D02*
X135487232Y-95815700D01*
X134750000Y-95352932D02*
X135650000Y-95352932D01*
X135650000Y-95352932D02*
X135800000Y-95502932D01*
X134600000Y-103800000D02*
X134600000Y-104900000D01*
X134600000Y-104900000D02*
X134625000Y-104925000D01*
X150810000Y-97120000D02*
X150810000Y-95970000D01*
X150810000Y-95970000D02*
X151090000Y-95690000D01*
X150640000Y-101000000D02*
X150700000Y-101060000D01*
X149800000Y-101000000D02*
X150640000Y-101000000D01*
X134625000Y-108200000D02*
X134600000Y-108225000D01*
X134625000Y-107325000D02*
X134625000Y-108200000D01*
X146450000Y-108000000D02*
X146950000Y-108500000D01*
X146950000Y-108500000D02*
X148025000Y-108500000D01*
X146350000Y-108000000D02*
X146450000Y-108000000D01*
X153050000Y-99825000D02*
X153050000Y-99460000D01*
X155150000Y-99725000D02*
X155500000Y-99725000D01*
X153050000Y-99460000D02*
X153395000Y-99115000D01*
X153395000Y-99115000D02*
X154540000Y-99115000D01*
X154540000Y-99115000D02*
X155150000Y-99725000D01*
X155500000Y-101825000D02*
X155500000Y-99725000D01*
X155500000Y-101825000D02*
X155500000Y-104225000D01*
X155500000Y-106325000D02*
X155500000Y-104225000D01*
X153050000Y-106225000D02*
X155400000Y-106225000D01*
X155400000Y-106225000D02*
X155500000Y-106325000D01*
X143110000Y-100120000D02*
X142380000Y-99390000D01*
X143110000Y-104189977D02*
X143110000Y-100120000D01*
X138574553Y-100489988D02*
X138810012Y-100725447D01*
X137040012Y-100489988D02*
X138574553Y-100489988D01*
X135680800Y-100990000D02*
X136540000Y-100990000D01*
X138810012Y-101298290D02*
X141701699Y-104189977D01*
X134600000Y-102900000D02*
X134600000Y-102070800D01*
X138810012Y-100725447D02*
X138810012Y-101298290D01*
X141701699Y-104189977D02*
X143110000Y-104189977D01*
X136540000Y-100990000D02*
X137040012Y-100489988D01*
X134600000Y-102070800D02*
X135680800Y-100990000D01*
X146779542Y-99760011D02*
X146479543Y-100060010D01*
X151160010Y-100060010D02*
X148149271Y-100060010D01*
X152825000Y-101725000D02*
X151160010Y-100060010D01*
X148149271Y-100060010D02*
X147849272Y-99760011D01*
X147849272Y-99760011D02*
X146779542Y-99760011D01*
X153400000Y-101750000D02*
X152925000Y-101750000D01*
X152245000Y-102375000D02*
X152825000Y-102375000D01*
X151909999Y-102039999D02*
X152245000Y-102375000D01*
X151909999Y-101470795D02*
X151909999Y-102039999D01*
X150939204Y-100500000D02*
X151909999Y-101470795D01*
X149800000Y-100500000D02*
X150939204Y-100500000D01*
X149800000Y-101500000D02*
X149875000Y-101500000D01*
X149875000Y-101500000D02*
X150335000Y-101960000D01*
X150335000Y-101960000D02*
X151180000Y-101960000D01*
X151180000Y-101960000D02*
X152245000Y-103025000D01*
X152245000Y-103025000D02*
X152825000Y-103025000D01*
X118350000Y-77099300D02*
X117775000Y-77674300D01*
X117775000Y-77674300D02*
X117775000Y-111825700D01*
X117775000Y-111825700D02*
X118350000Y-112400700D01*
X142430000Y-91150000D02*
X142430000Y-90725736D01*
X139119989Y-89030011D02*
X139649803Y-88500197D01*
X142430000Y-90725736D02*
X141504466Y-89800202D01*
X141504466Y-89800202D02*
X139400789Y-89800202D01*
X139400789Y-89800202D02*
X139119989Y-89519402D01*
X139119989Y-89519402D02*
X139119989Y-89030011D01*
X139649803Y-88500197D02*
X139659990Y-88500197D01*
X144050000Y-97050000D02*
X144050000Y-96688257D01*
X144050000Y-96688257D02*
X143792908Y-96431165D01*
X142362043Y-107254032D02*
X138832518Y-107254032D01*
X138832518Y-107254032D02*
X138824959Y-107261591D01*
X125610012Y-108511512D02*
X131002597Y-108511512D01*
X131002597Y-108511512D02*
X131704662Y-107809447D01*
X124750001Y-107651501D02*
X125610012Y-108511512D01*
X122480000Y-84405000D02*
X124265000Y-86190000D01*
X128275000Y-90772437D02*
X127889978Y-91157459D01*
X135219202Y-110370000D02*
X139100000Y-110370000D01*
X129509202Y-108191502D02*
X130630693Y-107070011D01*
X128581502Y-108191502D02*
X129509202Y-108191502D01*
X127889978Y-107499978D02*
X128581502Y-108191502D01*
X127889978Y-91157459D02*
X127889978Y-107499978D01*
X127839202Y-86190000D02*
X128275000Y-86625798D01*
X128275000Y-86625798D02*
X128275000Y-90772437D01*
X124265000Y-86190000D02*
X127839202Y-86190000D01*
X122480000Y-79068006D02*
X122480000Y-84405000D01*
X131919213Y-107070011D02*
X135219202Y-110370000D01*
X130630693Y-107070011D02*
X131919213Y-107070011D01*
X135267524Y-98258322D02*
X136091526Y-98258322D01*
X133939201Y-96929999D02*
X135267524Y-98258322D01*
X131550000Y-92300000D02*
X131550000Y-95280000D01*
X130340000Y-91090000D02*
X131550000Y-92300000D01*
X131550000Y-95280000D02*
X133199999Y-96929999D01*
X133199999Y-96929999D02*
X133939201Y-96929999D01*
X136352978Y-97712978D02*
X136850000Y-98210000D01*
X134267386Y-96609988D02*
X135370376Y-97712978D01*
X131200001Y-91129999D02*
X131870011Y-91800009D01*
X133332550Y-96609988D02*
X134267386Y-96609988D01*
X131870011Y-95147449D02*
X133332550Y-96609988D01*
X131870011Y-91800009D02*
X131870011Y-95147449D01*
X135370376Y-97712978D02*
X136352978Y-97712978D01*
X135502929Y-97392967D02*
X136841320Y-97392967D01*
X136841320Y-97392967D02*
X137608355Y-98160002D01*
X134399939Y-96289977D02*
X135502929Y-97392967D01*
X132200000Y-91110000D02*
X132200000Y-95024874D01*
X132200000Y-95024874D02*
X133465102Y-96289977D01*
X133465102Y-96289977D02*
X134399939Y-96289977D01*
X135635480Y-97072956D02*
X138032003Y-97072956D01*
X133597654Y-95969966D02*
X134532490Y-95969966D01*
X138032003Y-97072956D02*
X138579515Y-97620468D01*
X133120000Y-91250000D02*
X132610001Y-91759999D01*
X134532490Y-95969966D02*
X135635480Y-97072956D01*
X132610001Y-91759999D02*
X132610001Y-94982312D01*
X132610001Y-94982312D02*
X133597654Y-95969966D01*
X148599990Y-94540788D02*
X148599990Y-98376531D01*
X148599990Y-98376531D02*
X148355106Y-98621415D01*
X148599990Y-94540788D02*
X148164713Y-94105511D01*
X146842112Y-94105511D02*
X146542113Y-94405510D01*
X148164713Y-94105511D02*
X146842112Y-94105511D01*
X130740000Y-83969996D02*
X130029996Y-83969996D01*
X127770006Y-77660006D02*
X126420000Y-77660006D01*
X130029996Y-83969996D02*
X128260000Y-82200000D01*
X128260000Y-82200000D02*
X128260000Y-78150000D01*
X128260000Y-78150000D02*
X127770006Y-77660006D01*
M02*
