G04 #@! TF.FileFunction,Legend,Bot*
%FSLAX46Y46*%
G04 Gerber Fmt 4.6, Leading zero omitted, Abs format (unit mm)*
G04 Created by KiCad (PCBNEW 4.1.0-alpha+201607160317+6981~46~ubuntu14.04.1-product) date Fri Jul 22 01:01:49 2016*
%MOMM*%
%LPD*%
G01*
G04 APERTURE LIST*
%ADD10C,0.100000*%
%ADD11C,0.150000*%
%ADD12C,0.250000*%
%ADD13C,0.050000*%
%ADD14C,0.125000*%
G04 APERTURE END LIST*
D10*
D11*
X139998571Y-109584761D02*
X139855714Y-109632380D01*
X139617619Y-109632380D01*
X139522380Y-109584761D01*
X139474761Y-109537142D01*
X139427142Y-109441904D01*
X139427142Y-109346666D01*
X139474761Y-109251428D01*
X139522380Y-109203809D01*
X139617619Y-109156190D01*
X139808095Y-109108571D01*
X139903333Y-109060952D01*
X139950952Y-109013333D01*
X139998571Y-108918095D01*
X139998571Y-108822857D01*
X139950952Y-108727619D01*
X139903333Y-108680000D01*
X139808095Y-108632380D01*
X139570000Y-108632380D01*
X139427142Y-108680000D01*
X138998571Y-108965714D02*
X138998571Y-109965714D01*
X138998571Y-109013333D02*
X138903333Y-108965714D01*
X138712857Y-108965714D01*
X138617619Y-109013333D01*
X138570000Y-109060952D01*
X138522380Y-109156190D01*
X138522380Y-109441904D01*
X138570000Y-109537142D01*
X138617619Y-109584761D01*
X138712857Y-109632380D01*
X138903333Y-109632380D01*
X138998571Y-109584761D01*
X137712857Y-109584761D02*
X137808095Y-109632380D01*
X137998571Y-109632380D01*
X138093809Y-109584761D01*
X138141428Y-109489523D01*
X138141428Y-109108571D01*
X138093809Y-109013333D01*
X137998571Y-108965714D01*
X137808095Y-108965714D01*
X137712857Y-109013333D01*
X137665238Y-109108571D01*
X137665238Y-109203809D01*
X138141428Y-109299047D01*
X136855714Y-109584761D02*
X136950952Y-109632380D01*
X137141428Y-109632380D01*
X137236666Y-109584761D01*
X137284285Y-109489523D01*
X137284285Y-109108571D01*
X137236666Y-109013333D01*
X137141428Y-108965714D01*
X136950952Y-108965714D01*
X136855714Y-109013333D01*
X136808095Y-109108571D01*
X136808095Y-109203809D01*
X137284285Y-109299047D01*
X135950952Y-109632380D02*
X135950952Y-108632380D01*
X135950952Y-109584761D02*
X136046190Y-109632380D01*
X136236666Y-109632380D01*
X136331904Y-109584761D01*
X136379523Y-109537142D01*
X136427142Y-109441904D01*
X136427142Y-109156190D01*
X136379523Y-109060952D01*
X136331904Y-109013333D01*
X136236666Y-108965714D01*
X136046190Y-108965714D01*
X135950952Y-109013333D01*
X135570000Y-108965714D02*
X135331904Y-109632380D01*
X135093809Y-108965714D02*
X135331904Y-109632380D01*
X135427142Y-109870476D01*
X135474761Y-109918095D01*
X135570000Y-109965714D01*
X133950952Y-108965714D02*
X133950952Y-109632380D01*
X133950952Y-109060952D02*
X133903333Y-109013333D01*
X133808095Y-108965714D01*
X133665238Y-108965714D01*
X133570000Y-109013333D01*
X133522380Y-109108571D01*
X133522380Y-109632380D01*
X132617619Y-109632380D02*
X132617619Y-109108571D01*
X132665238Y-109013333D01*
X132760476Y-108965714D01*
X132950952Y-108965714D01*
X133046190Y-109013333D01*
X132617619Y-109584761D02*
X132712857Y-109632380D01*
X132950952Y-109632380D01*
X133046190Y-109584761D01*
X133093809Y-109489523D01*
X133093809Y-109394285D01*
X133046190Y-109299047D01*
X132950952Y-109251428D01*
X132712857Y-109251428D01*
X132617619Y-109203809D01*
X132141428Y-108965714D02*
X132141428Y-109632380D01*
X132141428Y-109060952D02*
X132093809Y-109013333D01*
X131998571Y-108965714D01*
X131855714Y-108965714D01*
X131760476Y-109013333D01*
X131712857Y-109108571D01*
X131712857Y-109632380D01*
X131093809Y-109632380D02*
X131189047Y-109584761D01*
X131236666Y-109537142D01*
X131284285Y-109441904D01*
X131284285Y-109156190D01*
X131236666Y-109060952D01*
X131189047Y-109013333D01*
X131093809Y-108965714D01*
X130950952Y-108965714D01*
X130855714Y-109013333D01*
X130808095Y-109060952D01*
X130760476Y-109156190D01*
X130760476Y-109441904D01*
X130808095Y-109537142D01*
X130855714Y-109584761D01*
X130950952Y-109632380D01*
X131093809Y-109632380D01*
X129903333Y-109584761D02*
X129998571Y-109632380D01*
X130189047Y-109632380D01*
X130284285Y-109584761D01*
X130331904Y-109537142D01*
X130379523Y-109441904D01*
X130379523Y-109156190D01*
X130331904Y-109060952D01*
X130284285Y-109013333D01*
X130189047Y-108965714D01*
X129998571Y-108965714D01*
X129903333Y-109013333D01*
X129331904Y-109632380D02*
X129427142Y-109584761D01*
X129474761Y-109537142D01*
X129522380Y-109441904D01*
X129522380Y-109156190D01*
X129474761Y-109060952D01*
X129427142Y-109013333D01*
X129331904Y-108965714D01*
X129189047Y-108965714D01*
X129093809Y-109013333D01*
X129046190Y-109060952D01*
X128998571Y-109156190D01*
X128998571Y-109441904D01*
X129046190Y-109537142D01*
X129093809Y-109584761D01*
X129189047Y-109632380D01*
X129331904Y-109632380D01*
X128570000Y-108965714D02*
X128570000Y-109965714D01*
X128570000Y-109013333D02*
X128474761Y-108965714D01*
X128284285Y-108965714D01*
X128189047Y-109013333D01*
X128141428Y-109060952D01*
X128093809Y-109156190D01*
X128093809Y-109441904D01*
X128141428Y-109537142D01*
X128189047Y-109584761D01*
X128284285Y-109632380D01*
X128474761Y-109632380D01*
X128570000Y-109584761D01*
X127808095Y-108965714D02*
X127427142Y-108965714D01*
X127665238Y-108632380D02*
X127665238Y-109489523D01*
X127617619Y-109584761D01*
X127522380Y-109632380D01*
X127427142Y-109632380D01*
X126712857Y-109584761D02*
X126808095Y-109632380D01*
X126998571Y-109632380D01*
X127093809Y-109584761D01*
X127141428Y-109489523D01*
X127141428Y-109108571D01*
X127093809Y-109013333D01*
X126998571Y-108965714D01*
X126808095Y-108965714D01*
X126712857Y-109013333D01*
X126665238Y-109108571D01*
X126665238Y-109203809D01*
X127141428Y-109299047D01*
X126236666Y-109632380D02*
X126236666Y-108965714D01*
X126236666Y-109156190D02*
X126189047Y-109060952D01*
X126141428Y-109013333D01*
X126046190Y-108965714D01*
X125950952Y-108965714D01*
X124950952Y-108965714D02*
X124712857Y-109632380D01*
X124474761Y-108965714D01*
X123570000Y-109632380D02*
X124141428Y-109632380D01*
X123855714Y-109632380D02*
X123855714Y-108632380D01*
X123950952Y-108775238D01*
X124046190Y-108870476D01*
X124141428Y-108918095D01*
X123141428Y-109537142D02*
X123093809Y-109584761D01*
X123141428Y-109632380D01*
X123189047Y-109584761D01*
X123141428Y-109537142D01*
X123141428Y-109632380D01*
X122474761Y-108632380D02*
X122379523Y-108632380D01*
X122284285Y-108680000D01*
X122236666Y-108727619D01*
X122189047Y-108822857D01*
X122141428Y-109013333D01*
X122141428Y-109251428D01*
X122189047Y-109441904D01*
X122236666Y-109537142D01*
X122284285Y-109584761D01*
X122379523Y-109632380D01*
X122474761Y-109632380D01*
X122570000Y-109584761D01*
X122617619Y-109537142D01*
X122665238Y-109441904D01*
X122712857Y-109251428D01*
X122712857Y-109013333D01*
X122665238Y-108822857D01*
X122617619Y-108727619D01*
X122570000Y-108680000D01*
X122474761Y-108632380D01*
X138617619Y-111234761D02*
X138474761Y-111282380D01*
X138236666Y-111282380D01*
X138141428Y-111234761D01*
X138093809Y-111187142D01*
X138046190Y-111091904D01*
X138046190Y-110996666D01*
X138093809Y-110901428D01*
X138141428Y-110853809D01*
X138236666Y-110806190D01*
X138427142Y-110758571D01*
X138522380Y-110710952D01*
X138570000Y-110663333D01*
X138617619Y-110568095D01*
X138617619Y-110472857D01*
X138570000Y-110377619D01*
X138522380Y-110330000D01*
X138427142Y-110282380D01*
X138189047Y-110282380D01*
X138046190Y-110330000D01*
X137189047Y-111282380D02*
X137189047Y-110758571D01*
X137236666Y-110663333D01*
X137331904Y-110615714D01*
X137522380Y-110615714D01*
X137617619Y-110663333D01*
X137189047Y-111234761D02*
X137284285Y-111282380D01*
X137522380Y-111282380D01*
X137617619Y-111234761D01*
X137665238Y-111139523D01*
X137665238Y-111044285D01*
X137617619Y-110949047D01*
X137522380Y-110901428D01*
X137284285Y-110901428D01*
X137189047Y-110853809D01*
X136570000Y-111282380D02*
X136665238Y-111234761D01*
X136712857Y-111139523D01*
X136712857Y-110282380D01*
X135760476Y-111282380D02*
X135760476Y-110758571D01*
X135808095Y-110663333D01*
X135903333Y-110615714D01*
X136093809Y-110615714D01*
X136189047Y-110663333D01*
X135760476Y-111234761D02*
X135855714Y-111282380D01*
X136093809Y-111282380D01*
X136189047Y-111234761D01*
X136236666Y-111139523D01*
X136236666Y-111044285D01*
X136189047Y-110949047D01*
X136093809Y-110901428D01*
X135855714Y-110901428D01*
X135760476Y-110853809D01*
X135284285Y-111282380D02*
X135284285Y-110282380D01*
X134855714Y-111282380D02*
X134855714Y-110758571D01*
X134903333Y-110663333D01*
X134998571Y-110615714D01*
X135141428Y-110615714D01*
X135236666Y-110663333D01*
X135284285Y-110710952D01*
X134379523Y-110901428D02*
X133617619Y-110901428D01*
X133141428Y-110758571D02*
X132808095Y-110758571D01*
X132665238Y-111282380D02*
X133141428Y-111282380D01*
X133141428Y-110282380D01*
X132665238Y-110282380D01*
X131808095Y-111282380D02*
X131808095Y-110282380D01*
X131808095Y-111234761D02*
X131903333Y-111282380D01*
X132093809Y-111282380D01*
X132189047Y-111234761D01*
X132236666Y-111187142D01*
X132284285Y-111091904D01*
X132284285Y-110806190D01*
X132236666Y-110710952D01*
X132189047Y-110663333D01*
X132093809Y-110615714D01*
X131903333Y-110615714D01*
X131808095Y-110663333D01*
X130903333Y-111282380D02*
X130903333Y-110282380D01*
X130903333Y-111234761D02*
X130998571Y-111282380D01*
X131189047Y-111282380D01*
X131284285Y-111234761D01*
X131331904Y-111187142D01*
X131379523Y-111091904D01*
X131379523Y-110806190D01*
X131331904Y-110710952D01*
X131284285Y-110663333D01*
X131189047Y-110615714D01*
X130998571Y-110615714D01*
X130903333Y-110663333D01*
X130427142Y-111282380D02*
X130427142Y-110615714D01*
X130427142Y-110282380D02*
X130474761Y-110330000D01*
X130427142Y-110377619D01*
X130379523Y-110330000D01*
X130427142Y-110282380D01*
X130427142Y-110377619D01*
X129950952Y-110615714D02*
X129950952Y-111282380D01*
X129950952Y-110710952D02*
X129903333Y-110663333D01*
X129808095Y-110615714D01*
X129665238Y-110615714D01*
X129570000Y-110663333D01*
X129522380Y-110758571D01*
X129522380Y-111282380D01*
X128665238Y-111234761D02*
X128760476Y-111282380D01*
X128950952Y-111282380D01*
X129046190Y-111234761D01*
X129093809Y-111139523D01*
X129093809Y-110758571D01*
X129046190Y-110663333D01*
X128950952Y-110615714D01*
X128760476Y-110615714D01*
X128665238Y-110663333D01*
X128617619Y-110758571D01*
X128617619Y-110853809D01*
X129093809Y-110949047D01*
X127427142Y-111282380D02*
X127427142Y-110282380D01*
X127093809Y-110996666D01*
X126760476Y-110282380D01*
X126760476Y-111282380D01*
X126284285Y-111282380D02*
X126284285Y-110615714D01*
X126284285Y-110282380D02*
X126331904Y-110330000D01*
X126284285Y-110377619D01*
X126236666Y-110330000D01*
X126284285Y-110282380D01*
X126284285Y-110377619D01*
X125855714Y-111234761D02*
X125760476Y-111282380D01*
X125570000Y-111282380D01*
X125474761Y-111234761D01*
X125427142Y-111139523D01*
X125427142Y-111091904D01*
X125474761Y-110996666D01*
X125570000Y-110949047D01*
X125712857Y-110949047D01*
X125808095Y-110901428D01*
X125855714Y-110806190D01*
X125855714Y-110758571D01*
X125808095Y-110663333D01*
X125712857Y-110615714D01*
X125570000Y-110615714D01*
X125474761Y-110663333D01*
X125046190Y-111234761D02*
X124950952Y-111282380D01*
X124760476Y-111282380D01*
X124665238Y-111234761D01*
X124617619Y-111139523D01*
X124617619Y-111091904D01*
X124665238Y-110996666D01*
X124760476Y-110949047D01*
X124903333Y-110949047D01*
X124998571Y-110901428D01*
X125046190Y-110806190D01*
X125046190Y-110758571D01*
X124998571Y-110663333D01*
X124903333Y-110615714D01*
X124760476Y-110615714D01*
X124665238Y-110663333D01*
X124189047Y-111282380D02*
X124189047Y-110615714D01*
X124189047Y-110806190D02*
X124141428Y-110710952D01*
X124093809Y-110663333D01*
X123998571Y-110615714D01*
X123903333Y-110615714D01*
X123570000Y-111282380D02*
X123570000Y-110615714D01*
X123570000Y-110282380D02*
X123617619Y-110330000D01*
X123570000Y-110377619D01*
X123522380Y-110330000D01*
X123570000Y-110282380D01*
X123570000Y-110377619D01*
X135236666Y-112456190D02*
X135284285Y-112408571D01*
X135379523Y-112360952D01*
X135474761Y-112360952D01*
X135570000Y-112408571D01*
X135617619Y-112456190D01*
X135665238Y-112551428D01*
X135665238Y-112646666D01*
X135617619Y-112741904D01*
X135570000Y-112789523D01*
X135474761Y-112837142D01*
X135379523Y-112837142D01*
X135284285Y-112789523D01*
X135236666Y-112741904D01*
X135236666Y-112360952D02*
X135236666Y-112741904D01*
X135189047Y-112789523D01*
X135141428Y-112789523D01*
X135046190Y-112741904D01*
X134998571Y-112646666D01*
X134998571Y-112408571D01*
X135093809Y-112265714D01*
X135236666Y-112170476D01*
X135427142Y-112122857D01*
X135617619Y-112170476D01*
X135760476Y-112265714D01*
X135855714Y-112408571D01*
X135903333Y-112599047D01*
X135855714Y-112789523D01*
X135760476Y-112932380D01*
X135617619Y-113027619D01*
X135427142Y-113075238D01*
X135236666Y-113027619D01*
X135093809Y-112932380D01*
X134617619Y-112884761D02*
X134522380Y-112932380D01*
X134331904Y-112932380D01*
X134236666Y-112884761D01*
X134189047Y-112789523D01*
X134189047Y-112741904D01*
X134236666Y-112646666D01*
X134331904Y-112599047D01*
X134474761Y-112599047D01*
X134570000Y-112551428D01*
X134617619Y-112456190D01*
X134617619Y-112408571D01*
X134570000Y-112313333D01*
X134474761Y-112265714D01*
X134331904Y-112265714D01*
X134236666Y-112313333D01*
X133855714Y-112265714D02*
X133617619Y-112932380D01*
X133379523Y-112265714D02*
X133617619Y-112932380D01*
X133712857Y-113170476D01*
X133760476Y-113218095D01*
X133855714Y-113265714D01*
X132998571Y-112932380D02*
X132998571Y-112265714D01*
X132998571Y-112456190D02*
X132950952Y-112360952D01*
X132903333Y-112313333D01*
X132808095Y-112265714D01*
X132712857Y-112265714D01*
X132379523Y-112932380D02*
X132379523Y-112265714D01*
X132379523Y-111932380D02*
X132427142Y-111980000D01*
X132379523Y-112027619D01*
X132331904Y-111980000D01*
X132379523Y-111932380D01*
X132379523Y-112027619D01*
X131474761Y-112932380D02*
X131474761Y-112408571D01*
X131522380Y-112313333D01*
X131617619Y-112265714D01*
X131808095Y-112265714D01*
X131903333Y-112313333D01*
X131474761Y-112884761D02*
X131570000Y-112932380D01*
X131808095Y-112932380D01*
X131903333Y-112884761D01*
X131950952Y-112789523D01*
X131950952Y-112694285D01*
X131903333Y-112599047D01*
X131808095Y-112551428D01*
X131570000Y-112551428D01*
X131474761Y-112503809D01*
X130998571Y-112265714D02*
X130998571Y-112932380D01*
X130998571Y-112360952D02*
X130950952Y-112313333D01*
X130855714Y-112265714D01*
X130712857Y-112265714D01*
X130617619Y-112313333D01*
X130570000Y-112408571D01*
X130570000Y-112932380D01*
X130141428Y-112884761D02*
X130046190Y-112932380D01*
X129855714Y-112932380D01*
X129760476Y-112884761D01*
X129712857Y-112789523D01*
X129712857Y-112741904D01*
X129760476Y-112646666D01*
X129855714Y-112599047D01*
X129998571Y-112599047D01*
X130093809Y-112551428D01*
X130141428Y-112456190D01*
X130141428Y-112408571D01*
X130093809Y-112313333D01*
X129998571Y-112265714D01*
X129855714Y-112265714D01*
X129760476Y-112313333D01*
X129284285Y-112265714D02*
X129284285Y-113265714D01*
X129284285Y-112313333D02*
X129189047Y-112265714D01*
X128998571Y-112265714D01*
X128903333Y-112313333D01*
X128855714Y-112360952D01*
X128808095Y-112456190D01*
X128808095Y-112741904D01*
X128855714Y-112837142D01*
X128903333Y-112884761D01*
X128998571Y-112932380D01*
X129189047Y-112932380D01*
X129284285Y-112884761D01*
X128236666Y-112932380D02*
X128331904Y-112884761D01*
X128379523Y-112837142D01*
X128427142Y-112741904D01*
X128427142Y-112456190D01*
X128379523Y-112360952D01*
X128331904Y-112313333D01*
X128236666Y-112265714D01*
X128093809Y-112265714D01*
X127998571Y-112313333D01*
X127950952Y-112360952D01*
X127903333Y-112456190D01*
X127903333Y-112741904D01*
X127950952Y-112837142D01*
X127998571Y-112884761D01*
X128093809Y-112932380D01*
X128236666Y-112932380D01*
X127046190Y-112884761D02*
X127141428Y-112932380D01*
X127331904Y-112932380D01*
X127427142Y-112884761D01*
X127474761Y-112837142D01*
X127522380Y-112741904D01*
X127522380Y-112456190D01*
X127474761Y-112360952D01*
X127427142Y-112313333D01*
X127331904Y-112265714D01*
X127141428Y-112265714D01*
X127046190Y-112313333D01*
X126617619Y-112932380D02*
X126617619Y-111932380D01*
X126522380Y-112551428D02*
X126236666Y-112932380D01*
X126236666Y-112265714D02*
X126617619Y-112646666D01*
X135025000Y-107325000D02*
X135425000Y-107325000D01*
X135425000Y-107325000D02*
X135425000Y-104925000D01*
X135425000Y-104925000D02*
X135025000Y-104925000D01*
X134225000Y-104925000D02*
X133825000Y-104925000D01*
X133825000Y-104925000D02*
X133825000Y-107325000D01*
X133825000Y-107325000D02*
X134225000Y-107325000D01*
D12*
X126000000Y-81170000D02*
X126000000Y-80550000D01*
X122900000Y-81170000D02*
X122900000Y-80550000D01*
X123500000Y-80560000D02*
X123500000Y-80550000D01*
X126000000Y-89170000D02*
X126000000Y-88550000D01*
X122900000Y-89170000D02*
X122900000Y-88550000D01*
X123500000Y-88560000D02*
X123500000Y-88550000D01*
D11*
X145050000Y-114770000D02*
X145050000Y-115070000D01*
X145050000Y-115070000D02*
X145450000Y-115470000D01*
X145450000Y-115470000D02*
X146350000Y-115470000D01*
X146350000Y-115470000D02*
X146750000Y-115070000D01*
X146750000Y-115070000D02*
X146750000Y-114770000D01*
X144400000Y-114750000D02*
X144400000Y-112250000D01*
X144400000Y-112250000D02*
X147400000Y-112250000D01*
X147400000Y-112250000D02*
X147400000Y-114750000D01*
X147400000Y-114750000D02*
X144400000Y-114750000D01*
X150000000Y-114770000D02*
X150000000Y-115070000D01*
X150000000Y-115070000D02*
X150400000Y-115470000D01*
X150400000Y-115470000D02*
X151300000Y-115470000D01*
X151300000Y-115470000D02*
X151700000Y-115070000D01*
X151700000Y-115070000D02*
X151700000Y-114770000D01*
X149350000Y-114750000D02*
X149350000Y-112250000D01*
X149350000Y-112250000D02*
X152350000Y-112250000D01*
X152350000Y-112250000D02*
X152350000Y-114750000D01*
X152350000Y-114750000D02*
X149350000Y-114750000D01*
X149525000Y-110125000D02*
X148375000Y-110125000D01*
X150300000Y-106875000D02*
X148375000Y-106875000D01*
X148350000Y-74500000D02*
X148350000Y-73750000D01*
X148350000Y-73750000D02*
X139500000Y-73750000D01*
X139500000Y-73750000D02*
X139500000Y-74500000D01*
X148400000Y-75300000D02*
X148400000Y-74750000D01*
X148400000Y-74750000D02*
X139500000Y-74750000D01*
X139500000Y-74750000D02*
X139500000Y-75300000D01*
X143450000Y-90250000D02*
X144450000Y-90750000D01*
X144450000Y-90250000D02*
X143450000Y-90250000D01*
X143450000Y-90250000D02*
X143450000Y-90750000D01*
X143450000Y-90750000D02*
X144450000Y-90750000D01*
X144450000Y-90750000D02*
X144450000Y-90250000D01*
X144450000Y-90250000D02*
X143450000Y-90750000D01*
X137550000Y-88450000D02*
X140800000Y-89850000D01*
X140750000Y-88450000D02*
X137550000Y-89850000D01*
X138600000Y-84950000D02*
X138100000Y-83950000D01*
X138600000Y-83950000D02*
X138600000Y-84950000D01*
X138600000Y-84950000D02*
X138100000Y-84950000D01*
X138100000Y-84950000D02*
X138100000Y-83950000D01*
X138100000Y-83950000D02*
X138600000Y-83950000D01*
X138600000Y-83950000D02*
X138100000Y-84950000D01*
X140800000Y-88450000D02*
X137550000Y-88450000D01*
X137550000Y-88450000D02*
X137550000Y-89850000D01*
X137550000Y-89850000D02*
X140800000Y-89850000D01*
X140800000Y-89850000D02*
X140800000Y-88450000D01*
X139500000Y-76550000D02*
X139500000Y-75550000D01*
X150100000Y-75550000D02*
X148400000Y-75550000D01*
X148400000Y-75550000D02*
X148400000Y-76750000D01*
X148400000Y-76750000D02*
X146400000Y-76950000D01*
X146400000Y-76950000D02*
X142000000Y-76950000D01*
X142000000Y-76950000D02*
X139500000Y-76550000D01*
X148900000Y-90950000D02*
X151600000Y-90950000D01*
X151600000Y-77450000D02*
X151600000Y-90950000D01*
X138000000Y-84750000D02*
X138000000Y-77450000D01*
X138000000Y-89650000D02*
X138000000Y-87050000D01*
X144200000Y-90950000D02*
X140000000Y-90950000D01*
X156700000Y-76474300D02*
X156200000Y-76474300D01*
X118600000Y-76425000D02*
X118100000Y-76425000D01*
X118600000Y-113225000D02*
X118100000Y-113225000D01*
X156700000Y-113224300D02*
X156200000Y-113224300D01*
D13*
X137650000Y-103307142D02*
X137664285Y-103321428D01*
X137707142Y-103335714D01*
X137735714Y-103335714D01*
X137778571Y-103321428D01*
X137807142Y-103292857D01*
X137821428Y-103264285D01*
X137835714Y-103207142D01*
X137835714Y-103164285D01*
X137821428Y-103107142D01*
X137807142Y-103078571D01*
X137778571Y-103050000D01*
X137735714Y-103035714D01*
X137707142Y-103035714D01*
X137664285Y-103050000D01*
X137650000Y-103064285D01*
X137364285Y-103335714D02*
X137535714Y-103335714D01*
X137450000Y-103335714D02*
X137450000Y-103035714D01*
X137478571Y-103078571D01*
X137507142Y-103107142D01*
X137535714Y-103121428D01*
X136850000Y-77607142D02*
X136864285Y-77621428D01*
X136907142Y-77635714D01*
X136935714Y-77635714D01*
X136978571Y-77621428D01*
X137007142Y-77592857D01*
X137021428Y-77564285D01*
X137035714Y-77507142D01*
X137035714Y-77464285D01*
X137021428Y-77407142D01*
X137007142Y-77378571D01*
X136978571Y-77350000D01*
X136935714Y-77335714D01*
X136907142Y-77335714D01*
X136864285Y-77350000D01*
X136850000Y-77364285D01*
X136750000Y-77335714D02*
X136550000Y-77335714D01*
X136678571Y-77635714D01*
X140342857Y-95860074D02*
X140357142Y-95874360D01*
X140400000Y-95888646D01*
X140428571Y-95888646D01*
X140471428Y-95874360D01*
X140500000Y-95845789D01*
X140514285Y-95817217D01*
X140528571Y-95760074D01*
X140528571Y-95717217D01*
X140514285Y-95660074D01*
X140500000Y-95631503D01*
X140471428Y-95602932D01*
X140428571Y-95588646D01*
X140400000Y-95588646D01*
X140357142Y-95602932D01*
X140342857Y-95617217D01*
X140057142Y-95888646D02*
X140228571Y-95888646D01*
X140142857Y-95888646D02*
X140142857Y-95588646D01*
X140171428Y-95631503D01*
X140200000Y-95660074D01*
X140228571Y-95674360D01*
X139885714Y-95717217D02*
X139914285Y-95702932D01*
X139928571Y-95688646D01*
X139942857Y-95660074D01*
X139942857Y-95645789D01*
X139928571Y-95617217D01*
X139914285Y-95602932D01*
X139885714Y-95588646D01*
X139828571Y-95588646D01*
X139800000Y-95602932D01*
X139785714Y-95617217D01*
X139771428Y-95645789D01*
X139771428Y-95660074D01*
X139785714Y-95688646D01*
X139800000Y-95702932D01*
X139828571Y-95717217D01*
X139885714Y-95717217D01*
X139914285Y-95731503D01*
X139928571Y-95745789D01*
X139942857Y-95774360D01*
X139942857Y-95831503D01*
X139928571Y-95860074D01*
X139914285Y-95874360D01*
X139885714Y-95888646D01*
X139828571Y-95888646D01*
X139800000Y-95874360D01*
X139785714Y-95860074D01*
X139771428Y-95831503D01*
X139771428Y-95774360D01*
X139785714Y-95745789D01*
X139800000Y-95731503D01*
X139828571Y-95717217D01*
X138842857Y-92107142D02*
X138857142Y-92121428D01*
X138900000Y-92135714D01*
X138928571Y-92135714D01*
X138971428Y-92121428D01*
X139000000Y-92092857D01*
X139014285Y-92064285D01*
X139028571Y-92007142D01*
X139028571Y-91964285D01*
X139014285Y-91907142D01*
X139000000Y-91878571D01*
X138971428Y-91850000D01*
X138928571Y-91835714D01*
X138900000Y-91835714D01*
X138857142Y-91850000D01*
X138842857Y-91864285D01*
X138557142Y-92135714D02*
X138728571Y-92135714D01*
X138642857Y-92135714D02*
X138642857Y-91835714D01*
X138671428Y-91878571D01*
X138700000Y-91907142D01*
X138728571Y-91921428D01*
X138414285Y-92135714D02*
X138357142Y-92135714D01*
X138328571Y-92121428D01*
X138314285Y-92107142D01*
X138285714Y-92064285D01*
X138271428Y-92007142D01*
X138271428Y-91892857D01*
X138285714Y-91864285D01*
X138300000Y-91850000D01*
X138328571Y-91835714D01*
X138385714Y-91835714D01*
X138414285Y-91850000D01*
X138428571Y-91864285D01*
X138442857Y-91892857D01*
X138442857Y-91964285D01*
X138428571Y-91992857D01*
X138414285Y-92007142D01*
X138385714Y-92021428D01*
X138328571Y-92021428D01*
X138300000Y-92007142D01*
X138285714Y-91992857D01*
X138271428Y-91964285D01*
X146542857Y-110657142D02*
X146557142Y-110671428D01*
X146600000Y-110685714D01*
X146628571Y-110685714D01*
X146671428Y-110671428D01*
X146700000Y-110642857D01*
X146714285Y-110614285D01*
X146728571Y-110557142D01*
X146728571Y-110514285D01*
X146714285Y-110457142D01*
X146700000Y-110428571D01*
X146671428Y-110400000D01*
X146628571Y-110385714D01*
X146600000Y-110385714D01*
X146557142Y-110400000D01*
X146542857Y-110414285D01*
X146442857Y-110385714D02*
X146257142Y-110385714D01*
X146357142Y-110500000D01*
X146314285Y-110500000D01*
X146285714Y-110514285D01*
X146271428Y-110528571D01*
X146257142Y-110557142D01*
X146257142Y-110628571D01*
X146271428Y-110657142D01*
X146285714Y-110671428D01*
X146314285Y-110685714D01*
X146400000Y-110685714D01*
X146428571Y-110671428D01*
X146442857Y-110657142D01*
X146071428Y-110385714D02*
X146042857Y-110385714D01*
X146014285Y-110400000D01*
X146000000Y-110414285D01*
X145985714Y-110442857D01*
X145971428Y-110500000D01*
X145971428Y-110571428D01*
X145985714Y-110628571D01*
X146000000Y-110657142D01*
X146014285Y-110671428D01*
X146042857Y-110685714D01*
X146071428Y-110685714D01*
X146100000Y-110671428D01*
X146114285Y-110657142D01*
X146128571Y-110628571D01*
X146142857Y-110571428D01*
X146142857Y-110500000D01*
X146128571Y-110442857D01*
X146114285Y-110414285D01*
X146100000Y-110400000D01*
X146071428Y-110385714D01*
X146792857Y-106607142D02*
X146807142Y-106621428D01*
X146850000Y-106635714D01*
X146878571Y-106635714D01*
X146921428Y-106621428D01*
X146950000Y-106592857D01*
X146964285Y-106564285D01*
X146978571Y-106507142D01*
X146978571Y-106464285D01*
X146964285Y-106407142D01*
X146950000Y-106378571D01*
X146921428Y-106350000D01*
X146878571Y-106335714D01*
X146850000Y-106335714D01*
X146807142Y-106350000D01*
X146792857Y-106364285D01*
X146692857Y-106335714D02*
X146507142Y-106335714D01*
X146607142Y-106450000D01*
X146564285Y-106450000D01*
X146535714Y-106464285D01*
X146521428Y-106478571D01*
X146507142Y-106507142D01*
X146507142Y-106578571D01*
X146521428Y-106607142D01*
X146535714Y-106621428D01*
X146564285Y-106635714D01*
X146650000Y-106635714D01*
X146678571Y-106621428D01*
X146692857Y-106607142D01*
X146221428Y-106635714D02*
X146392857Y-106635714D01*
X146307142Y-106635714D02*
X146307142Y-106335714D01*
X146335714Y-106378571D01*
X146364285Y-106407142D01*
X146392857Y-106421428D01*
D14*
X136151190Y-105755952D02*
X135651190Y-105755952D01*
X135651190Y-105875000D01*
X135675000Y-105946428D01*
X135722619Y-105994047D01*
X135770238Y-106017857D01*
X135865476Y-106041666D01*
X135936904Y-106041666D01*
X136032142Y-106017857D01*
X136079761Y-105994047D01*
X136127380Y-105946428D01*
X136151190Y-105875000D01*
X136151190Y-105755952D01*
X136151190Y-106517857D02*
X136151190Y-106232142D01*
X136151190Y-106375000D02*
X135651190Y-106375000D01*
X135722619Y-106327380D01*
X135770238Y-106279761D01*
X135794047Y-106232142D01*
D13*
X133878571Y-103250000D02*
X133878571Y-103150000D01*
X134035714Y-103150000D02*
X133735714Y-103150000D01*
X133735714Y-103292857D01*
X134035714Y-103564285D02*
X134035714Y-103392857D01*
X134035714Y-103478571D02*
X133735714Y-103478571D01*
X133778571Y-103450000D01*
X133807142Y-103421428D01*
X133821428Y-103392857D01*
D14*
X123272619Y-82848809D02*
X123320238Y-82825000D01*
X123367857Y-82777380D01*
X123439285Y-82705952D01*
X123486904Y-82682142D01*
X123534523Y-82682142D01*
X123510714Y-82801190D02*
X123558333Y-82777380D01*
X123605952Y-82729761D01*
X123629761Y-82634523D01*
X123629761Y-82467857D01*
X123605952Y-82372619D01*
X123558333Y-82325000D01*
X123510714Y-82301190D01*
X123415476Y-82301190D01*
X123367857Y-82325000D01*
X123320238Y-82372619D01*
X123296428Y-82467857D01*
X123296428Y-82634523D01*
X123320238Y-82729761D01*
X123367857Y-82777380D01*
X123415476Y-82801190D01*
X123510714Y-82801190D01*
X122820238Y-82801190D02*
X123105952Y-82801190D01*
X122963095Y-82801190D02*
X122963095Y-82301190D01*
X123010714Y-82372619D01*
X123058333Y-82420238D01*
X123105952Y-82444047D01*
X123322619Y-90948809D02*
X123370238Y-90925000D01*
X123417857Y-90877380D01*
X123489285Y-90805952D01*
X123536904Y-90782142D01*
X123584523Y-90782142D01*
X123560714Y-90901190D02*
X123608333Y-90877380D01*
X123655952Y-90829761D01*
X123679761Y-90734523D01*
X123679761Y-90567857D01*
X123655952Y-90472619D01*
X123608333Y-90425000D01*
X123560714Y-90401190D01*
X123465476Y-90401190D01*
X123417857Y-90425000D01*
X123370238Y-90472619D01*
X123346428Y-90567857D01*
X123346428Y-90734523D01*
X123370238Y-90829761D01*
X123417857Y-90877380D01*
X123465476Y-90901190D01*
X123560714Y-90901190D01*
X123155952Y-90448809D02*
X123132142Y-90425000D01*
X123084523Y-90401190D01*
X122965476Y-90401190D01*
X122917857Y-90425000D01*
X122894047Y-90448809D01*
X122870238Y-90496428D01*
X122870238Y-90544047D01*
X122894047Y-90615476D01*
X123179761Y-90901190D01*
X122870238Y-90901190D01*
D13*
X137650000Y-100785714D02*
X137750000Y-100642857D01*
X137821428Y-100785714D02*
X137821428Y-100485714D01*
X137707142Y-100485714D01*
X137678571Y-100500000D01*
X137664285Y-100514285D01*
X137650000Y-100542857D01*
X137650000Y-100585714D01*
X137664285Y-100614285D01*
X137678571Y-100628571D01*
X137707142Y-100642857D01*
X137821428Y-100642857D01*
X137364285Y-100785714D02*
X137535714Y-100785714D01*
X137450000Y-100785714D02*
X137450000Y-100485714D01*
X137478571Y-100528571D01*
X137507142Y-100557142D01*
X137535714Y-100571428D01*
X142860000Y-98695714D02*
X142960000Y-98552857D01*
X143031428Y-98695714D02*
X143031428Y-98395714D01*
X142917142Y-98395714D01*
X142888571Y-98410000D01*
X142874285Y-98424285D01*
X142860000Y-98452857D01*
X142860000Y-98495714D01*
X142874285Y-98524285D01*
X142888571Y-98538571D01*
X142917142Y-98552857D01*
X143031428Y-98552857D01*
X142745714Y-98424285D02*
X142731428Y-98410000D01*
X142702857Y-98395714D01*
X142631428Y-98395714D01*
X142602857Y-98410000D01*
X142588571Y-98424285D01*
X142574285Y-98452857D01*
X142574285Y-98481428D01*
X142588571Y-98524285D01*
X142760000Y-98695714D01*
X142574285Y-98695714D01*
X141910000Y-98685714D02*
X142010000Y-98542857D01*
X142081428Y-98685714D02*
X142081428Y-98385714D01*
X141967142Y-98385714D01*
X141938571Y-98400000D01*
X141924285Y-98414285D01*
X141910000Y-98442857D01*
X141910000Y-98485714D01*
X141924285Y-98514285D01*
X141938571Y-98528571D01*
X141967142Y-98542857D01*
X142081428Y-98542857D01*
X141810000Y-98385714D02*
X141624285Y-98385714D01*
X141724285Y-98500000D01*
X141681428Y-98500000D01*
X141652857Y-98514285D01*
X141638571Y-98528571D01*
X141624285Y-98557142D01*
X141624285Y-98628571D01*
X141638571Y-98657142D01*
X141652857Y-98671428D01*
X141681428Y-98685714D01*
X141767142Y-98685714D01*
X141795714Y-98671428D01*
X141810000Y-98657142D01*
X140790000Y-98685714D02*
X140890000Y-98542857D01*
X140961428Y-98685714D02*
X140961428Y-98385714D01*
X140847142Y-98385714D01*
X140818571Y-98400000D01*
X140804285Y-98414285D01*
X140790000Y-98442857D01*
X140790000Y-98485714D01*
X140804285Y-98514285D01*
X140818571Y-98528571D01*
X140847142Y-98542857D01*
X140961428Y-98542857D01*
X140690000Y-98385714D02*
X140490000Y-98385714D01*
X140618571Y-98685714D01*
X148100000Y-104860714D02*
X148200000Y-104717857D01*
X148271428Y-104860714D02*
X148271428Y-104560714D01*
X148157142Y-104560714D01*
X148128571Y-104575000D01*
X148114285Y-104589285D01*
X148100000Y-104617857D01*
X148100000Y-104660714D01*
X148114285Y-104689285D01*
X148128571Y-104703571D01*
X148157142Y-104717857D01*
X148271428Y-104717857D01*
X147957142Y-104860714D02*
X147900000Y-104860714D01*
X147871428Y-104846428D01*
X147857142Y-104832142D01*
X147828571Y-104789285D01*
X147814285Y-104732142D01*
X147814285Y-104617857D01*
X147828571Y-104589285D01*
X147842857Y-104575000D01*
X147871428Y-104560714D01*
X147928571Y-104560714D01*
X147957142Y-104575000D01*
X147971428Y-104589285D01*
X147985714Y-104617857D01*
X147985714Y-104689285D01*
X147971428Y-104717857D01*
X147957142Y-104732142D01*
X147928571Y-104746428D01*
X147871428Y-104746428D01*
X147842857Y-104732142D01*
X147828571Y-104717857D01*
X147814285Y-104689285D01*
X148102857Y-104125714D02*
X148202857Y-103982857D01*
X148274285Y-104125714D02*
X148274285Y-103825714D01*
X148160000Y-103825714D01*
X148131428Y-103840000D01*
X148117142Y-103854285D01*
X148102857Y-103882857D01*
X148102857Y-103925714D01*
X148117142Y-103954285D01*
X148131428Y-103968571D01*
X148160000Y-103982857D01*
X148274285Y-103982857D01*
X147817142Y-104125714D02*
X147988571Y-104125714D01*
X147902857Y-104125714D02*
X147902857Y-103825714D01*
X147931428Y-103868571D01*
X147960000Y-103897142D01*
X147988571Y-103911428D01*
X147631428Y-103825714D02*
X147602857Y-103825714D01*
X147574285Y-103840000D01*
X147560000Y-103854285D01*
X147545714Y-103882857D01*
X147531428Y-103940000D01*
X147531428Y-104011428D01*
X147545714Y-104068571D01*
X147560000Y-104097142D01*
X147574285Y-104111428D01*
X147602857Y-104125714D01*
X147631428Y-104125714D01*
X147660000Y-104111428D01*
X147674285Y-104097142D01*
X147688571Y-104068571D01*
X147702857Y-104011428D01*
X147702857Y-103940000D01*
X147688571Y-103882857D01*
X147674285Y-103854285D01*
X147660000Y-103840000D01*
X147631428Y-103825714D01*
X147542857Y-98685714D02*
X147642857Y-98542857D01*
X147714285Y-98685714D02*
X147714285Y-98385714D01*
X147600000Y-98385714D01*
X147571428Y-98400000D01*
X147557142Y-98414285D01*
X147542857Y-98442857D01*
X147542857Y-98485714D01*
X147557142Y-98514285D01*
X147571428Y-98528571D01*
X147600000Y-98542857D01*
X147714285Y-98542857D01*
X147257142Y-98685714D02*
X147428571Y-98685714D01*
X147342857Y-98685714D02*
X147342857Y-98385714D01*
X147371428Y-98428571D01*
X147400000Y-98457142D01*
X147428571Y-98471428D01*
X146971428Y-98685714D02*
X147142857Y-98685714D01*
X147057142Y-98685714D02*
X147057142Y-98385714D01*
X147085714Y-98428571D01*
X147114285Y-98457142D01*
X147142857Y-98471428D01*
X146467857Y-98685714D02*
X146567857Y-98542857D01*
X146639285Y-98685714D02*
X146639285Y-98385714D01*
X146525000Y-98385714D01*
X146496428Y-98400000D01*
X146482142Y-98414285D01*
X146467857Y-98442857D01*
X146467857Y-98485714D01*
X146482142Y-98514285D01*
X146496428Y-98528571D01*
X146525000Y-98542857D01*
X146639285Y-98542857D01*
X146182142Y-98685714D02*
X146353571Y-98685714D01*
X146267857Y-98685714D02*
X146267857Y-98385714D01*
X146296428Y-98428571D01*
X146325000Y-98457142D01*
X146353571Y-98471428D01*
X146067857Y-98414285D02*
X146053571Y-98400000D01*
X146025000Y-98385714D01*
X145953571Y-98385714D01*
X145925000Y-98400000D01*
X145910714Y-98414285D01*
X145896428Y-98442857D01*
X145896428Y-98471428D01*
X145910714Y-98514285D01*
X146082142Y-98685714D01*
X145896428Y-98685714D01*
X145342857Y-98685714D02*
X145442857Y-98542857D01*
X145514285Y-98685714D02*
X145514285Y-98385714D01*
X145400000Y-98385714D01*
X145371428Y-98400000D01*
X145357142Y-98414285D01*
X145342857Y-98442857D01*
X145342857Y-98485714D01*
X145357142Y-98514285D01*
X145371428Y-98528571D01*
X145400000Y-98542857D01*
X145514285Y-98542857D01*
X145057142Y-98685714D02*
X145228571Y-98685714D01*
X145142857Y-98685714D02*
X145142857Y-98385714D01*
X145171428Y-98428571D01*
X145200000Y-98457142D01*
X145228571Y-98471428D01*
X144957142Y-98385714D02*
X144771428Y-98385714D01*
X144871428Y-98500000D01*
X144828571Y-98500000D01*
X144800000Y-98514285D01*
X144785714Y-98528571D01*
X144771428Y-98557142D01*
X144771428Y-98628571D01*
X144785714Y-98657142D01*
X144800000Y-98671428D01*
X144828571Y-98685714D01*
X144914285Y-98685714D01*
X144942857Y-98671428D01*
X144957142Y-98657142D01*
X144342857Y-98705714D02*
X144442857Y-98562857D01*
X144514285Y-98705714D02*
X144514285Y-98405714D01*
X144400000Y-98405714D01*
X144371428Y-98420000D01*
X144357142Y-98434285D01*
X144342857Y-98462857D01*
X144342857Y-98505714D01*
X144357142Y-98534285D01*
X144371428Y-98548571D01*
X144400000Y-98562857D01*
X144514285Y-98562857D01*
X144057142Y-98705714D02*
X144228571Y-98705714D01*
X144142857Y-98705714D02*
X144142857Y-98405714D01*
X144171428Y-98448571D01*
X144200000Y-98477142D01*
X144228571Y-98491428D01*
X143800000Y-98505714D02*
X143800000Y-98705714D01*
X143871428Y-98391428D02*
X143942857Y-98605714D01*
X143757142Y-98605714D01*
X148082857Y-102825714D02*
X148182857Y-102682857D01*
X148254285Y-102825714D02*
X148254285Y-102525714D01*
X148140000Y-102525714D01*
X148111428Y-102540000D01*
X148097142Y-102554285D01*
X148082857Y-102582857D01*
X148082857Y-102625714D01*
X148097142Y-102654285D01*
X148111428Y-102668571D01*
X148140000Y-102682857D01*
X148254285Y-102682857D01*
X147797142Y-102825714D02*
X147968571Y-102825714D01*
X147882857Y-102825714D02*
X147882857Y-102525714D01*
X147911428Y-102568571D01*
X147940000Y-102597142D01*
X147968571Y-102611428D01*
X147525714Y-102525714D02*
X147668571Y-102525714D01*
X147682857Y-102668571D01*
X147668571Y-102654285D01*
X147640000Y-102640000D01*
X147568571Y-102640000D01*
X147540000Y-102654285D01*
X147525714Y-102668571D01*
X147511428Y-102697142D01*
X147511428Y-102768571D01*
X147525714Y-102797142D01*
X147540000Y-102811428D01*
X147568571Y-102825714D01*
X147640000Y-102825714D01*
X147668571Y-102811428D01*
X147682857Y-102797142D01*
X133142857Y-95495714D02*
X133242857Y-95352857D01*
X133314285Y-95495714D02*
X133314285Y-95195714D01*
X133200000Y-95195714D01*
X133171428Y-95210000D01*
X133157142Y-95224285D01*
X133142857Y-95252857D01*
X133142857Y-95295714D01*
X133157142Y-95324285D01*
X133171428Y-95338571D01*
X133200000Y-95352857D01*
X133314285Y-95352857D01*
X132857142Y-95495714D02*
X133028571Y-95495714D01*
X132942857Y-95495714D02*
X132942857Y-95195714D01*
X132971428Y-95238571D01*
X133000000Y-95267142D01*
X133028571Y-95281428D01*
X132600000Y-95195714D02*
X132657142Y-95195714D01*
X132685714Y-95210000D01*
X132700000Y-95224285D01*
X132728571Y-95267142D01*
X132742857Y-95324285D01*
X132742857Y-95438571D01*
X132728571Y-95467142D01*
X132714285Y-95481428D01*
X132685714Y-95495714D01*
X132628571Y-95495714D01*
X132600000Y-95481428D01*
X132585714Y-95467142D01*
X132571428Y-95438571D01*
X132571428Y-95367142D01*
X132585714Y-95338571D01*
X132600000Y-95324285D01*
X132628571Y-95310000D01*
X132685714Y-95310000D01*
X132714285Y-95324285D01*
X132728571Y-95338571D01*
X132742857Y-95367142D01*
X133132857Y-94175714D02*
X133232857Y-94032857D01*
X133304285Y-94175714D02*
X133304285Y-93875714D01*
X133190000Y-93875714D01*
X133161428Y-93890000D01*
X133147142Y-93904285D01*
X133132857Y-93932857D01*
X133132857Y-93975714D01*
X133147142Y-94004285D01*
X133161428Y-94018571D01*
X133190000Y-94032857D01*
X133304285Y-94032857D01*
X132847142Y-94175714D02*
X133018571Y-94175714D01*
X132932857Y-94175714D02*
X132932857Y-93875714D01*
X132961428Y-93918571D01*
X132990000Y-93947142D01*
X133018571Y-93961428D01*
X132747142Y-93875714D02*
X132547142Y-93875714D01*
X132675714Y-94175714D01*
X150412857Y-105799714D02*
X150512857Y-105656857D01*
X150584285Y-105799714D02*
X150584285Y-105499714D01*
X150470000Y-105499714D01*
X150441428Y-105514000D01*
X150427142Y-105528285D01*
X150412857Y-105556857D01*
X150412857Y-105599714D01*
X150427142Y-105628285D01*
X150441428Y-105642571D01*
X150470000Y-105656857D01*
X150584285Y-105656857D01*
X150298571Y-105528285D02*
X150284285Y-105514000D01*
X150255714Y-105499714D01*
X150184285Y-105499714D01*
X150155714Y-105514000D01*
X150141428Y-105528285D01*
X150127142Y-105556857D01*
X150127142Y-105585428D01*
X150141428Y-105628285D01*
X150312857Y-105799714D01*
X150127142Y-105799714D01*
X149841428Y-105799714D02*
X150012857Y-105799714D01*
X149927142Y-105799714D02*
X149927142Y-105499714D01*
X149955714Y-105542571D01*
X149984285Y-105571142D01*
X150012857Y-105585428D01*
X145242857Y-106635714D02*
X145342857Y-106492857D01*
X145414285Y-106635714D02*
X145414285Y-106335714D01*
X145300000Y-106335714D01*
X145271428Y-106350000D01*
X145257142Y-106364285D01*
X145242857Y-106392857D01*
X145242857Y-106435714D01*
X145257142Y-106464285D01*
X145271428Y-106478571D01*
X145300000Y-106492857D01*
X145414285Y-106492857D01*
X145128571Y-106364285D02*
X145114285Y-106350000D01*
X145085714Y-106335714D01*
X145014285Y-106335714D01*
X144985714Y-106350000D01*
X144971428Y-106364285D01*
X144957142Y-106392857D01*
X144957142Y-106421428D01*
X144971428Y-106464285D01*
X145142857Y-106635714D01*
X144957142Y-106635714D01*
X144842857Y-106364285D02*
X144828571Y-106350000D01*
X144800000Y-106335714D01*
X144728571Y-106335714D01*
X144700000Y-106350000D01*
X144685714Y-106364285D01*
X144671428Y-106392857D01*
X144671428Y-106421428D01*
X144685714Y-106464285D01*
X144857142Y-106635714D01*
X144671428Y-106635714D01*
X129142857Y-82335714D02*
X129242857Y-82192857D01*
X129314285Y-82335714D02*
X129314285Y-82035714D01*
X129200000Y-82035714D01*
X129171428Y-82050000D01*
X129157142Y-82064285D01*
X129142857Y-82092857D01*
X129142857Y-82135714D01*
X129157142Y-82164285D01*
X129171428Y-82178571D01*
X129200000Y-82192857D01*
X129314285Y-82192857D01*
X129028571Y-82064285D02*
X129014285Y-82050000D01*
X128985714Y-82035714D01*
X128914285Y-82035714D01*
X128885714Y-82050000D01*
X128871428Y-82064285D01*
X128857142Y-82092857D01*
X128857142Y-82121428D01*
X128871428Y-82164285D01*
X129042857Y-82335714D01*
X128857142Y-82335714D01*
X128757142Y-82035714D02*
X128557142Y-82035714D01*
X128685714Y-82335714D01*
X127542857Y-91135714D02*
X127642857Y-90992857D01*
X127714285Y-91135714D02*
X127714285Y-90835714D01*
X127600000Y-90835714D01*
X127571428Y-90850000D01*
X127557142Y-90864285D01*
X127542857Y-90892857D01*
X127542857Y-90935714D01*
X127557142Y-90964285D01*
X127571428Y-90978571D01*
X127600000Y-90992857D01*
X127714285Y-90992857D01*
X127428571Y-90864285D02*
X127414285Y-90850000D01*
X127385714Y-90835714D01*
X127314285Y-90835714D01*
X127285714Y-90850000D01*
X127271428Y-90864285D01*
X127257142Y-90892857D01*
X127257142Y-90921428D01*
X127271428Y-90964285D01*
X127442857Y-91135714D01*
X127257142Y-91135714D01*
X127085714Y-90964285D02*
X127114285Y-90950000D01*
X127128571Y-90935714D01*
X127142857Y-90907142D01*
X127142857Y-90892857D01*
X127128571Y-90864285D01*
X127114285Y-90850000D01*
X127085714Y-90835714D01*
X127028571Y-90835714D01*
X127000000Y-90850000D01*
X126985714Y-90864285D01*
X126971428Y-90892857D01*
X126971428Y-90907142D01*
X126985714Y-90935714D01*
X127000000Y-90950000D01*
X127028571Y-90964285D01*
X127085714Y-90964285D01*
X127114285Y-90978571D01*
X127128571Y-90992857D01*
X127142857Y-91021428D01*
X127142857Y-91078571D01*
X127128571Y-91107142D01*
X127114285Y-91121428D01*
X127085714Y-91135714D01*
X127028571Y-91135714D01*
X127000000Y-91121428D01*
X126985714Y-91107142D01*
X126971428Y-91078571D01*
X126971428Y-91021428D01*
X126985714Y-90992857D01*
X127000000Y-90978571D01*
X127028571Y-90964285D01*
X129142857Y-81085714D02*
X129242857Y-80942857D01*
X129314285Y-81085714D02*
X129314285Y-80785714D01*
X129200000Y-80785714D01*
X129171428Y-80800000D01*
X129157142Y-80814285D01*
X129142857Y-80842857D01*
X129142857Y-80885714D01*
X129157142Y-80914285D01*
X129171428Y-80928571D01*
X129200000Y-80942857D01*
X129314285Y-80942857D01*
X129042857Y-80785714D02*
X128857142Y-80785714D01*
X128957142Y-80900000D01*
X128914285Y-80900000D01*
X128885714Y-80914285D01*
X128871428Y-80928571D01*
X128857142Y-80957142D01*
X128857142Y-81028571D01*
X128871428Y-81057142D01*
X128885714Y-81071428D01*
X128914285Y-81085714D01*
X129000000Y-81085714D01*
X129028571Y-81071428D01*
X129042857Y-81057142D01*
X128571428Y-81085714D02*
X128742857Y-81085714D01*
X128657142Y-81085714D02*
X128657142Y-80785714D01*
X128685714Y-80828571D01*
X128714285Y-80857142D01*
X128742857Y-80871428D01*
X128967857Y-89560714D02*
X129067857Y-89417857D01*
X129139285Y-89560714D02*
X129139285Y-89260714D01*
X129025000Y-89260714D01*
X128996428Y-89275000D01*
X128982142Y-89289285D01*
X128967857Y-89317857D01*
X128967857Y-89360714D01*
X128982142Y-89389285D01*
X128996428Y-89403571D01*
X129025000Y-89417857D01*
X129139285Y-89417857D01*
X128867857Y-89260714D02*
X128682142Y-89260714D01*
X128782142Y-89375000D01*
X128739285Y-89375000D01*
X128710714Y-89389285D01*
X128696428Y-89403571D01*
X128682142Y-89432142D01*
X128682142Y-89503571D01*
X128696428Y-89532142D01*
X128710714Y-89546428D01*
X128739285Y-89560714D01*
X128825000Y-89560714D01*
X128853571Y-89546428D01*
X128867857Y-89532142D01*
X128567857Y-89289285D02*
X128553571Y-89275000D01*
X128525000Y-89260714D01*
X128453571Y-89260714D01*
X128425000Y-89275000D01*
X128410714Y-89289285D01*
X128396428Y-89317857D01*
X128396428Y-89346428D01*
X128410714Y-89389285D01*
X128582142Y-89560714D01*
X128396428Y-89560714D01*
X129142857Y-79785714D02*
X129242857Y-79642857D01*
X129314285Y-79785714D02*
X129314285Y-79485714D01*
X129200000Y-79485714D01*
X129171428Y-79500000D01*
X129157142Y-79514285D01*
X129142857Y-79542857D01*
X129142857Y-79585714D01*
X129157142Y-79614285D01*
X129171428Y-79628571D01*
X129200000Y-79642857D01*
X129314285Y-79642857D01*
X129042857Y-79485714D02*
X128857142Y-79485714D01*
X128957142Y-79600000D01*
X128914285Y-79600000D01*
X128885714Y-79614285D01*
X128871428Y-79628571D01*
X128857142Y-79657142D01*
X128857142Y-79728571D01*
X128871428Y-79757142D01*
X128885714Y-79771428D01*
X128914285Y-79785714D01*
X129000000Y-79785714D01*
X129028571Y-79771428D01*
X129042857Y-79757142D01*
X128757142Y-79485714D02*
X128571428Y-79485714D01*
X128671428Y-79600000D01*
X128628571Y-79600000D01*
X128600000Y-79614285D01*
X128585714Y-79628571D01*
X128571428Y-79657142D01*
X128571428Y-79728571D01*
X128585714Y-79757142D01*
X128600000Y-79771428D01*
X128628571Y-79785714D01*
X128714285Y-79785714D01*
X128742857Y-79771428D01*
X128757142Y-79757142D01*
X128967857Y-87795714D02*
X129067857Y-87652857D01*
X129139285Y-87795714D02*
X129139285Y-87495714D01*
X129025000Y-87495714D01*
X128996428Y-87510000D01*
X128982142Y-87524285D01*
X128967857Y-87552857D01*
X128967857Y-87595714D01*
X128982142Y-87624285D01*
X128996428Y-87638571D01*
X129025000Y-87652857D01*
X129139285Y-87652857D01*
X128867857Y-87495714D02*
X128682142Y-87495714D01*
X128782142Y-87610000D01*
X128739285Y-87610000D01*
X128710714Y-87624285D01*
X128696428Y-87638571D01*
X128682142Y-87667142D01*
X128682142Y-87738571D01*
X128696428Y-87767142D01*
X128710714Y-87781428D01*
X128739285Y-87795714D01*
X128825000Y-87795714D01*
X128853571Y-87781428D01*
X128867857Y-87767142D01*
X128425000Y-87595714D02*
X128425000Y-87795714D01*
X128496428Y-87481428D02*
X128567857Y-87695714D01*
X128382142Y-87695714D01*
X147480000Y-111661428D02*
X147437142Y-111675714D01*
X147365714Y-111675714D01*
X147337142Y-111661428D01*
X147322857Y-111647142D01*
X147308571Y-111618571D01*
X147308571Y-111590000D01*
X147322857Y-111561428D01*
X147337142Y-111547142D01*
X147365714Y-111532857D01*
X147422857Y-111518571D01*
X147451428Y-111504285D01*
X147465714Y-111490000D01*
X147480000Y-111461428D01*
X147480000Y-111432857D01*
X147465714Y-111404285D01*
X147451428Y-111390000D01*
X147422857Y-111375714D01*
X147351428Y-111375714D01*
X147308571Y-111390000D01*
X147208571Y-111375714D02*
X147137142Y-111675714D01*
X147080000Y-111461428D01*
X147022857Y-111675714D01*
X146951428Y-111375714D01*
X146680000Y-111675714D02*
X146851428Y-111675714D01*
X146765714Y-111675714D02*
X146765714Y-111375714D01*
X146794285Y-111418571D01*
X146822857Y-111447142D01*
X146851428Y-111461428D01*
X152400000Y-111641428D02*
X152357142Y-111655714D01*
X152285714Y-111655714D01*
X152257142Y-111641428D01*
X152242857Y-111627142D01*
X152228571Y-111598571D01*
X152228571Y-111570000D01*
X152242857Y-111541428D01*
X152257142Y-111527142D01*
X152285714Y-111512857D01*
X152342857Y-111498571D01*
X152371428Y-111484285D01*
X152385714Y-111470000D01*
X152400000Y-111441428D01*
X152400000Y-111412857D01*
X152385714Y-111384285D01*
X152371428Y-111370000D01*
X152342857Y-111355714D01*
X152271428Y-111355714D01*
X152228571Y-111370000D01*
X152128571Y-111355714D02*
X152057142Y-111655714D01*
X152000000Y-111441428D01*
X151942857Y-111655714D01*
X151871428Y-111355714D01*
X151771428Y-111384285D02*
X151757142Y-111370000D01*
X151728571Y-111355714D01*
X151657142Y-111355714D01*
X151628571Y-111370000D01*
X151614285Y-111384285D01*
X151600000Y-111412857D01*
X151600000Y-111441428D01*
X151614285Y-111484285D01*
X151785714Y-111655714D01*
X151600000Y-111655714D01*
X147888571Y-101215714D02*
X147888571Y-101458571D01*
X147874285Y-101487142D01*
X147860000Y-101501428D01*
X147831428Y-101515714D01*
X147774285Y-101515714D01*
X147745714Y-101501428D01*
X147731428Y-101487142D01*
X147717142Y-101458571D01*
X147717142Y-101215714D01*
X147417142Y-101515714D02*
X147588571Y-101515714D01*
X147502857Y-101515714D02*
X147502857Y-101215714D01*
X147531428Y-101258571D01*
X147560000Y-101287142D01*
X147588571Y-101301428D01*
D10*
X140380952Y-93176190D02*
X140380952Y-93580952D01*
X140357142Y-93628571D01*
X140333333Y-93652380D01*
X140285714Y-93676190D01*
X140190476Y-93676190D01*
X140142857Y-93652380D01*
X140119047Y-93628571D01*
X140095238Y-93580952D01*
X140095238Y-93176190D01*
X139642857Y-93176190D02*
X139738095Y-93176190D01*
X139785714Y-93200000D01*
X139809523Y-93223809D01*
X139857142Y-93295238D01*
X139880952Y-93390476D01*
X139880952Y-93580952D01*
X139857142Y-93628571D01*
X139833333Y-93652380D01*
X139785714Y-93676190D01*
X139690476Y-93676190D01*
X139642857Y-93652380D01*
X139619047Y-93628571D01*
X139595238Y-93580952D01*
X139595238Y-93461904D01*
X139619047Y-93414285D01*
X139642857Y-93390476D01*
X139690476Y-93366666D01*
X139785714Y-93366666D01*
X139833333Y-93390476D01*
X139857142Y-93414285D01*
X139880952Y-93461904D01*
D13*
X151441428Y-107135714D02*
X151441428Y-107378571D01*
X151427142Y-107407142D01*
X151412857Y-107421428D01*
X151384285Y-107435714D01*
X151327142Y-107435714D01*
X151298571Y-107421428D01*
X151284285Y-107407142D01*
X151270000Y-107378571D01*
X151270000Y-107135714D01*
X150970000Y-107435714D02*
X151141428Y-107435714D01*
X151055714Y-107435714D02*
X151055714Y-107135714D01*
X151084285Y-107178571D01*
X151112857Y-107207142D01*
X151141428Y-107221428D01*
X150684285Y-107435714D02*
X150855714Y-107435714D01*
X150770000Y-107435714D02*
X150770000Y-107135714D01*
X150798571Y-107178571D01*
X150827142Y-107207142D01*
X150855714Y-107221428D01*
D10*
X146826190Y-82076190D02*
X146826190Y-81576190D01*
X146659523Y-81933333D01*
X146492857Y-81576190D01*
X146492857Y-82076190D01*
X146254761Y-82076190D02*
X146254761Y-81576190D01*
X145730952Y-82028571D02*
X145754761Y-82052380D01*
X145826190Y-82076190D01*
X145873809Y-82076190D01*
X145945238Y-82052380D01*
X145992857Y-82004761D01*
X146016666Y-81957142D01*
X146040476Y-81861904D01*
X146040476Y-81790476D01*
X146016666Y-81695238D01*
X145992857Y-81647619D01*
X145945238Y-81600000D01*
X145873809Y-81576190D01*
X145826190Y-81576190D01*
X145754761Y-81600000D01*
X145730952Y-81623809D01*
X145230952Y-82076190D02*
X145397619Y-81838095D01*
X145516666Y-82076190D02*
X145516666Y-81576190D01*
X145326190Y-81576190D01*
X145278571Y-81600000D01*
X145254761Y-81623809D01*
X145230952Y-81671428D01*
X145230952Y-81742857D01*
X145254761Y-81790476D01*
X145278571Y-81814285D01*
X145326190Y-81838095D01*
X145516666Y-81838095D01*
X144921428Y-81576190D02*
X144826190Y-81576190D01*
X144778571Y-81600000D01*
X144730952Y-81647619D01*
X144707142Y-81742857D01*
X144707142Y-81909523D01*
X144730952Y-82004761D01*
X144778571Y-82052380D01*
X144826190Y-82076190D01*
X144921428Y-82076190D01*
X144969047Y-82052380D01*
X145016666Y-82004761D01*
X145040476Y-81909523D01*
X145040476Y-81742857D01*
X145016666Y-81647619D01*
X144969047Y-81600000D01*
X144921428Y-81576190D01*
X144611904Y-82123809D02*
X144230952Y-82123809D01*
X144135714Y-82052380D02*
X144064285Y-82076190D01*
X143945238Y-82076190D01*
X143897619Y-82052380D01*
X143873809Y-82028571D01*
X143850000Y-81980952D01*
X143850000Y-81933333D01*
X143873809Y-81885714D01*
X143897619Y-81861904D01*
X143945238Y-81838095D01*
X144040476Y-81814285D01*
X144088095Y-81790476D01*
X144111904Y-81766666D01*
X144135714Y-81719047D01*
X144135714Y-81671428D01*
X144111904Y-81623809D01*
X144088095Y-81600000D01*
X144040476Y-81576190D01*
X143921428Y-81576190D01*
X143850000Y-81600000D01*
X143635714Y-82076190D02*
X143635714Y-81576190D01*
X143516666Y-81576190D01*
X143445238Y-81600000D01*
X143397619Y-81647619D01*
X143373809Y-81695238D01*
X143350000Y-81790476D01*
X143350000Y-81861904D01*
X143373809Y-81957142D01*
X143397619Y-82004761D01*
X143445238Y-82052380D01*
X143516666Y-82076190D01*
X143635714Y-82076190D01*
D13*
X135400000Y-80457142D02*
X135414285Y-80471428D01*
X135457142Y-80485714D01*
X135485714Y-80485714D01*
X135528571Y-80471428D01*
X135557142Y-80442857D01*
X135571428Y-80414285D01*
X135585714Y-80357142D01*
X135585714Y-80314285D01*
X135571428Y-80257142D01*
X135557142Y-80228571D01*
X135528571Y-80200000D01*
X135485714Y-80185714D01*
X135457142Y-80185714D01*
X135414285Y-80200000D01*
X135400000Y-80214285D01*
X135142857Y-80185714D02*
X135200000Y-80185714D01*
X135228571Y-80200000D01*
X135242857Y-80214285D01*
X135271428Y-80257142D01*
X135285714Y-80314285D01*
X135285714Y-80428571D01*
X135271428Y-80457142D01*
X135257142Y-80471428D01*
X135228571Y-80485714D01*
X135171428Y-80485714D01*
X135142857Y-80471428D01*
X135128571Y-80457142D01*
X135114285Y-80428571D01*
X135114285Y-80357142D01*
X135128571Y-80328571D01*
X135142857Y-80314285D01*
X135171428Y-80300000D01*
X135228571Y-80300000D01*
X135257142Y-80314285D01*
X135271428Y-80328571D01*
X135285714Y-80357142D01*
M02*
