M48
;DRILL file {KiCad 4.1.0-alpha+201607160317+6981~46~ubuntu14.04.1-product} date Fri Jul 22 01:02:09 2016
;FORMAT={-:-/ absolute / metric / decimal}
FMAT,2
METRIC,TZ
T1C0.400
T2C0.500
T3C0.800
%
G90
G05
M71
T1
X120.22Y-109.25
X120.24Y-101.02
X120.25Y-107.651
X120.38Y-113.88
X120.718Y-81.482
X120.73Y-80.56
X120.94Y-99.2
X121.Y-75.6
X121.81Y-100.19
X121.85Y-88.58
X121.85Y-91.26
X121.94Y-96.86
X121.941Y-94.239
X122.48Y-79.068
X123.775Y-83.325
X124.651Y-77.154
X124.7Y-91.275
X124.7Y-97.2
X124.72Y-109.25
X124.75Y-107.652
X124.77Y-101.03
X125.45Y-99.14
X126.255Y-78.402
X126.42Y-77.66
X126.59Y-93.04
X126.7Y-86.74
X127.02Y-102.42
X127.35Y-93.04
X127.6Y-86.75
X127.65Y-78.81
X128.82Y-90.13
X128.85Y-88.86
X129.19Y-95.79
X129.22Y-109.25
X129.25Y-91.51
X129.25Y-107.652
X129.26Y-101.02
X129.29Y-79.81
X129.51Y-88.33
X129.68Y-82.2
X129.94Y-94.64
X129.95Y-98.3
X130.34Y-91.09
X130.44Y-113.595
X130.74Y-83.97
X131.2Y-91.13
X131.342Y-98.958
X131.705Y-107.809
X131.71Y-108.68
X132.2Y-91.11
X132.29Y-105.04
X132.577Y-103.4
X132.98Y-105.68
X133.12Y-91.25
X133.13Y-76.68
X133.21Y-94.68
X133.36Y-104.49
X133.687Y-97.512
X133.7Y-112.57
X133.702Y-113.512
X134.16Y-78.2
X134.28Y-106.245
X134.37Y-93.3
X134.6Y-108.225
X135.588Y-102.059
X136.027Y-96.213
X136.092Y-98.258
X136.293Y-100.34
X136.59Y-102.597
X136.787Y-96.213
X136.85Y-98.21
X137.Y-93.13
X137.542Y-96.12
X137.608Y-98.16
X138.407Y-96.136
X138.58Y-97.62
X138.581Y-89.555
X138.71Y-102.45
X138.71Y-104.957
X138.71Y-105.717
X138.755Y-106.505
X138.825Y-107.262
X139.1Y-110.37
X139.11Y-111.14
X139.3Y-85.91
X139.414Y-101.139
X139.487Y-96.29
X139.66Y-88.5
X139.66Y-89.26
X140.02Y-113.35
X140.23Y-95.99
X140.78Y-93.03
X140.8Y-92.18
X140.906Y-94.516
X141.01Y-90.7
X141.059Y-95.925
X141.146Y-102.846
X141.221Y-98.953
X141.31Y-87.1
X141.5Y-110.149
X141.7Y-105.8
X141.8Y-106.59
X141.83Y-103.42
X142.139Y-96.17
X142.176Y-95.4
X142.28Y-110.19
X142.33Y-100.67
X142.362Y-107.254
X142.38Y-99.39
X142.38Y-101.76
X142.43Y-91.15
X142.44Y-88.95
X142.44Y-89.76
X142.752Y-94.422
X142.8Y-111.3
X143.112Y-95.55
X143.53Y-111.089
X143.56Y-98.53
X143.793Y-96.431
X143.81Y-107.13
X144.51Y-103.36
X144.65Y-111.438
X144.95Y-96.127
X144.98Y-110.707
X145.041Y-95.373
X145.043Y-113.516
X145.41Y-89.53
X145.88Y-106.47
X146.09Y-112.9
X146.411Y-95.908
X146.43Y-105.37
X146.48Y-100.06
X146.542Y-94.406
X146.979Y-105.896
X147.02Y-101.46
X147.097Y-96.236
X147.2Y-112.19
X147.68Y-89.56
X147.687Y-100.85
X147.727Y-101.93
X147.79Y-103.41
X147.868Y-106.53
X148.Y-110.4
X148.052Y-95.632
X148.06Y-94.81
X148.355Y-98.621
X149.34Y-94.83
X149.46Y-98.24
X149.47Y-96.05
X150.204Y-104.728
X150.39Y-103.16
X150.409Y-106.397
X150.427Y-103.934
X150.7Y-101.06
X150.81Y-97.12
X150.982Y-108.46
X151.01Y-104.55
X151.09Y-95.69
X151.14Y-105.42
X152.438Y-109.752
X153.923Y-101.217
X153.96Y-104.9
X154.21Y-99.75
X154.53Y-91.25
X155.31Y-95.23
X155.31Y-110.96
X155.38Y-113.91
X156.09Y-84.41
T3
X121.9Y-113.
X123.9Y-113.
T2
X155.85Y-99.725G85X155.15Y-99.725
G05
X155.85Y-106.325G85X155.15Y-106.325
G05
T0
M30
