G04 #@! TF.FileFunction,Legend,Top*
%FSLAX46Y46*%
G04 Gerber Fmt 4.6, Leading zero omitted, Abs format (unit mm)*
G04 Created by KiCad (PCBNEW 4.1.0-alpha+201607160317+6981~46~ubuntu14.04.1-product) date Fri Jul 22 01:01:49 2016*
%MOMM*%
%LPD*%
G01*
G04 APERTURE LIST*
%ADD10C,0.100000*%
%ADD11C,0.250000*%
%ADD12C,0.150000*%
%ADD13C,0.050000*%
%ADD14C,0.125000*%
%ADD15C,0.075000*%
G04 APERTURE END LIST*
D10*
D11*
X132290000Y-98600000D02*
X132280000Y-98600000D01*
X153810000Y-106840000D02*
X153800000Y-106840000D01*
D12*
X151985000Y-110550000D02*
X151985000Y-110050000D01*
X149715000Y-110550000D02*
X149715000Y-110050000D01*
X138650000Y-99450000D02*
X138660000Y-99450000D01*
D11*
X129741000Y-78435000D02*
X129868000Y-78435000D01*
X134970000Y-111200000D02*
X134350000Y-111200000D01*
X134970000Y-108100000D02*
X134350000Y-108100000D01*
X134360000Y-108700000D02*
X134350000Y-108700000D01*
D12*
X118625000Y-104300000D02*
X118625000Y-106400000D01*
X121875000Y-103525000D02*
X121875000Y-106400000D01*
X127630000Y-104285000D02*
X127630000Y-106385000D01*
X130880000Y-103510000D02*
X130880000Y-106385000D01*
X123170000Y-104300000D02*
X123170000Y-106400000D01*
X126420000Y-103525000D02*
X126420000Y-106400000D01*
X156200000Y-76475000D02*
X156700000Y-76475000D01*
X118100000Y-76425000D02*
X118600000Y-76425000D01*
X156200000Y-113225700D02*
X156700000Y-113225700D01*
X138374300Y-112000000D02*
X138374300Y-112500000D01*
X118100000Y-113225700D02*
X118600000Y-113225700D01*
X152850000Y-113275000D02*
X153350000Y-113275000D01*
X149850000Y-113274300D02*
X150350000Y-113274300D01*
X148350000Y-113275000D02*
X148850000Y-113275000D01*
X151350000Y-113275000D02*
X151850000Y-113275000D01*
D10*
X131466190Y-101204761D02*
X131966190Y-100871428D01*
X131466190Y-100871428D02*
X131966190Y-101204761D01*
X131966190Y-100419047D02*
X131966190Y-100704761D01*
X131966190Y-100561904D02*
X131466190Y-100561904D01*
X131537619Y-100609523D01*
X131585238Y-100657142D01*
X131609047Y-100704761D01*
D13*
X136037142Y-97400000D02*
X136051428Y-97414285D01*
X136065714Y-97457142D01*
X136065714Y-97485714D01*
X136051428Y-97528571D01*
X136022857Y-97557142D01*
X135994285Y-97571428D01*
X135937142Y-97585714D01*
X135894285Y-97585714D01*
X135837142Y-97571428D01*
X135808571Y-97557142D01*
X135780000Y-97528571D01*
X135765714Y-97485714D01*
X135765714Y-97457142D01*
X135780000Y-97414285D01*
X135794285Y-97400000D01*
X135794285Y-97285714D02*
X135780000Y-97271428D01*
X135765714Y-97242857D01*
X135765714Y-97171428D01*
X135780000Y-97142857D01*
X135794285Y-97128571D01*
X135822857Y-97114285D01*
X135851428Y-97114285D01*
X135894285Y-97128571D01*
X136065714Y-97300000D01*
X136065714Y-97114285D01*
X140350000Y-111407142D02*
X140335714Y-111421428D01*
X140292857Y-111435714D01*
X140264285Y-111435714D01*
X140221428Y-111421428D01*
X140192857Y-111392857D01*
X140178571Y-111364285D01*
X140164285Y-111307142D01*
X140164285Y-111264285D01*
X140178571Y-111207142D01*
X140192857Y-111178571D01*
X140221428Y-111150000D01*
X140264285Y-111135714D01*
X140292857Y-111135714D01*
X140335714Y-111150000D01*
X140350000Y-111164285D01*
X140450000Y-111135714D02*
X140635714Y-111135714D01*
X140535714Y-111250000D01*
X140578571Y-111250000D01*
X140607142Y-111264285D01*
X140621428Y-111278571D01*
X140635714Y-111307142D01*
X140635714Y-111378571D01*
X140621428Y-111407142D01*
X140607142Y-111421428D01*
X140578571Y-111435714D01*
X140492857Y-111435714D01*
X140464285Y-111421428D01*
X140450000Y-111407142D01*
X147950000Y-111057142D02*
X147935714Y-111071428D01*
X147892857Y-111085714D01*
X147864285Y-111085714D01*
X147821428Y-111071428D01*
X147792857Y-111042857D01*
X147778571Y-111014285D01*
X147764285Y-110957142D01*
X147764285Y-110914285D01*
X147778571Y-110857142D01*
X147792857Y-110828571D01*
X147821428Y-110800000D01*
X147864285Y-110785714D01*
X147892857Y-110785714D01*
X147935714Y-110800000D01*
X147950000Y-110814285D01*
X148207142Y-110885714D02*
X148207142Y-111085714D01*
X148135714Y-110771428D02*
X148064285Y-110985714D01*
X148250000Y-110985714D01*
X148850000Y-96157142D02*
X148835714Y-96171428D01*
X148792857Y-96185714D01*
X148764285Y-96185714D01*
X148721428Y-96171428D01*
X148692857Y-96142857D01*
X148678571Y-96114285D01*
X148664285Y-96057142D01*
X148664285Y-96014285D01*
X148678571Y-95957142D01*
X148692857Y-95928571D01*
X148721428Y-95900000D01*
X148764285Y-95885714D01*
X148792857Y-95885714D01*
X148835714Y-95900000D01*
X148850000Y-95914285D01*
X149121428Y-95885714D02*
X148978571Y-95885714D01*
X148964285Y-96028571D01*
X148978571Y-96014285D01*
X149007142Y-96000000D01*
X149078571Y-96000000D01*
X149107142Y-96014285D01*
X149121428Y-96028571D01*
X149135714Y-96057142D01*
X149135714Y-96128571D01*
X149121428Y-96157142D01*
X149107142Y-96171428D01*
X149078571Y-96185714D01*
X149007142Y-96185714D01*
X148978571Y-96171428D01*
X148964285Y-96157142D01*
X146050000Y-112157142D02*
X146035714Y-112171428D01*
X145992857Y-112185714D01*
X145964285Y-112185714D01*
X145921428Y-112171428D01*
X145892857Y-112142857D01*
X145878571Y-112114285D01*
X145864285Y-112057142D01*
X145864285Y-112014285D01*
X145878571Y-111957142D01*
X145892857Y-111928571D01*
X145921428Y-111900000D01*
X145964285Y-111885714D01*
X145992857Y-111885714D01*
X146035714Y-111900000D01*
X146050000Y-111914285D01*
X146221428Y-112014285D02*
X146192857Y-112000000D01*
X146178571Y-111985714D01*
X146164285Y-111957142D01*
X146164285Y-111942857D01*
X146178571Y-111914285D01*
X146192857Y-111900000D01*
X146221428Y-111885714D01*
X146278571Y-111885714D01*
X146307142Y-111900000D01*
X146321428Y-111914285D01*
X146335714Y-111942857D01*
X146335714Y-111957142D01*
X146321428Y-111985714D01*
X146307142Y-112000000D01*
X146278571Y-112014285D01*
X146221428Y-112014285D01*
X146192857Y-112028571D01*
X146178571Y-112042857D01*
X146164285Y-112071428D01*
X146164285Y-112128571D01*
X146178571Y-112157142D01*
X146192857Y-112171428D01*
X146221428Y-112185714D01*
X146278571Y-112185714D01*
X146307142Y-112171428D01*
X146321428Y-112157142D01*
X146335714Y-112128571D01*
X146335714Y-112071428D01*
X146321428Y-112042857D01*
X146307142Y-112028571D01*
X146278571Y-112014285D01*
X150000000Y-96157142D02*
X149985714Y-96171428D01*
X149942857Y-96185714D01*
X149914285Y-96185714D01*
X149871428Y-96171428D01*
X149842857Y-96142857D01*
X149828571Y-96114285D01*
X149814285Y-96057142D01*
X149814285Y-96014285D01*
X149828571Y-95957142D01*
X149842857Y-95928571D01*
X149871428Y-95900000D01*
X149914285Y-95885714D01*
X149942857Y-95885714D01*
X149985714Y-95900000D01*
X150000000Y-95914285D01*
X150142857Y-96185714D02*
X150200000Y-96185714D01*
X150228571Y-96171428D01*
X150242857Y-96157142D01*
X150271428Y-96114285D01*
X150285714Y-96057142D01*
X150285714Y-95942857D01*
X150271428Y-95914285D01*
X150257142Y-95900000D01*
X150228571Y-95885714D01*
X150171428Y-95885714D01*
X150142857Y-95900000D01*
X150128571Y-95914285D01*
X150114285Y-95942857D01*
X150114285Y-96014285D01*
X150128571Y-96042857D01*
X150142857Y-96057142D01*
X150171428Y-96071428D01*
X150228571Y-96071428D01*
X150257142Y-96057142D01*
X150271428Y-96042857D01*
X150285714Y-96014285D01*
X134857142Y-104987142D02*
X134842857Y-105001428D01*
X134800000Y-105015714D01*
X134771428Y-105015714D01*
X134728571Y-105001428D01*
X134700000Y-104972857D01*
X134685714Y-104944285D01*
X134671428Y-104887142D01*
X134671428Y-104844285D01*
X134685714Y-104787142D01*
X134700000Y-104758571D01*
X134728571Y-104730000D01*
X134771428Y-104715714D01*
X134800000Y-104715714D01*
X134842857Y-104730000D01*
X134857142Y-104744285D01*
X135142857Y-105015714D02*
X134971428Y-105015714D01*
X135057142Y-105015714D02*
X135057142Y-104715714D01*
X135028571Y-104758571D01*
X135000000Y-104787142D01*
X134971428Y-104801428D01*
X135328571Y-104715714D02*
X135357142Y-104715714D01*
X135385714Y-104730000D01*
X135400000Y-104744285D01*
X135414285Y-104772857D01*
X135428571Y-104830000D01*
X135428571Y-104901428D01*
X135414285Y-104958571D01*
X135400000Y-104987142D01*
X135385714Y-105001428D01*
X135357142Y-105015714D01*
X135328571Y-105015714D01*
X135300000Y-105001428D01*
X135285714Y-104987142D01*
X135271428Y-104958571D01*
X135257142Y-104901428D01*
X135257142Y-104830000D01*
X135271428Y-104772857D01*
X135285714Y-104744285D01*
X135300000Y-104730000D01*
X135328571Y-104715714D01*
X136007142Y-104987142D02*
X135992857Y-105001428D01*
X135950000Y-105015714D01*
X135921428Y-105015714D01*
X135878571Y-105001428D01*
X135850000Y-104972857D01*
X135835714Y-104944285D01*
X135821428Y-104887142D01*
X135821428Y-104844285D01*
X135835714Y-104787142D01*
X135850000Y-104758571D01*
X135878571Y-104730000D01*
X135921428Y-104715714D01*
X135950000Y-104715714D01*
X135992857Y-104730000D01*
X136007142Y-104744285D01*
X136292857Y-105015714D02*
X136121428Y-105015714D01*
X136207142Y-105015714D02*
X136207142Y-104715714D01*
X136178571Y-104758571D01*
X136150000Y-104787142D01*
X136121428Y-104801428D01*
X136578571Y-105015714D02*
X136407142Y-105015714D01*
X136492857Y-105015714D02*
X136492857Y-104715714D01*
X136464285Y-104758571D01*
X136435714Y-104787142D01*
X136407142Y-104801428D01*
X134007142Y-76627142D02*
X133992857Y-76641428D01*
X133950000Y-76655714D01*
X133921428Y-76655714D01*
X133878571Y-76641428D01*
X133850000Y-76612857D01*
X133835714Y-76584285D01*
X133821428Y-76527142D01*
X133821428Y-76484285D01*
X133835714Y-76427142D01*
X133850000Y-76398571D01*
X133878571Y-76370000D01*
X133921428Y-76355714D01*
X133950000Y-76355714D01*
X133992857Y-76370000D01*
X134007142Y-76384285D01*
X134292857Y-76655714D02*
X134121428Y-76655714D01*
X134207142Y-76655714D02*
X134207142Y-76355714D01*
X134178571Y-76398571D01*
X134150000Y-76427142D01*
X134121428Y-76441428D01*
X134407142Y-76384285D02*
X134421428Y-76370000D01*
X134450000Y-76355714D01*
X134521428Y-76355714D01*
X134550000Y-76370000D01*
X134564285Y-76384285D01*
X134578571Y-76412857D01*
X134578571Y-76441428D01*
X134564285Y-76484285D01*
X134392857Y-76655714D01*
X134578571Y-76655714D01*
X134897142Y-103572857D02*
X134911428Y-103587142D01*
X134925714Y-103630000D01*
X134925714Y-103658571D01*
X134911428Y-103701428D01*
X134882857Y-103730000D01*
X134854285Y-103744285D01*
X134797142Y-103758571D01*
X134754285Y-103758571D01*
X134697142Y-103744285D01*
X134668571Y-103730000D01*
X134640000Y-103701428D01*
X134625714Y-103658571D01*
X134625714Y-103630000D01*
X134640000Y-103587142D01*
X134654285Y-103572857D01*
X134925714Y-103287142D02*
X134925714Y-103458571D01*
X134925714Y-103372857D02*
X134625714Y-103372857D01*
X134668571Y-103401428D01*
X134697142Y-103430000D01*
X134711428Y-103458571D01*
X134725714Y-103030000D02*
X134925714Y-103030000D01*
X134611428Y-103101428D02*
X134825714Y-103172857D01*
X134825714Y-102987142D01*
X132747142Y-98392857D02*
X132761428Y-98407142D01*
X132775714Y-98450000D01*
X132775714Y-98478571D01*
X132761428Y-98521428D01*
X132732857Y-98550000D01*
X132704285Y-98564285D01*
X132647142Y-98578571D01*
X132604285Y-98578571D01*
X132547142Y-98564285D01*
X132518571Y-98550000D01*
X132490000Y-98521428D01*
X132475714Y-98478571D01*
X132475714Y-98450000D01*
X132490000Y-98407142D01*
X132504285Y-98392857D01*
X132775714Y-98107142D02*
X132775714Y-98278571D01*
X132775714Y-98192857D02*
X132475714Y-98192857D01*
X132518571Y-98221428D01*
X132547142Y-98250000D01*
X132561428Y-98278571D01*
X132475714Y-97835714D02*
X132475714Y-97978571D01*
X132618571Y-97992857D01*
X132604285Y-97978571D01*
X132590000Y-97950000D01*
X132590000Y-97878571D01*
X132604285Y-97850000D01*
X132618571Y-97835714D01*
X132647142Y-97821428D01*
X132718571Y-97821428D01*
X132747142Y-97835714D01*
X132761428Y-97850000D01*
X132775714Y-97878571D01*
X132775714Y-97950000D01*
X132761428Y-97978571D01*
X132747142Y-97992857D01*
X121357142Y-80057142D02*
X121342857Y-80071428D01*
X121300000Y-80085714D01*
X121271428Y-80085714D01*
X121228571Y-80071428D01*
X121200000Y-80042857D01*
X121185714Y-80014285D01*
X121171428Y-79957142D01*
X121171428Y-79914285D01*
X121185714Y-79857142D01*
X121200000Y-79828571D01*
X121228571Y-79800000D01*
X121271428Y-79785714D01*
X121300000Y-79785714D01*
X121342857Y-79800000D01*
X121357142Y-79814285D01*
X121642857Y-80085714D02*
X121471428Y-80085714D01*
X121557142Y-80085714D02*
X121557142Y-79785714D01*
X121528571Y-79828571D01*
X121500000Y-79857142D01*
X121471428Y-79871428D01*
X121900000Y-79785714D02*
X121842857Y-79785714D01*
X121814285Y-79800000D01*
X121800000Y-79814285D01*
X121771428Y-79857142D01*
X121757142Y-79914285D01*
X121757142Y-80028571D01*
X121771428Y-80057142D01*
X121785714Y-80071428D01*
X121814285Y-80085714D01*
X121871428Y-80085714D01*
X121900000Y-80071428D01*
X121914285Y-80057142D01*
X121928571Y-80028571D01*
X121928571Y-79957142D01*
X121914285Y-79928571D01*
X121900000Y-79914285D01*
X121871428Y-79900000D01*
X121814285Y-79900000D01*
X121785714Y-79914285D01*
X121771428Y-79928571D01*
X121757142Y-79957142D01*
X125137142Y-76707142D02*
X125122857Y-76721428D01*
X125080000Y-76735714D01*
X125051428Y-76735714D01*
X125008571Y-76721428D01*
X124980000Y-76692857D01*
X124965714Y-76664285D01*
X124951428Y-76607142D01*
X124951428Y-76564285D01*
X124965714Y-76507142D01*
X124980000Y-76478571D01*
X125008571Y-76450000D01*
X125051428Y-76435714D01*
X125080000Y-76435714D01*
X125122857Y-76450000D01*
X125137142Y-76464285D01*
X125422857Y-76735714D02*
X125251428Y-76735714D01*
X125337142Y-76735714D02*
X125337142Y-76435714D01*
X125308571Y-76478571D01*
X125280000Y-76507142D01*
X125251428Y-76521428D01*
X125522857Y-76435714D02*
X125722857Y-76435714D01*
X125594285Y-76735714D01*
X128677142Y-81172857D02*
X128691428Y-81187142D01*
X128705714Y-81230000D01*
X128705714Y-81258571D01*
X128691428Y-81301428D01*
X128662857Y-81330000D01*
X128634285Y-81344285D01*
X128577142Y-81358571D01*
X128534285Y-81358571D01*
X128477142Y-81344285D01*
X128448571Y-81330000D01*
X128420000Y-81301428D01*
X128405714Y-81258571D01*
X128405714Y-81230000D01*
X128420000Y-81187142D01*
X128434285Y-81172857D01*
X128434285Y-81058571D02*
X128420000Y-81044285D01*
X128405714Y-81015714D01*
X128405714Y-80944285D01*
X128420000Y-80915714D01*
X128434285Y-80901428D01*
X128462857Y-80887142D01*
X128491428Y-80887142D01*
X128534285Y-80901428D01*
X128705714Y-81072857D01*
X128705714Y-80887142D01*
X128405714Y-80701428D02*
X128405714Y-80672857D01*
X128420000Y-80644285D01*
X128434285Y-80630000D01*
X128462857Y-80615714D01*
X128520000Y-80601428D01*
X128591428Y-80601428D01*
X128648571Y-80615714D01*
X128677142Y-80630000D01*
X128691428Y-80644285D01*
X128705714Y-80672857D01*
X128705714Y-80701428D01*
X128691428Y-80730000D01*
X128677142Y-80744285D01*
X128648571Y-80758571D01*
X128591428Y-80772857D01*
X128520000Y-80772857D01*
X128462857Y-80758571D01*
X128434285Y-80744285D01*
X128420000Y-80730000D01*
X128405714Y-80701428D01*
X123787142Y-76707142D02*
X123772857Y-76721428D01*
X123730000Y-76735714D01*
X123701428Y-76735714D01*
X123658571Y-76721428D01*
X123630000Y-76692857D01*
X123615714Y-76664285D01*
X123601428Y-76607142D01*
X123601428Y-76564285D01*
X123615714Y-76507142D01*
X123630000Y-76478571D01*
X123658571Y-76450000D01*
X123701428Y-76435714D01*
X123730000Y-76435714D01*
X123772857Y-76450000D01*
X123787142Y-76464285D01*
X123901428Y-76464285D02*
X123915714Y-76450000D01*
X123944285Y-76435714D01*
X124015714Y-76435714D01*
X124044285Y-76450000D01*
X124058571Y-76464285D01*
X124072857Y-76492857D01*
X124072857Y-76521428D01*
X124058571Y-76564285D01*
X123887142Y-76735714D01*
X124072857Y-76735714D01*
X124358571Y-76735714D02*
X124187142Y-76735714D01*
X124272857Y-76735714D02*
X124272857Y-76435714D01*
X124244285Y-76478571D01*
X124215714Y-76507142D01*
X124187142Y-76521428D01*
X126957142Y-88477142D02*
X126942857Y-88491428D01*
X126900000Y-88505714D01*
X126871428Y-88505714D01*
X126828571Y-88491428D01*
X126800000Y-88462857D01*
X126785714Y-88434285D01*
X126771428Y-88377142D01*
X126771428Y-88334285D01*
X126785714Y-88277142D01*
X126800000Y-88248571D01*
X126828571Y-88220000D01*
X126871428Y-88205714D01*
X126900000Y-88205714D01*
X126942857Y-88220000D01*
X126957142Y-88234285D01*
X127071428Y-88234285D02*
X127085714Y-88220000D01*
X127114285Y-88205714D01*
X127185714Y-88205714D01*
X127214285Y-88220000D01*
X127228571Y-88234285D01*
X127242857Y-88262857D01*
X127242857Y-88291428D01*
X127228571Y-88334285D01*
X127057142Y-88505714D01*
X127242857Y-88505714D01*
X127357142Y-88234285D02*
X127371428Y-88220000D01*
X127400000Y-88205714D01*
X127471428Y-88205714D01*
X127500000Y-88220000D01*
X127514285Y-88234285D01*
X127528571Y-88262857D01*
X127528571Y-88291428D01*
X127514285Y-88334285D01*
X127342857Y-88505714D01*
X127528571Y-88505714D01*
X132707142Y-112037142D02*
X132692857Y-112051428D01*
X132650000Y-112065714D01*
X132621428Y-112065714D01*
X132578571Y-112051428D01*
X132550000Y-112022857D01*
X132535714Y-111994285D01*
X132521428Y-111937142D01*
X132521428Y-111894285D01*
X132535714Y-111837142D01*
X132550000Y-111808571D01*
X132578571Y-111780000D01*
X132621428Y-111765714D01*
X132650000Y-111765714D01*
X132692857Y-111780000D01*
X132707142Y-111794285D01*
X132821428Y-111794285D02*
X132835714Y-111780000D01*
X132864285Y-111765714D01*
X132935714Y-111765714D01*
X132964285Y-111780000D01*
X132978571Y-111794285D01*
X132992857Y-111822857D01*
X132992857Y-111851428D01*
X132978571Y-111894285D01*
X132807142Y-112065714D01*
X132992857Y-112065714D01*
X133250000Y-111865714D02*
X133250000Y-112065714D01*
X133178571Y-111751428D02*
X133107142Y-111965714D01*
X133292857Y-111965714D01*
X142897142Y-111937142D02*
X142882857Y-111951428D01*
X142840000Y-111965714D01*
X142811428Y-111965714D01*
X142768571Y-111951428D01*
X142740000Y-111922857D01*
X142725714Y-111894285D01*
X142711428Y-111837142D01*
X142711428Y-111794285D01*
X142725714Y-111737142D01*
X142740000Y-111708571D01*
X142768571Y-111680000D01*
X142811428Y-111665714D01*
X142840000Y-111665714D01*
X142882857Y-111680000D01*
X142897142Y-111694285D01*
X143011428Y-111694285D02*
X143025714Y-111680000D01*
X143054285Y-111665714D01*
X143125714Y-111665714D01*
X143154285Y-111680000D01*
X143168571Y-111694285D01*
X143182857Y-111722857D01*
X143182857Y-111751428D01*
X143168571Y-111794285D01*
X142997142Y-111965714D01*
X143182857Y-111965714D01*
X143454285Y-111665714D02*
X143311428Y-111665714D01*
X143297142Y-111808571D01*
X143311428Y-111794285D01*
X143340000Y-111780000D01*
X143411428Y-111780000D01*
X143440000Y-111794285D01*
X143454285Y-111808571D01*
X143468571Y-111837142D01*
X143468571Y-111908571D01*
X143454285Y-111937142D01*
X143440000Y-111951428D01*
X143411428Y-111965714D01*
X143340000Y-111965714D01*
X143311428Y-111951428D01*
X143297142Y-111937142D01*
X126957142Y-94787142D02*
X126942857Y-94801428D01*
X126900000Y-94815714D01*
X126871428Y-94815714D01*
X126828571Y-94801428D01*
X126800000Y-94772857D01*
X126785714Y-94744285D01*
X126771428Y-94687142D01*
X126771428Y-94644285D01*
X126785714Y-94587142D01*
X126800000Y-94558571D01*
X126828571Y-94530000D01*
X126871428Y-94515714D01*
X126900000Y-94515714D01*
X126942857Y-94530000D01*
X126957142Y-94544285D01*
X127071428Y-94544285D02*
X127085714Y-94530000D01*
X127114285Y-94515714D01*
X127185714Y-94515714D01*
X127214285Y-94530000D01*
X127228571Y-94544285D01*
X127242857Y-94572857D01*
X127242857Y-94601428D01*
X127228571Y-94644285D01*
X127057142Y-94815714D01*
X127242857Y-94815714D01*
X127500000Y-94515714D02*
X127442857Y-94515714D01*
X127414285Y-94530000D01*
X127400000Y-94544285D01*
X127371428Y-94587142D01*
X127357142Y-94644285D01*
X127357142Y-94758571D01*
X127371428Y-94787142D01*
X127385714Y-94801428D01*
X127414285Y-94815714D01*
X127471428Y-94815714D01*
X127500000Y-94801428D01*
X127514285Y-94787142D01*
X127528571Y-94758571D01*
X127528571Y-94687142D01*
X127514285Y-94658571D01*
X127500000Y-94644285D01*
X127471428Y-94630000D01*
X127414285Y-94630000D01*
X127385714Y-94644285D01*
X127371428Y-94658571D01*
X127357142Y-94687142D01*
X136107142Y-113357142D02*
X136092857Y-113371428D01*
X136050000Y-113385714D01*
X136021428Y-113385714D01*
X135978571Y-113371428D01*
X135950000Y-113342857D01*
X135935714Y-113314285D01*
X135921428Y-113257142D01*
X135921428Y-113214285D01*
X135935714Y-113157142D01*
X135950000Y-113128571D01*
X135978571Y-113100000D01*
X136021428Y-113085714D01*
X136050000Y-113085714D01*
X136092857Y-113100000D01*
X136107142Y-113114285D01*
X136221428Y-113114285D02*
X136235714Y-113100000D01*
X136264285Y-113085714D01*
X136335714Y-113085714D01*
X136364285Y-113100000D01*
X136378571Y-113114285D01*
X136392857Y-113142857D01*
X136392857Y-113171428D01*
X136378571Y-113214285D01*
X136207142Y-113385714D01*
X136392857Y-113385714D01*
X136564285Y-113214285D02*
X136535714Y-113200000D01*
X136521428Y-113185714D01*
X136507142Y-113157142D01*
X136507142Y-113142857D01*
X136521428Y-113114285D01*
X136535714Y-113100000D01*
X136564285Y-113085714D01*
X136621428Y-113085714D01*
X136650000Y-113100000D01*
X136664285Y-113114285D01*
X136678571Y-113142857D01*
X136678571Y-113157142D01*
X136664285Y-113185714D01*
X136650000Y-113200000D01*
X136621428Y-113214285D01*
X136564285Y-113214285D01*
X136535714Y-113228571D01*
X136521428Y-113242857D01*
X136507142Y-113271428D01*
X136507142Y-113328571D01*
X136521428Y-113357142D01*
X136535714Y-113371428D01*
X136564285Y-113385714D01*
X136621428Y-113385714D01*
X136650000Y-113371428D01*
X136664285Y-113357142D01*
X136678571Y-113328571D01*
X136678571Y-113271428D01*
X136664285Y-113242857D01*
X136650000Y-113228571D01*
X136621428Y-113214285D01*
X131507142Y-111157142D02*
X131492857Y-111171428D01*
X131450000Y-111185714D01*
X131421428Y-111185714D01*
X131378571Y-111171428D01*
X131350000Y-111142857D01*
X131335714Y-111114285D01*
X131321428Y-111057142D01*
X131321428Y-111014285D01*
X131335714Y-110957142D01*
X131350000Y-110928571D01*
X131378571Y-110900000D01*
X131421428Y-110885714D01*
X131450000Y-110885714D01*
X131492857Y-110900000D01*
X131507142Y-110914285D01*
X131621428Y-110914285D02*
X131635714Y-110900000D01*
X131664285Y-110885714D01*
X131735714Y-110885714D01*
X131764285Y-110900000D01*
X131778571Y-110914285D01*
X131792857Y-110942857D01*
X131792857Y-110971428D01*
X131778571Y-111014285D01*
X131607142Y-111185714D01*
X131792857Y-111185714D01*
X131935714Y-111185714D02*
X131992857Y-111185714D01*
X132021428Y-111171428D01*
X132035714Y-111157142D01*
X132064285Y-111114285D01*
X132078571Y-111057142D01*
X132078571Y-110942857D01*
X132064285Y-110914285D01*
X132050000Y-110900000D01*
X132021428Y-110885714D01*
X131964285Y-110885714D01*
X131935714Y-110900000D01*
X131921428Y-110914285D01*
X131907142Y-110942857D01*
X131907142Y-111014285D01*
X131921428Y-111042857D01*
X131935714Y-111057142D01*
X131964285Y-111071428D01*
X132021428Y-111071428D01*
X132050000Y-111057142D01*
X132064285Y-111042857D01*
X132078571Y-111014285D01*
D14*
X152191428Y-94762380D02*
X152262857Y-94786190D01*
X152381904Y-94786190D01*
X152429523Y-94762380D01*
X152453333Y-94738571D01*
X152477142Y-94690952D01*
X152477142Y-94643333D01*
X152453333Y-94595714D01*
X152429523Y-94571904D01*
X152381904Y-94548095D01*
X152286666Y-94524285D01*
X152239047Y-94500476D01*
X152215238Y-94476666D01*
X152191428Y-94429047D01*
X152191428Y-94381428D01*
X152215238Y-94333809D01*
X152239047Y-94310000D01*
X152286666Y-94286190D01*
X152405714Y-94286190D01*
X152477142Y-94310000D01*
X152643809Y-94286190D02*
X152762857Y-94786190D01*
X152858095Y-94429047D01*
X152953333Y-94786190D01*
X153072380Y-94286190D01*
X153262857Y-94786190D02*
X153262857Y-94286190D01*
X153381904Y-94286190D01*
X153453333Y-94310000D01*
X153500952Y-94357619D01*
X153524761Y-94405238D01*
X153548571Y-94500476D01*
X153548571Y-94571904D01*
X153524761Y-94667142D01*
X153500952Y-94714761D01*
X153453333Y-94762380D01*
X153381904Y-94786190D01*
X153262857Y-94786190D01*
X154120000Y-94262380D02*
X153691428Y-94905238D01*
X154286666Y-94786190D02*
X154286666Y-94286190D01*
X154405714Y-94286190D01*
X154477142Y-94310000D01*
X154524761Y-94357619D01*
X154548571Y-94405238D01*
X154572380Y-94500476D01*
X154572380Y-94571904D01*
X154548571Y-94667142D01*
X154524761Y-94714761D01*
X154477142Y-94762380D01*
X154405714Y-94786190D01*
X154286666Y-94786190D01*
X154786666Y-94524285D02*
X154953333Y-94524285D01*
X155024761Y-94786190D02*
X154786666Y-94786190D01*
X154786666Y-94286190D01*
X155024761Y-94286190D01*
X155405714Y-94524285D02*
X155477142Y-94548095D01*
X155500952Y-94571904D01*
X155524761Y-94619523D01*
X155524761Y-94690952D01*
X155500952Y-94738571D01*
X155477142Y-94762380D01*
X155429523Y-94786190D01*
X155239047Y-94786190D01*
X155239047Y-94286190D01*
X155405714Y-94286190D01*
X155453333Y-94310000D01*
X155477142Y-94333809D01*
X155500952Y-94381428D01*
X155500952Y-94429047D01*
X155477142Y-94476666D01*
X155453333Y-94500476D01*
X155405714Y-94524285D01*
X155239047Y-94524285D01*
X155739047Y-94286190D02*
X155739047Y-94690952D01*
X155762857Y-94738571D01*
X155786666Y-94762380D01*
X155834285Y-94786190D01*
X155929523Y-94786190D01*
X155977142Y-94762380D01*
X156000952Y-94738571D01*
X156024761Y-94690952D01*
X156024761Y-94286190D01*
X156524761Y-94310000D02*
X156477142Y-94286190D01*
X156405714Y-94286190D01*
X156334285Y-94310000D01*
X156286666Y-94357619D01*
X156262857Y-94405238D01*
X156239047Y-94500476D01*
X156239047Y-94571904D01*
X156262857Y-94667142D01*
X156286666Y-94714761D01*
X156334285Y-94762380D01*
X156405714Y-94786190D01*
X156453333Y-94786190D01*
X156524761Y-94762380D01*
X156548571Y-94738571D01*
X156548571Y-94571904D01*
X156453333Y-94571904D01*
D15*
X118995714Y-88885714D02*
X118695714Y-88885714D01*
X118910000Y-88785714D01*
X118695714Y-88685714D01*
X118995714Y-88685714D01*
X118695714Y-88485714D02*
X118695714Y-88428571D01*
X118710000Y-88400000D01*
X118738571Y-88371428D01*
X118795714Y-88357142D01*
X118895714Y-88357142D01*
X118952857Y-88371428D01*
X118981428Y-88400000D01*
X118995714Y-88428571D01*
X118995714Y-88485714D01*
X118981428Y-88514285D01*
X118952857Y-88542857D01*
X118895714Y-88557142D01*
X118795714Y-88557142D01*
X118738571Y-88542857D01*
X118710000Y-88514285D01*
X118695714Y-88485714D01*
X118695714Y-88271428D02*
X118695714Y-88100000D01*
X118995714Y-88185714D02*
X118695714Y-88185714D01*
X118695714Y-87942857D02*
X118695714Y-87885714D01*
X118710000Y-87857142D01*
X118738571Y-87828571D01*
X118795714Y-87814285D01*
X118895714Y-87814285D01*
X118952857Y-87828571D01*
X118981428Y-87857142D01*
X118995714Y-87885714D01*
X118995714Y-87942857D01*
X118981428Y-87971428D01*
X118952857Y-88000000D01*
X118895714Y-88014285D01*
X118795714Y-88014285D01*
X118738571Y-88000000D01*
X118710000Y-87971428D01*
X118695714Y-87942857D01*
X118995714Y-87514285D02*
X118852857Y-87614285D01*
X118995714Y-87685714D02*
X118695714Y-87685714D01*
X118695714Y-87571428D01*
X118710000Y-87542857D01*
X118724285Y-87528571D01*
X118752857Y-87514285D01*
X118795714Y-87514285D01*
X118824285Y-87528571D01*
X118838571Y-87542857D01*
X118852857Y-87571428D01*
X118852857Y-87685714D01*
X119024285Y-87457142D02*
X119024285Y-87228571D01*
X118995714Y-87000000D02*
X118995714Y-87171428D01*
X118995714Y-87085714D02*
X118695714Y-87085714D01*
X118738571Y-87114285D01*
X118767142Y-87142857D01*
X118781428Y-87171428D01*
D10*
X122233333Y-111816190D02*
X122233333Y-111316190D01*
X122423809Y-111316190D01*
X122471428Y-111340000D01*
X122495238Y-111363809D01*
X122519047Y-111411428D01*
X122519047Y-111482857D01*
X122495238Y-111530476D01*
X122471428Y-111554285D01*
X122423809Y-111578095D01*
X122233333Y-111578095D01*
X122685714Y-111316190D02*
X122804761Y-111816190D01*
X122900000Y-111459047D01*
X122995238Y-111816190D01*
X123114285Y-111316190D01*
X123590476Y-111816190D02*
X123423809Y-111578095D01*
X123304761Y-111816190D02*
X123304761Y-111316190D01*
X123495238Y-111316190D01*
X123542857Y-111340000D01*
X123566666Y-111363809D01*
X123590476Y-111411428D01*
X123590476Y-111482857D01*
X123566666Y-111530476D01*
X123542857Y-111554285D01*
X123495238Y-111578095D01*
X123304761Y-111578095D01*
D15*
X118995714Y-91485714D02*
X118695714Y-91485714D01*
X118910000Y-91385714D01*
X118695714Y-91285714D01*
X118995714Y-91285714D01*
X118695714Y-91085714D02*
X118695714Y-91028571D01*
X118710000Y-91000000D01*
X118738571Y-90971428D01*
X118795714Y-90957142D01*
X118895714Y-90957142D01*
X118952857Y-90971428D01*
X118981428Y-91000000D01*
X118995714Y-91028571D01*
X118995714Y-91085714D01*
X118981428Y-91114285D01*
X118952857Y-91142857D01*
X118895714Y-91157142D01*
X118795714Y-91157142D01*
X118738571Y-91142857D01*
X118710000Y-91114285D01*
X118695714Y-91085714D01*
X118695714Y-90871428D02*
X118695714Y-90700000D01*
X118995714Y-90785714D02*
X118695714Y-90785714D01*
X118695714Y-90542857D02*
X118695714Y-90485714D01*
X118710000Y-90457142D01*
X118738571Y-90428571D01*
X118795714Y-90414285D01*
X118895714Y-90414285D01*
X118952857Y-90428571D01*
X118981428Y-90457142D01*
X118995714Y-90485714D01*
X118995714Y-90542857D01*
X118981428Y-90571428D01*
X118952857Y-90600000D01*
X118895714Y-90614285D01*
X118795714Y-90614285D01*
X118738571Y-90600000D01*
X118710000Y-90571428D01*
X118695714Y-90542857D01*
X118995714Y-90114285D02*
X118852857Y-90214285D01*
X118995714Y-90285714D02*
X118695714Y-90285714D01*
X118695714Y-90171428D01*
X118710000Y-90142857D01*
X118724285Y-90128571D01*
X118752857Y-90114285D01*
X118795714Y-90114285D01*
X118824285Y-90128571D01*
X118838571Y-90142857D01*
X118852857Y-90171428D01*
X118852857Y-90285714D01*
X119024285Y-90057142D02*
X119024285Y-89828571D01*
X118724285Y-89771428D02*
X118710000Y-89757142D01*
X118695714Y-89728571D01*
X118695714Y-89657142D01*
X118710000Y-89628571D01*
X118724285Y-89614285D01*
X118752857Y-89600000D01*
X118781428Y-89600000D01*
X118824285Y-89614285D01*
X118995714Y-89785714D01*
X118995714Y-89600000D01*
X118995714Y-94485714D02*
X118695714Y-94485714D01*
X118910000Y-94385714D01*
X118695714Y-94285714D01*
X118995714Y-94285714D01*
X118695714Y-94085714D02*
X118695714Y-94028571D01*
X118710000Y-94000000D01*
X118738571Y-93971428D01*
X118795714Y-93957142D01*
X118895714Y-93957142D01*
X118952857Y-93971428D01*
X118981428Y-94000000D01*
X118995714Y-94028571D01*
X118995714Y-94085714D01*
X118981428Y-94114285D01*
X118952857Y-94142857D01*
X118895714Y-94157142D01*
X118795714Y-94157142D01*
X118738571Y-94142857D01*
X118710000Y-94114285D01*
X118695714Y-94085714D01*
X118695714Y-93871428D02*
X118695714Y-93700000D01*
X118995714Y-93785714D02*
X118695714Y-93785714D01*
X118695714Y-93542857D02*
X118695714Y-93485714D01*
X118710000Y-93457142D01*
X118738571Y-93428571D01*
X118795714Y-93414285D01*
X118895714Y-93414285D01*
X118952857Y-93428571D01*
X118981428Y-93457142D01*
X118995714Y-93485714D01*
X118995714Y-93542857D01*
X118981428Y-93571428D01*
X118952857Y-93600000D01*
X118895714Y-93614285D01*
X118795714Y-93614285D01*
X118738571Y-93600000D01*
X118710000Y-93571428D01*
X118695714Y-93542857D01*
X118995714Y-93114285D02*
X118852857Y-93214285D01*
X118995714Y-93285714D02*
X118695714Y-93285714D01*
X118695714Y-93171428D01*
X118710000Y-93142857D01*
X118724285Y-93128571D01*
X118752857Y-93114285D01*
X118795714Y-93114285D01*
X118824285Y-93128571D01*
X118838571Y-93142857D01*
X118852857Y-93171428D01*
X118852857Y-93285714D01*
X119024285Y-93057142D02*
X119024285Y-92828571D01*
X118695714Y-92785714D02*
X118695714Y-92600000D01*
X118810000Y-92700000D01*
X118810000Y-92657142D01*
X118824285Y-92628571D01*
X118838571Y-92614285D01*
X118867142Y-92600000D01*
X118938571Y-92600000D01*
X118967142Y-92614285D01*
X118981428Y-92628571D01*
X118995714Y-92657142D01*
X118995714Y-92742857D01*
X118981428Y-92771428D01*
X118967142Y-92785714D01*
X118995714Y-97150714D02*
X118695714Y-97150714D01*
X118910000Y-97050714D01*
X118695714Y-96950714D01*
X118995714Y-96950714D01*
X118695714Y-96750714D02*
X118695714Y-96693571D01*
X118710000Y-96665000D01*
X118738571Y-96636428D01*
X118795714Y-96622142D01*
X118895714Y-96622142D01*
X118952857Y-96636428D01*
X118981428Y-96665000D01*
X118995714Y-96693571D01*
X118995714Y-96750714D01*
X118981428Y-96779285D01*
X118952857Y-96807857D01*
X118895714Y-96822142D01*
X118795714Y-96822142D01*
X118738571Y-96807857D01*
X118710000Y-96779285D01*
X118695714Y-96750714D01*
X118695714Y-96536428D02*
X118695714Y-96365000D01*
X118995714Y-96450714D02*
X118695714Y-96450714D01*
X118695714Y-96207857D02*
X118695714Y-96150714D01*
X118710000Y-96122142D01*
X118738571Y-96093571D01*
X118795714Y-96079285D01*
X118895714Y-96079285D01*
X118952857Y-96093571D01*
X118981428Y-96122142D01*
X118995714Y-96150714D01*
X118995714Y-96207857D01*
X118981428Y-96236428D01*
X118952857Y-96265000D01*
X118895714Y-96279285D01*
X118795714Y-96279285D01*
X118738571Y-96265000D01*
X118710000Y-96236428D01*
X118695714Y-96207857D01*
X118995714Y-95779285D02*
X118852857Y-95879285D01*
X118995714Y-95950714D02*
X118695714Y-95950714D01*
X118695714Y-95836428D01*
X118710000Y-95807857D01*
X118724285Y-95793571D01*
X118752857Y-95779285D01*
X118795714Y-95779285D01*
X118824285Y-95793571D01*
X118838571Y-95807857D01*
X118852857Y-95836428D01*
X118852857Y-95950714D01*
X119024285Y-95722142D02*
X119024285Y-95493571D01*
X118795714Y-95293571D02*
X118995714Y-95293571D01*
X118681428Y-95365000D02*
X118895714Y-95436428D01*
X118895714Y-95250714D01*
D13*
X126050000Y-112888571D02*
X125950000Y-112888571D01*
X125950000Y-113045714D02*
X125950000Y-112745714D01*
X126092857Y-112745714D01*
X126192857Y-112774285D02*
X126207142Y-112760000D01*
X126235714Y-112745714D01*
X126307142Y-112745714D01*
X126335714Y-112760000D01*
X126350000Y-112774285D01*
X126364285Y-112802857D01*
X126364285Y-112831428D01*
X126350000Y-112874285D01*
X126178571Y-113045714D01*
X126364285Y-113045714D01*
X155610000Y-86245714D02*
X155510000Y-86102857D01*
X155438571Y-86245714D02*
X155438571Y-85945714D01*
X155552857Y-85945714D01*
X155581428Y-85960000D01*
X155595714Y-85974285D01*
X155610000Y-86002857D01*
X155610000Y-86045714D01*
X155595714Y-86074285D01*
X155581428Y-86088571D01*
X155552857Y-86102857D01*
X155438571Y-86102857D01*
X155867142Y-86045714D02*
X155867142Y-86245714D01*
X155795714Y-85931428D02*
X155724285Y-86145714D01*
X155910000Y-86145714D01*
X155600000Y-88255714D02*
X155500000Y-88112857D01*
X155428571Y-88255714D02*
X155428571Y-87955714D01*
X155542857Y-87955714D01*
X155571428Y-87970000D01*
X155585714Y-87984285D01*
X155600000Y-88012857D01*
X155600000Y-88055714D01*
X155585714Y-88084285D01*
X155571428Y-88098571D01*
X155542857Y-88112857D01*
X155428571Y-88112857D01*
X155871428Y-87955714D02*
X155728571Y-87955714D01*
X155714285Y-88098571D01*
X155728571Y-88084285D01*
X155757142Y-88070000D01*
X155828571Y-88070000D01*
X155857142Y-88084285D01*
X155871428Y-88098571D01*
X155885714Y-88127142D01*
X155885714Y-88198571D01*
X155871428Y-88227142D01*
X155857142Y-88241428D01*
X155828571Y-88255714D01*
X155757142Y-88255714D01*
X155728571Y-88241428D01*
X155714285Y-88227142D01*
X155610000Y-90265714D02*
X155510000Y-90122857D01*
X155438571Y-90265714D02*
X155438571Y-89965714D01*
X155552857Y-89965714D01*
X155581428Y-89980000D01*
X155595714Y-89994285D01*
X155610000Y-90022857D01*
X155610000Y-90065714D01*
X155595714Y-90094285D01*
X155581428Y-90108571D01*
X155552857Y-90122857D01*
X155438571Y-90122857D01*
X155867142Y-89965714D02*
X155810000Y-89965714D01*
X155781428Y-89980000D01*
X155767142Y-89994285D01*
X155738571Y-90037142D01*
X155724285Y-90094285D01*
X155724285Y-90208571D01*
X155738571Y-90237142D01*
X155752857Y-90251428D01*
X155781428Y-90265714D01*
X155838571Y-90265714D01*
X155867142Y-90251428D01*
X155881428Y-90237142D01*
X155895714Y-90208571D01*
X155895714Y-90137142D01*
X155881428Y-90108571D01*
X155867142Y-90094285D01*
X155838571Y-90080000D01*
X155781428Y-90080000D01*
X155752857Y-90094285D01*
X155738571Y-90108571D01*
X155724285Y-90137142D01*
X144150000Y-111935714D02*
X144050000Y-111792857D01*
X143978571Y-111935714D02*
X143978571Y-111635714D01*
X144092857Y-111635714D01*
X144121428Y-111650000D01*
X144135714Y-111664285D01*
X144150000Y-111692857D01*
X144150000Y-111735714D01*
X144135714Y-111764285D01*
X144121428Y-111778571D01*
X144092857Y-111792857D01*
X143978571Y-111792857D01*
X144321428Y-111764285D02*
X144292857Y-111750000D01*
X144278571Y-111735714D01*
X144264285Y-111707142D01*
X144264285Y-111692857D01*
X144278571Y-111664285D01*
X144292857Y-111650000D01*
X144321428Y-111635714D01*
X144378571Y-111635714D01*
X144407142Y-111650000D01*
X144421428Y-111664285D01*
X144435714Y-111692857D01*
X144435714Y-111707142D01*
X144421428Y-111735714D01*
X144407142Y-111750000D01*
X144378571Y-111764285D01*
X144321428Y-111764285D01*
X144292857Y-111778571D01*
X144278571Y-111792857D01*
X144264285Y-111821428D01*
X144264285Y-111878571D01*
X144278571Y-111907142D01*
X144292857Y-111921428D01*
X144321428Y-111935714D01*
X144378571Y-111935714D01*
X144407142Y-111921428D01*
X144421428Y-111907142D01*
X144435714Y-111878571D01*
X144435714Y-111821428D01*
X144421428Y-111792857D01*
X144407142Y-111778571D01*
X144378571Y-111764285D01*
X127497142Y-112315714D02*
X127397142Y-112172857D01*
X127325714Y-112315714D02*
X127325714Y-112015714D01*
X127440000Y-112015714D01*
X127468571Y-112030000D01*
X127482857Y-112044285D01*
X127497142Y-112072857D01*
X127497142Y-112115714D01*
X127482857Y-112144285D01*
X127468571Y-112158571D01*
X127440000Y-112172857D01*
X127325714Y-112172857D01*
X127782857Y-112315714D02*
X127611428Y-112315714D01*
X127697142Y-112315714D02*
X127697142Y-112015714D01*
X127668571Y-112058571D01*
X127640000Y-112087142D01*
X127611428Y-112101428D01*
X127954285Y-112144285D02*
X127925714Y-112130000D01*
X127911428Y-112115714D01*
X127897142Y-112087142D01*
X127897142Y-112072857D01*
X127911428Y-112044285D01*
X127925714Y-112030000D01*
X127954285Y-112015714D01*
X128011428Y-112015714D01*
X128040000Y-112030000D01*
X128054285Y-112044285D01*
X128068571Y-112072857D01*
X128068571Y-112087142D01*
X128054285Y-112115714D01*
X128040000Y-112130000D01*
X128011428Y-112144285D01*
X127954285Y-112144285D01*
X127925714Y-112158571D01*
X127911428Y-112172857D01*
X127897142Y-112201428D01*
X127897142Y-112258571D01*
X127911428Y-112287142D01*
X127925714Y-112301428D01*
X127954285Y-112315714D01*
X128011428Y-112315714D01*
X128040000Y-112301428D01*
X128054285Y-112287142D01*
X128068571Y-112258571D01*
X128068571Y-112201428D01*
X128054285Y-112172857D01*
X128040000Y-112158571D01*
X128011428Y-112144285D01*
X140707142Y-114135714D02*
X140607142Y-113992857D01*
X140535714Y-114135714D02*
X140535714Y-113835714D01*
X140650000Y-113835714D01*
X140678571Y-113850000D01*
X140692857Y-113864285D01*
X140707142Y-113892857D01*
X140707142Y-113935714D01*
X140692857Y-113964285D01*
X140678571Y-113978571D01*
X140650000Y-113992857D01*
X140535714Y-113992857D01*
X140992857Y-114135714D02*
X140821428Y-114135714D01*
X140907142Y-114135714D02*
X140907142Y-113835714D01*
X140878571Y-113878571D01*
X140850000Y-113907142D01*
X140821428Y-113921428D01*
X141135714Y-114135714D02*
X141192857Y-114135714D01*
X141221428Y-114121428D01*
X141235714Y-114107142D01*
X141264285Y-114064285D01*
X141278571Y-114007142D01*
X141278571Y-113892857D01*
X141264285Y-113864285D01*
X141250000Y-113850000D01*
X141221428Y-113835714D01*
X141164285Y-113835714D01*
X141135714Y-113850000D01*
X141121428Y-113864285D01*
X141107142Y-113892857D01*
X141107142Y-113964285D01*
X141121428Y-113992857D01*
X141135714Y-114007142D01*
X141164285Y-114021428D01*
X141221428Y-114021428D01*
X141250000Y-114007142D01*
X141264285Y-113992857D01*
X141278571Y-113964285D01*
X141807142Y-114135714D02*
X141707142Y-113992857D01*
X141635714Y-114135714D02*
X141635714Y-113835714D01*
X141750000Y-113835714D01*
X141778571Y-113850000D01*
X141792857Y-113864285D01*
X141807142Y-113892857D01*
X141807142Y-113935714D01*
X141792857Y-113964285D01*
X141778571Y-113978571D01*
X141750000Y-113992857D01*
X141635714Y-113992857D01*
X141921428Y-113864285D02*
X141935714Y-113850000D01*
X141964285Y-113835714D01*
X142035714Y-113835714D01*
X142064285Y-113850000D01*
X142078571Y-113864285D01*
X142092857Y-113892857D01*
X142092857Y-113921428D01*
X142078571Y-113964285D01*
X141907142Y-114135714D01*
X142092857Y-114135714D01*
X142278571Y-113835714D02*
X142307142Y-113835714D01*
X142335714Y-113850000D01*
X142350000Y-113864285D01*
X142364285Y-113892857D01*
X142378571Y-113950000D01*
X142378571Y-114021428D01*
X142364285Y-114078571D01*
X142350000Y-114107142D01*
X142335714Y-114121428D01*
X142307142Y-114135714D01*
X142278571Y-114135714D01*
X142250000Y-114121428D01*
X142235714Y-114107142D01*
X142221428Y-114078571D01*
X142207142Y-114021428D01*
X142207142Y-113950000D01*
X142221428Y-113892857D01*
X142235714Y-113864285D01*
X142250000Y-113850000D01*
X142278571Y-113835714D01*
X135945714Y-107542857D02*
X135802857Y-107642857D01*
X135945714Y-107714285D02*
X135645714Y-107714285D01*
X135645714Y-107600000D01*
X135660000Y-107571428D01*
X135674285Y-107557142D01*
X135702857Y-107542857D01*
X135745714Y-107542857D01*
X135774285Y-107557142D01*
X135788571Y-107571428D01*
X135802857Y-107600000D01*
X135802857Y-107714285D01*
X135674285Y-107428571D02*
X135660000Y-107414285D01*
X135645714Y-107385714D01*
X135645714Y-107314285D01*
X135660000Y-107285714D01*
X135674285Y-107271428D01*
X135702857Y-107257142D01*
X135731428Y-107257142D01*
X135774285Y-107271428D01*
X135945714Y-107442857D01*
X135945714Y-107257142D01*
X135645714Y-107157142D02*
X135645714Y-106971428D01*
X135760000Y-107071428D01*
X135760000Y-107028571D01*
X135774285Y-107000000D01*
X135788571Y-106985714D01*
X135817142Y-106971428D01*
X135888571Y-106971428D01*
X135917142Y-106985714D01*
X135931428Y-107000000D01*
X135945714Y-107028571D01*
X135945714Y-107114285D01*
X135931428Y-107142857D01*
X135917142Y-107157142D01*
X138257142Y-114435714D02*
X138157142Y-114292857D01*
X138085714Y-114435714D02*
X138085714Y-114135714D01*
X138200000Y-114135714D01*
X138228571Y-114150000D01*
X138242857Y-114164285D01*
X138257142Y-114192857D01*
X138257142Y-114235714D01*
X138242857Y-114264285D01*
X138228571Y-114278571D01*
X138200000Y-114292857D01*
X138085714Y-114292857D01*
X138371428Y-114164285D02*
X138385714Y-114150000D01*
X138414285Y-114135714D01*
X138485714Y-114135714D01*
X138514285Y-114150000D01*
X138528571Y-114164285D01*
X138542857Y-114192857D01*
X138542857Y-114221428D01*
X138528571Y-114264285D01*
X138357142Y-114435714D01*
X138542857Y-114435714D01*
X138800000Y-114235714D02*
X138800000Y-114435714D01*
X138728571Y-114121428D02*
X138657142Y-114335714D01*
X138842857Y-114335714D01*
X121785714Y-102292857D02*
X121642857Y-102392857D01*
X121785714Y-102464285D02*
X121485714Y-102464285D01*
X121485714Y-102350000D01*
X121500000Y-102321428D01*
X121514285Y-102307142D01*
X121542857Y-102292857D01*
X121585714Y-102292857D01*
X121614285Y-102307142D01*
X121628571Y-102321428D01*
X121642857Y-102350000D01*
X121642857Y-102464285D01*
X121514285Y-102178571D02*
X121500000Y-102164285D01*
X121485714Y-102135714D01*
X121485714Y-102064285D01*
X121500000Y-102035714D01*
X121514285Y-102021428D01*
X121542857Y-102007142D01*
X121571428Y-102007142D01*
X121614285Y-102021428D01*
X121785714Y-102192857D01*
X121785714Y-102007142D01*
X121485714Y-101735714D02*
X121485714Y-101878571D01*
X121628571Y-101892857D01*
X121614285Y-101878571D01*
X121600000Y-101850000D01*
X121600000Y-101778571D01*
X121614285Y-101750000D01*
X121628571Y-101735714D01*
X121657142Y-101721428D01*
X121728571Y-101721428D01*
X121757142Y-101735714D01*
X121771428Y-101750000D01*
X121785714Y-101778571D01*
X121785714Y-101850000D01*
X121771428Y-101878571D01*
X121757142Y-101892857D01*
X130785714Y-102292857D02*
X130642857Y-102392857D01*
X130785714Y-102464285D02*
X130485714Y-102464285D01*
X130485714Y-102350000D01*
X130500000Y-102321428D01*
X130514285Y-102307142D01*
X130542857Y-102292857D01*
X130585714Y-102292857D01*
X130614285Y-102307142D01*
X130628571Y-102321428D01*
X130642857Y-102350000D01*
X130642857Y-102464285D01*
X130514285Y-102178571D02*
X130500000Y-102164285D01*
X130485714Y-102135714D01*
X130485714Y-102064285D01*
X130500000Y-102035714D01*
X130514285Y-102021428D01*
X130542857Y-102007142D01*
X130571428Y-102007142D01*
X130614285Y-102021428D01*
X130785714Y-102192857D01*
X130785714Y-102007142D01*
X130485714Y-101750000D02*
X130485714Y-101807142D01*
X130500000Y-101835714D01*
X130514285Y-101850000D01*
X130557142Y-101878571D01*
X130614285Y-101892857D01*
X130728571Y-101892857D01*
X130757142Y-101878571D01*
X130771428Y-101864285D01*
X130785714Y-101835714D01*
X130785714Y-101778571D01*
X130771428Y-101750000D01*
X130757142Y-101735714D01*
X130728571Y-101721428D01*
X130657142Y-101721428D01*
X130628571Y-101735714D01*
X130614285Y-101750000D01*
X130600000Y-101778571D01*
X130600000Y-101835714D01*
X130614285Y-101864285D01*
X130628571Y-101878571D01*
X130657142Y-101892857D01*
X119035714Y-102292857D02*
X118892857Y-102392857D01*
X119035714Y-102464285D02*
X118735714Y-102464285D01*
X118735714Y-102350000D01*
X118750000Y-102321428D01*
X118764285Y-102307142D01*
X118792857Y-102292857D01*
X118835714Y-102292857D01*
X118864285Y-102307142D01*
X118878571Y-102321428D01*
X118892857Y-102350000D01*
X118892857Y-102464285D01*
X118764285Y-102178571D02*
X118750000Y-102164285D01*
X118735714Y-102135714D01*
X118735714Y-102064285D01*
X118750000Y-102035714D01*
X118764285Y-102021428D01*
X118792857Y-102007142D01*
X118821428Y-102007142D01*
X118864285Y-102021428D01*
X119035714Y-102192857D01*
X119035714Y-102007142D01*
X119035714Y-101864285D02*
X119035714Y-101807142D01*
X119021428Y-101778571D01*
X119007142Y-101764285D01*
X118964285Y-101735714D01*
X118907142Y-101721428D01*
X118792857Y-101721428D01*
X118764285Y-101735714D01*
X118750000Y-101750000D01*
X118735714Y-101778571D01*
X118735714Y-101835714D01*
X118750000Y-101864285D01*
X118764285Y-101878571D01*
X118792857Y-101892857D01*
X118864285Y-101892857D01*
X118892857Y-101878571D01*
X118907142Y-101864285D01*
X118921428Y-101835714D01*
X118921428Y-101778571D01*
X118907142Y-101750000D01*
X118892857Y-101735714D01*
X118864285Y-101721428D01*
X128035714Y-102292857D02*
X127892857Y-102392857D01*
X128035714Y-102464285D02*
X127735714Y-102464285D01*
X127735714Y-102350000D01*
X127750000Y-102321428D01*
X127764285Y-102307142D01*
X127792857Y-102292857D01*
X127835714Y-102292857D01*
X127864285Y-102307142D01*
X127878571Y-102321428D01*
X127892857Y-102350000D01*
X127892857Y-102464285D01*
X127735714Y-102192857D02*
X127735714Y-102007142D01*
X127850000Y-102107142D01*
X127850000Y-102064285D01*
X127864285Y-102035714D01*
X127878571Y-102021428D01*
X127907142Y-102007142D01*
X127978571Y-102007142D01*
X128007142Y-102021428D01*
X128021428Y-102035714D01*
X128035714Y-102064285D01*
X128035714Y-102150000D01*
X128021428Y-102178571D01*
X128007142Y-102192857D01*
X127735714Y-101821428D02*
X127735714Y-101792857D01*
X127750000Y-101764285D01*
X127764285Y-101750000D01*
X127792857Y-101735714D01*
X127850000Y-101721428D01*
X127921428Y-101721428D01*
X127978571Y-101735714D01*
X128007142Y-101750000D01*
X128021428Y-101764285D01*
X128035714Y-101792857D01*
X128035714Y-101821428D01*
X128021428Y-101850000D01*
X128007142Y-101864285D01*
X127978571Y-101878571D01*
X127921428Y-101892857D01*
X127850000Y-101892857D01*
X127792857Y-101878571D01*
X127764285Y-101864285D01*
X127750000Y-101850000D01*
X127735714Y-101821428D01*
X126285714Y-102292857D02*
X126142857Y-102392857D01*
X126285714Y-102464285D02*
X125985714Y-102464285D01*
X125985714Y-102350000D01*
X126000000Y-102321428D01*
X126014285Y-102307142D01*
X126042857Y-102292857D01*
X126085714Y-102292857D01*
X126114285Y-102307142D01*
X126128571Y-102321428D01*
X126142857Y-102350000D01*
X126142857Y-102464285D01*
X125985714Y-102192857D02*
X125985714Y-102007142D01*
X126100000Y-102107142D01*
X126100000Y-102064285D01*
X126114285Y-102035714D01*
X126128571Y-102021428D01*
X126157142Y-102007142D01*
X126228571Y-102007142D01*
X126257142Y-102021428D01*
X126271428Y-102035714D01*
X126285714Y-102064285D01*
X126285714Y-102150000D01*
X126271428Y-102178571D01*
X126257142Y-102192857D01*
X125985714Y-101735714D02*
X125985714Y-101878571D01*
X126128571Y-101892857D01*
X126114285Y-101878571D01*
X126100000Y-101850000D01*
X126100000Y-101778571D01*
X126114285Y-101750000D01*
X126128571Y-101735714D01*
X126157142Y-101721428D01*
X126228571Y-101721428D01*
X126257142Y-101735714D01*
X126271428Y-101750000D01*
X126285714Y-101778571D01*
X126285714Y-101850000D01*
X126271428Y-101878571D01*
X126257142Y-101892857D01*
X123535714Y-102292857D02*
X123392857Y-102392857D01*
X123535714Y-102464285D02*
X123235714Y-102464285D01*
X123235714Y-102350000D01*
X123250000Y-102321428D01*
X123264285Y-102307142D01*
X123292857Y-102292857D01*
X123335714Y-102292857D01*
X123364285Y-102307142D01*
X123378571Y-102321428D01*
X123392857Y-102350000D01*
X123392857Y-102464285D01*
X123235714Y-102192857D02*
X123235714Y-102007142D01*
X123350000Y-102107142D01*
X123350000Y-102064285D01*
X123364285Y-102035714D01*
X123378571Y-102021428D01*
X123407142Y-102007142D01*
X123478571Y-102007142D01*
X123507142Y-102021428D01*
X123521428Y-102035714D01*
X123535714Y-102064285D01*
X123535714Y-102150000D01*
X123521428Y-102178571D01*
X123507142Y-102192857D01*
X123235714Y-101750000D02*
X123235714Y-101807142D01*
X123250000Y-101835714D01*
X123264285Y-101850000D01*
X123307142Y-101878571D01*
X123364285Y-101892857D01*
X123478571Y-101892857D01*
X123507142Y-101878571D01*
X123521428Y-101864285D01*
X123535714Y-101835714D01*
X123535714Y-101778571D01*
X123521428Y-101750000D01*
X123507142Y-101735714D01*
X123478571Y-101721428D01*
X123407142Y-101721428D01*
X123378571Y-101735714D01*
X123364285Y-101750000D01*
X123350000Y-101778571D01*
X123350000Y-101835714D01*
X123364285Y-101864285D01*
X123378571Y-101878571D01*
X123407142Y-101892857D01*
X151640000Y-109115714D02*
X151540000Y-108972857D01*
X151468571Y-109115714D02*
X151468571Y-108815714D01*
X151582857Y-108815714D01*
X151611428Y-108830000D01*
X151625714Y-108844285D01*
X151640000Y-108872857D01*
X151640000Y-108915714D01*
X151625714Y-108944285D01*
X151611428Y-108958571D01*
X151582857Y-108972857D01*
X151468571Y-108972857D01*
X151768571Y-109115714D02*
X151768571Y-108815714D01*
X151882857Y-108815714D01*
X151911428Y-108830000D01*
X151925714Y-108844285D01*
X151940000Y-108872857D01*
X151940000Y-108915714D01*
X151925714Y-108944285D01*
X151911428Y-108958571D01*
X151882857Y-108972857D01*
X151768571Y-108972857D01*
X152225714Y-109115714D02*
X152054285Y-109115714D01*
X152140000Y-109115714D02*
X152140000Y-108815714D01*
X152111428Y-108858571D01*
X152082857Y-108887142D01*
X152054285Y-108901428D01*
D10*
X135729047Y-98946190D02*
X135729047Y-99350952D01*
X135752857Y-99398571D01*
X135776666Y-99422380D01*
X135824285Y-99446190D01*
X135919523Y-99446190D01*
X135967142Y-99422380D01*
X135990952Y-99398571D01*
X136014761Y-99350952D01*
X136014761Y-98946190D01*
X136229047Y-98993809D02*
X136252857Y-98970000D01*
X136300476Y-98946190D01*
X136419523Y-98946190D01*
X136467142Y-98970000D01*
X136490952Y-98993809D01*
X136514761Y-99041428D01*
X136514761Y-99089047D01*
X136490952Y-99160476D01*
X136205238Y-99446190D01*
X136514761Y-99446190D01*
X130439047Y-77716190D02*
X130439047Y-78120952D01*
X130462857Y-78168571D01*
X130486666Y-78192380D01*
X130534285Y-78216190D01*
X130629523Y-78216190D01*
X130677142Y-78192380D01*
X130700952Y-78168571D01*
X130724761Y-78120952D01*
X130724761Y-77716190D01*
X131200952Y-77716190D02*
X130962857Y-77716190D01*
X130939047Y-77954285D01*
X130962857Y-77930476D01*
X131010476Y-77906666D01*
X131129523Y-77906666D01*
X131177142Y-77930476D01*
X131200952Y-77954285D01*
X131224761Y-78001904D01*
X131224761Y-78120952D01*
X131200952Y-78168571D01*
X131177142Y-78192380D01*
X131129523Y-78216190D01*
X131010476Y-78216190D01*
X130962857Y-78192380D01*
X130939047Y-78168571D01*
X122289047Y-86856190D02*
X122289047Y-87260952D01*
X122312857Y-87308571D01*
X122336666Y-87332380D01*
X122384285Y-87356190D01*
X122479523Y-87356190D01*
X122527142Y-87332380D01*
X122550952Y-87308571D01*
X122574761Y-87260952D01*
X122574761Y-86856190D01*
X122765238Y-86856190D02*
X123098571Y-86856190D01*
X122884285Y-87356190D01*
D13*
X132261428Y-114005714D02*
X132261428Y-114248571D01*
X132275714Y-114277142D01*
X132290000Y-114291428D01*
X132318571Y-114305714D01*
X132375714Y-114305714D01*
X132404285Y-114291428D01*
X132418571Y-114277142D01*
X132432857Y-114248571D01*
X132432857Y-114005714D01*
X132618571Y-114134285D02*
X132590000Y-114120000D01*
X132575714Y-114105714D01*
X132561428Y-114077142D01*
X132561428Y-114062857D01*
X132575714Y-114034285D01*
X132590000Y-114020000D01*
X132618571Y-114005714D01*
X132675714Y-114005714D01*
X132704285Y-114020000D01*
X132718571Y-114034285D01*
X132732857Y-114062857D01*
X132732857Y-114077142D01*
X132718571Y-114105714D01*
X132704285Y-114120000D01*
X132675714Y-114134285D01*
X132618571Y-114134285D01*
X132590000Y-114148571D01*
X132575714Y-114162857D01*
X132561428Y-114191428D01*
X132561428Y-114248571D01*
X132575714Y-114277142D01*
X132590000Y-114291428D01*
X132618571Y-114305714D01*
X132675714Y-114305714D01*
X132704285Y-114291428D01*
X132718571Y-114277142D01*
X132732857Y-114248571D01*
X132732857Y-114191428D01*
X132718571Y-114162857D01*
X132704285Y-114148571D01*
X132675714Y-114134285D01*
D10*
X122299047Y-93086190D02*
X122299047Y-93490952D01*
X122322857Y-93538571D01*
X122346666Y-93562380D01*
X122394285Y-93586190D01*
X122489523Y-93586190D01*
X122537142Y-93562380D01*
X122560952Y-93538571D01*
X122584761Y-93490952D01*
X122584761Y-93086190D01*
X122846666Y-93586190D02*
X122941904Y-93586190D01*
X122989523Y-93562380D01*
X123013333Y-93538571D01*
X123060952Y-93467142D01*
X123084761Y-93371904D01*
X123084761Y-93181428D01*
X123060952Y-93133809D01*
X123037142Y-93110000D01*
X122989523Y-93086190D01*
X122894285Y-93086190D01*
X122846666Y-93110000D01*
X122822857Y-93133809D01*
X122799047Y-93181428D01*
X122799047Y-93300476D01*
X122822857Y-93348095D01*
X122846666Y-93371904D01*
X122894285Y-93395714D01*
X122989523Y-93395714D01*
X123037142Y-93371904D01*
X123060952Y-93348095D01*
X123084761Y-93300476D01*
X132290952Y-107426190D02*
X132290952Y-107830952D01*
X132314761Y-107878571D01*
X132338571Y-107902380D01*
X132386190Y-107926190D01*
X132481428Y-107926190D01*
X132529047Y-107902380D01*
X132552857Y-107878571D01*
X132576666Y-107830952D01*
X132576666Y-107426190D01*
X133076666Y-107926190D02*
X132790952Y-107926190D01*
X132933809Y-107926190D02*
X132933809Y-107426190D01*
X132886190Y-107497619D01*
X132838571Y-107545238D01*
X132790952Y-107569047D01*
X133386190Y-107426190D02*
X133433809Y-107426190D01*
X133481428Y-107450000D01*
X133505238Y-107473809D01*
X133529047Y-107521428D01*
X133552857Y-107616666D01*
X133552857Y-107735714D01*
X133529047Y-107830952D01*
X133505238Y-107878571D01*
X133481428Y-107902380D01*
X133433809Y-107926190D01*
X133386190Y-107926190D01*
X133338571Y-107902380D01*
X133314761Y-107878571D01*
X133290952Y-107830952D01*
X133267142Y-107735714D01*
X133267142Y-107616666D01*
X133290952Y-107521428D01*
X133314761Y-107473809D01*
X133338571Y-107450000D01*
X133386190Y-107426190D01*
X122186190Y-104679047D02*
X122590952Y-104679047D01*
X122638571Y-104655238D01*
X122662380Y-104631428D01*
X122686190Y-104583809D01*
X122686190Y-104488571D01*
X122662380Y-104440952D01*
X122638571Y-104417142D01*
X122590952Y-104393333D01*
X122186190Y-104393333D01*
X122686190Y-103893333D02*
X122686190Y-104179047D01*
X122686190Y-104036190D02*
X122186190Y-104036190D01*
X122257619Y-104083809D01*
X122305238Y-104131428D01*
X122329047Y-104179047D01*
X122233809Y-103702857D02*
X122210000Y-103679047D01*
X122186190Y-103631428D01*
X122186190Y-103512380D01*
X122210000Y-103464761D01*
X122233809Y-103440952D01*
X122281428Y-103417142D01*
X122329047Y-103417142D01*
X122400476Y-103440952D01*
X122686190Y-103726666D01*
X122686190Y-103417142D01*
X131216190Y-104729047D02*
X131620952Y-104729047D01*
X131668571Y-104705238D01*
X131692380Y-104681428D01*
X131716190Y-104633809D01*
X131716190Y-104538571D01*
X131692380Y-104490952D01*
X131668571Y-104467142D01*
X131620952Y-104443333D01*
X131216190Y-104443333D01*
X131716190Y-103943333D02*
X131716190Y-104229047D01*
X131716190Y-104086190D02*
X131216190Y-104086190D01*
X131287619Y-104133809D01*
X131335238Y-104181428D01*
X131359047Y-104229047D01*
X131216190Y-103776666D02*
X131216190Y-103467142D01*
X131406666Y-103633809D01*
X131406666Y-103562380D01*
X131430476Y-103514761D01*
X131454285Y-103490952D01*
X131501904Y-103467142D01*
X131620952Y-103467142D01*
X131668571Y-103490952D01*
X131692380Y-103514761D01*
X131716190Y-103562380D01*
X131716190Y-103705238D01*
X131692380Y-103752857D01*
X131668571Y-103776666D01*
X126736190Y-104739047D02*
X127140952Y-104739047D01*
X127188571Y-104715238D01*
X127212380Y-104691428D01*
X127236190Y-104643809D01*
X127236190Y-104548571D01*
X127212380Y-104500952D01*
X127188571Y-104477142D01*
X127140952Y-104453333D01*
X126736190Y-104453333D01*
X127236190Y-103953333D02*
X127236190Y-104239047D01*
X127236190Y-104096190D02*
X126736190Y-104096190D01*
X126807619Y-104143809D01*
X126855238Y-104191428D01*
X126879047Y-104239047D01*
X126902857Y-103524761D02*
X127236190Y-103524761D01*
X126712380Y-103643809D02*
X127069523Y-103762857D01*
X127069523Y-103453333D01*
X135089047Y-75616190D02*
X135089047Y-76020952D01*
X135112857Y-76068571D01*
X135136666Y-76092380D01*
X135184285Y-76116190D01*
X135279523Y-76116190D01*
X135327142Y-76092380D01*
X135350952Y-76068571D01*
X135374761Y-76020952D01*
X135374761Y-75616190D01*
X135565238Y-75616190D02*
X135874761Y-75616190D01*
X135708095Y-75806666D01*
X135779523Y-75806666D01*
X135827142Y-75830476D01*
X135850952Y-75854285D01*
X135874761Y-75901904D01*
X135874761Y-76020952D01*
X135850952Y-76068571D01*
X135827142Y-76092380D01*
X135779523Y-76116190D01*
X135636666Y-76116190D01*
X135589047Y-76092380D01*
X135565238Y-76068571D01*
D13*
X129928571Y-85505714D02*
X130000000Y-85805714D01*
X130057142Y-85591428D01*
X130114285Y-85805714D01*
X130185714Y-85505714D01*
X130457142Y-85805714D02*
X130285714Y-85805714D01*
X130371428Y-85805714D02*
X130371428Y-85505714D01*
X130342857Y-85548571D01*
X130314285Y-85577142D01*
X130285714Y-85591428D01*
X130928571Y-85505714D02*
X131000000Y-85805714D01*
X131057142Y-85591428D01*
X131114285Y-85805714D01*
X131185714Y-85505714D01*
X131285714Y-85534285D02*
X131300000Y-85520000D01*
X131328571Y-85505714D01*
X131400000Y-85505714D01*
X131428571Y-85520000D01*
X131442857Y-85534285D01*
X131457142Y-85562857D01*
X131457142Y-85591428D01*
X131442857Y-85634285D01*
X131271428Y-85805714D01*
X131457142Y-85805714D01*
X131928571Y-85505714D02*
X132000000Y-85805714D01*
X132057142Y-85591428D01*
X132114285Y-85805714D01*
X132185714Y-85505714D01*
X132271428Y-85505714D02*
X132457142Y-85505714D01*
X132357142Y-85620000D01*
X132400000Y-85620000D01*
X132428571Y-85634285D01*
X132442857Y-85648571D01*
X132457142Y-85677142D01*
X132457142Y-85748571D01*
X132442857Y-85777142D01*
X132428571Y-85791428D01*
X132400000Y-85805714D01*
X132314285Y-85805714D01*
X132285714Y-85791428D01*
X132271428Y-85777142D01*
X132928571Y-85505714D02*
X133000000Y-85805714D01*
X133057142Y-85591428D01*
X133114285Y-85805714D01*
X133185714Y-85505714D01*
X133428571Y-85605714D02*
X133428571Y-85805714D01*
X133357142Y-85491428D02*
X133285714Y-85705714D01*
X133471428Y-85705714D01*
D10*
X126649047Y-81676190D02*
X126649047Y-82080952D01*
X126672857Y-82128571D01*
X126696666Y-82152380D01*
X126744285Y-82176190D01*
X126839523Y-82176190D01*
X126887142Y-82152380D01*
X126910952Y-82128571D01*
X126934761Y-82080952D01*
X126934761Y-81676190D01*
X127387142Y-81842857D02*
X127387142Y-82176190D01*
X127268095Y-81652380D02*
X127149047Y-82009523D01*
X127458571Y-82009523D01*
X137401680Y-113578571D02*
X137377871Y-113602380D01*
X137306442Y-113626190D01*
X137258823Y-113626190D01*
X137187395Y-113602380D01*
X137139776Y-113554761D01*
X137115966Y-113507142D01*
X137092157Y-113411904D01*
X137092157Y-113340476D01*
X137115966Y-113245238D01*
X137139776Y-113197619D01*
X137187395Y-113150000D01*
X137258823Y-113126190D01*
X137306442Y-113126190D01*
X137377871Y-113150000D01*
X137401680Y-113173809D01*
X137615966Y-113626190D02*
X137615966Y-113126190D01*
X137615966Y-113364285D02*
X137901680Y-113364285D01*
X137901680Y-113626190D02*
X137901680Y-113126190D01*
X138115966Y-113483333D02*
X138354061Y-113483333D01*
X138068347Y-113626190D02*
X138235014Y-113126190D01*
X138401680Y-113626190D01*
X138854061Y-113626190D02*
X138687395Y-113388095D01*
X138568347Y-113626190D02*
X138568347Y-113126190D01*
X138758823Y-113126190D01*
X138806442Y-113150000D01*
X138830252Y-113173809D01*
X138854061Y-113221428D01*
X138854061Y-113292857D01*
X138830252Y-113340476D01*
X138806442Y-113364285D01*
X138758823Y-113388095D01*
X138568347Y-113388095D01*
X139330252Y-113150000D02*
X139282633Y-113126190D01*
X139211204Y-113126190D01*
X139139776Y-113150000D01*
X139092157Y-113197619D01*
X139068347Y-113245238D01*
X139044538Y-113340476D01*
X139044538Y-113411904D01*
X139068347Y-113507142D01*
X139092157Y-113554761D01*
X139139776Y-113602380D01*
X139211204Y-113626190D01*
X139258823Y-113626190D01*
X139330252Y-113602380D01*
X139354061Y-113578571D01*
X139354061Y-113411904D01*
X139258823Y-113411904D01*
X139568347Y-113364285D02*
X139735014Y-113364285D01*
X139806442Y-113626190D02*
X139568347Y-113626190D01*
X139568347Y-113126190D01*
X139806442Y-113126190D01*
D13*
X152532619Y-111643095D02*
X152532619Y-111393095D01*
X152627857Y-111393095D01*
X152651666Y-111405000D01*
X152663571Y-111416904D01*
X152675476Y-111440714D01*
X152675476Y-111476428D01*
X152663571Y-111500238D01*
X152651666Y-111512142D01*
X152627857Y-111524047D01*
X152532619Y-111524047D01*
X152830238Y-111393095D02*
X152877857Y-111393095D01*
X152901666Y-111405000D01*
X152925476Y-111428809D01*
X152937380Y-111476428D01*
X152937380Y-111559761D01*
X152925476Y-111607380D01*
X152901666Y-111631190D01*
X152877857Y-111643095D01*
X152830238Y-111643095D01*
X152806428Y-111631190D01*
X152782619Y-111607380D01*
X152770714Y-111559761D01*
X152770714Y-111476428D01*
X152782619Y-111428809D01*
X152806428Y-111405000D01*
X152830238Y-111393095D01*
X153020714Y-111393095D02*
X153080238Y-111643095D01*
X153127857Y-111464523D01*
X153175476Y-111643095D01*
X153235000Y-111393095D01*
X153330238Y-111512142D02*
X153413571Y-111512142D01*
X153449285Y-111643095D02*
X153330238Y-111643095D01*
X153330238Y-111393095D01*
X153449285Y-111393095D01*
X153699285Y-111643095D02*
X153615952Y-111524047D01*
X153556428Y-111643095D02*
X153556428Y-111393095D01*
X153651666Y-111393095D01*
X153675476Y-111405000D01*
X153687380Y-111416904D01*
X153699285Y-111440714D01*
X153699285Y-111476428D01*
X153687380Y-111500238D01*
X153675476Y-111512142D01*
X153651666Y-111524047D01*
X153556428Y-111524047D01*
X149480952Y-111641190D02*
X149516666Y-111653095D01*
X149576190Y-111653095D01*
X149600000Y-111641190D01*
X149611904Y-111629285D01*
X149623809Y-111605476D01*
X149623809Y-111581666D01*
X149611904Y-111557857D01*
X149600000Y-111545952D01*
X149576190Y-111534047D01*
X149528571Y-111522142D01*
X149504761Y-111510238D01*
X149492857Y-111498333D01*
X149480952Y-111474523D01*
X149480952Y-111450714D01*
X149492857Y-111426904D01*
X149504761Y-111415000D01*
X149528571Y-111403095D01*
X149588095Y-111403095D01*
X149623809Y-111415000D01*
X149695238Y-111403095D02*
X149838095Y-111403095D01*
X149766666Y-111653095D02*
X149766666Y-111403095D01*
X149909523Y-111581666D02*
X150028571Y-111581666D01*
X149885714Y-111653095D02*
X149969047Y-111403095D01*
X150052380Y-111653095D01*
X150100000Y-111403095D02*
X150242857Y-111403095D01*
X150171428Y-111653095D02*
X150171428Y-111403095D01*
X150326190Y-111403095D02*
X150326190Y-111605476D01*
X150338095Y-111629285D01*
X150350000Y-111641190D01*
X150373809Y-111653095D01*
X150421428Y-111653095D01*
X150445238Y-111641190D01*
X150457142Y-111629285D01*
X150469047Y-111605476D01*
X150469047Y-111403095D01*
X150576190Y-111641190D02*
X150611904Y-111653095D01*
X150671428Y-111653095D01*
X150695238Y-111641190D01*
X150707142Y-111629285D01*
X150719047Y-111605476D01*
X150719047Y-111581666D01*
X150707142Y-111557857D01*
X150695238Y-111545952D01*
X150671428Y-111534047D01*
X150623809Y-111522142D01*
X150600000Y-111510238D01*
X150588095Y-111498333D01*
X150576190Y-111474523D01*
X150576190Y-111450714D01*
X150588095Y-111426904D01*
X150600000Y-111415000D01*
X150623809Y-111403095D01*
X150683333Y-111403095D01*
X150719047Y-111415000D01*
X148030476Y-111653095D02*
X148030476Y-111403095D01*
X148090000Y-111403095D01*
X148125714Y-111415000D01*
X148149523Y-111438809D01*
X148161428Y-111462619D01*
X148173333Y-111510238D01*
X148173333Y-111545952D01*
X148161428Y-111593571D01*
X148149523Y-111617380D01*
X148125714Y-111641190D01*
X148090000Y-111653095D01*
X148030476Y-111653095D01*
X148280476Y-111522142D02*
X148363809Y-111522142D01*
X148399523Y-111653095D02*
X148280476Y-111653095D01*
X148280476Y-111403095D01*
X148399523Y-111403095D01*
X148590000Y-111522142D02*
X148625714Y-111534047D01*
X148637619Y-111545952D01*
X148649523Y-111569761D01*
X148649523Y-111605476D01*
X148637619Y-111629285D01*
X148625714Y-111641190D01*
X148601904Y-111653095D01*
X148506666Y-111653095D01*
X148506666Y-111403095D01*
X148590000Y-111403095D01*
X148613809Y-111415000D01*
X148625714Y-111426904D01*
X148637619Y-111450714D01*
X148637619Y-111474523D01*
X148625714Y-111498333D01*
X148613809Y-111510238D01*
X148590000Y-111522142D01*
X148506666Y-111522142D01*
X148756666Y-111403095D02*
X148756666Y-111605476D01*
X148768571Y-111629285D01*
X148780476Y-111641190D01*
X148804285Y-111653095D01*
X148851904Y-111653095D01*
X148875714Y-111641190D01*
X148887619Y-111629285D01*
X148899523Y-111605476D01*
X148899523Y-111403095D01*
X149149523Y-111415000D02*
X149125714Y-111403095D01*
X149090000Y-111403095D01*
X149054285Y-111415000D01*
X149030476Y-111438809D01*
X149018571Y-111462619D01*
X149006666Y-111510238D01*
X149006666Y-111545952D01*
X149018571Y-111593571D01*
X149030476Y-111617380D01*
X149054285Y-111641190D01*
X149090000Y-111653095D01*
X149113809Y-111653095D01*
X149149523Y-111641190D01*
X149161428Y-111629285D01*
X149161428Y-111545952D01*
X149113809Y-111545952D01*
X151040476Y-111522142D02*
X151123809Y-111522142D01*
X151159523Y-111653095D02*
X151040476Y-111653095D01*
X151040476Y-111403095D01*
X151159523Y-111403095D01*
X151409523Y-111653095D02*
X151326190Y-111534047D01*
X151266666Y-111653095D02*
X151266666Y-111403095D01*
X151361904Y-111403095D01*
X151385714Y-111415000D01*
X151397619Y-111426904D01*
X151409523Y-111450714D01*
X151409523Y-111486428D01*
X151397619Y-111510238D01*
X151385714Y-111522142D01*
X151361904Y-111534047D01*
X151266666Y-111534047D01*
X151659523Y-111653095D02*
X151576190Y-111534047D01*
X151516666Y-111653095D02*
X151516666Y-111403095D01*
X151611904Y-111403095D01*
X151635714Y-111415000D01*
X151647619Y-111426904D01*
X151659523Y-111450714D01*
X151659523Y-111486428D01*
X151647619Y-111510238D01*
X151635714Y-111522142D01*
X151611904Y-111534047D01*
X151516666Y-111534047D01*
X151814285Y-111403095D02*
X151861904Y-111403095D01*
X151885714Y-111415000D01*
X151909523Y-111438809D01*
X151921428Y-111486428D01*
X151921428Y-111569761D01*
X151909523Y-111617380D01*
X151885714Y-111641190D01*
X151861904Y-111653095D01*
X151814285Y-111653095D01*
X151790476Y-111641190D01*
X151766666Y-111617380D01*
X151754761Y-111569761D01*
X151754761Y-111486428D01*
X151766666Y-111438809D01*
X151790476Y-111415000D01*
X151814285Y-111403095D01*
X152171428Y-111653095D02*
X152088095Y-111534047D01*
X152028571Y-111653095D02*
X152028571Y-111403095D01*
X152123809Y-111403095D01*
X152147619Y-111415000D01*
X152159523Y-111426904D01*
X152171428Y-111450714D01*
X152171428Y-111486428D01*
X152159523Y-111510238D01*
X152147619Y-111522142D01*
X152123809Y-111534047D01*
X152028571Y-111534047D01*
X135207142Y-95857142D02*
X135192857Y-95871428D01*
X135150000Y-95885714D01*
X135121428Y-95885714D01*
X135078571Y-95871428D01*
X135050000Y-95842857D01*
X135035714Y-95814285D01*
X135021428Y-95757142D01*
X135021428Y-95714285D01*
X135035714Y-95657142D01*
X135050000Y-95628571D01*
X135078571Y-95600000D01*
X135121428Y-95585714D01*
X135150000Y-95585714D01*
X135192857Y-95600000D01*
X135207142Y-95614285D01*
X135492857Y-95885714D02*
X135321428Y-95885714D01*
X135407142Y-95885714D02*
X135407142Y-95585714D01*
X135378571Y-95628571D01*
X135350000Y-95657142D01*
X135321428Y-95671428D01*
X135592857Y-95585714D02*
X135778571Y-95585714D01*
X135678571Y-95700000D01*
X135721428Y-95700000D01*
X135750000Y-95714285D01*
X135764285Y-95728571D01*
X135778571Y-95757142D01*
X135778571Y-95828571D01*
X135764285Y-95857142D01*
X135750000Y-95871428D01*
X135721428Y-95885714D01*
X135635714Y-95885714D01*
X135607142Y-95871428D01*
X135592857Y-95857142D01*
X126557142Y-86042857D02*
X126571428Y-86057142D01*
X126585714Y-86100000D01*
X126585714Y-86128571D01*
X126571428Y-86171428D01*
X126542857Y-86200000D01*
X126514285Y-86214285D01*
X126457142Y-86228571D01*
X126414285Y-86228571D01*
X126357142Y-86214285D01*
X126328571Y-86200000D01*
X126300000Y-86171428D01*
X126285714Y-86128571D01*
X126285714Y-86100000D01*
X126300000Y-86057142D01*
X126314285Y-86042857D01*
X126314285Y-85928571D02*
X126300000Y-85914285D01*
X126285714Y-85885714D01*
X126285714Y-85814285D01*
X126300000Y-85785714D01*
X126314285Y-85771428D01*
X126342857Y-85757142D01*
X126371428Y-85757142D01*
X126414285Y-85771428D01*
X126585714Y-85942857D01*
X126585714Y-85757142D01*
X126285714Y-85657142D02*
X126285714Y-85471428D01*
X126400000Y-85571428D01*
X126400000Y-85528571D01*
X126414285Y-85500000D01*
X126428571Y-85485714D01*
X126457142Y-85471428D01*
X126528571Y-85471428D01*
X126557142Y-85485714D01*
X126571428Y-85500000D01*
X126585714Y-85528571D01*
X126585714Y-85614285D01*
X126571428Y-85642857D01*
X126557142Y-85657142D01*
X118607142Y-108642857D02*
X118621428Y-108657142D01*
X118635714Y-108700000D01*
X118635714Y-108728571D01*
X118621428Y-108771428D01*
X118592857Y-108800000D01*
X118564285Y-108814285D01*
X118507142Y-108828571D01*
X118464285Y-108828571D01*
X118407142Y-108814285D01*
X118378571Y-108800000D01*
X118350000Y-108771428D01*
X118335714Y-108728571D01*
X118335714Y-108700000D01*
X118350000Y-108657142D01*
X118364285Y-108642857D01*
X118335714Y-108542857D02*
X118335714Y-108357142D01*
X118450000Y-108457142D01*
X118450000Y-108414285D01*
X118464285Y-108385714D01*
X118478571Y-108371428D01*
X118507142Y-108357142D01*
X118578571Y-108357142D01*
X118607142Y-108371428D01*
X118621428Y-108385714D01*
X118635714Y-108414285D01*
X118635714Y-108500000D01*
X118621428Y-108528571D01*
X118607142Y-108542857D01*
X118335714Y-108085714D02*
X118335714Y-108228571D01*
X118478571Y-108242857D01*
X118464285Y-108228571D01*
X118450000Y-108200000D01*
X118450000Y-108128571D01*
X118464285Y-108100000D01*
X118478571Y-108085714D01*
X118507142Y-108071428D01*
X118578571Y-108071428D01*
X118607142Y-108085714D01*
X118621428Y-108100000D01*
X118635714Y-108128571D01*
X118635714Y-108200000D01*
X118621428Y-108228571D01*
X118607142Y-108242857D01*
X123107142Y-108642857D02*
X123121428Y-108657142D01*
X123135714Y-108700000D01*
X123135714Y-108728571D01*
X123121428Y-108771428D01*
X123092857Y-108800000D01*
X123064285Y-108814285D01*
X123007142Y-108828571D01*
X122964285Y-108828571D01*
X122907142Y-108814285D01*
X122878571Y-108800000D01*
X122850000Y-108771428D01*
X122835714Y-108728571D01*
X122835714Y-108700000D01*
X122850000Y-108657142D01*
X122864285Y-108642857D01*
X122935714Y-108385714D02*
X123135714Y-108385714D01*
X122821428Y-108457142D02*
X123035714Y-108528571D01*
X123035714Y-108342857D01*
X122835714Y-108171428D02*
X122835714Y-108142857D01*
X122850000Y-108114285D01*
X122864285Y-108100000D01*
X122892857Y-108085714D01*
X122950000Y-108071428D01*
X123021428Y-108071428D01*
X123078571Y-108085714D01*
X123107142Y-108100000D01*
X123121428Y-108114285D01*
X123135714Y-108142857D01*
X123135714Y-108171428D01*
X123121428Y-108200000D01*
X123107142Y-108214285D01*
X123078571Y-108228571D01*
X123021428Y-108242857D01*
X122950000Y-108242857D01*
X122892857Y-108228571D01*
X122864285Y-108214285D01*
X122850000Y-108200000D01*
X122835714Y-108171428D01*
X126557142Y-92342857D02*
X126571428Y-92357142D01*
X126585714Y-92400000D01*
X126585714Y-92428571D01*
X126571428Y-92471428D01*
X126542857Y-92500000D01*
X126514285Y-92514285D01*
X126457142Y-92528571D01*
X126414285Y-92528571D01*
X126357142Y-92514285D01*
X126328571Y-92500000D01*
X126300000Y-92471428D01*
X126285714Y-92428571D01*
X126285714Y-92400000D01*
X126300000Y-92357142D01*
X126314285Y-92342857D01*
X126314285Y-92228571D02*
X126300000Y-92214285D01*
X126285714Y-92185714D01*
X126285714Y-92114285D01*
X126300000Y-92085714D01*
X126314285Y-92071428D01*
X126342857Y-92057142D01*
X126371428Y-92057142D01*
X126414285Y-92071428D01*
X126585714Y-92242857D01*
X126585714Y-92057142D01*
X126285714Y-91957142D02*
X126285714Y-91757142D01*
X126585714Y-91885714D01*
X123107142Y-110242857D02*
X123121428Y-110257142D01*
X123135714Y-110300000D01*
X123135714Y-110328571D01*
X123121428Y-110371428D01*
X123092857Y-110400000D01*
X123064285Y-110414285D01*
X123007142Y-110428571D01*
X122964285Y-110428571D01*
X122907142Y-110414285D01*
X122878571Y-110400000D01*
X122850000Y-110371428D01*
X122835714Y-110328571D01*
X122835714Y-110300000D01*
X122850000Y-110257142D01*
X122864285Y-110242857D01*
X122835714Y-110142857D02*
X122835714Y-109957142D01*
X122950000Y-110057142D01*
X122950000Y-110014285D01*
X122964285Y-109985714D01*
X122978571Y-109971428D01*
X123007142Y-109957142D01*
X123078571Y-109957142D01*
X123107142Y-109971428D01*
X123121428Y-109985714D01*
X123135714Y-110014285D01*
X123135714Y-110100000D01*
X123121428Y-110128571D01*
X123107142Y-110142857D01*
X123135714Y-109814285D02*
X123135714Y-109757142D01*
X123121428Y-109728571D01*
X123107142Y-109714285D01*
X123064285Y-109685714D01*
X123007142Y-109671428D01*
X122892857Y-109671428D01*
X122864285Y-109685714D01*
X122850000Y-109700000D01*
X122835714Y-109728571D01*
X122835714Y-109785714D01*
X122850000Y-109814285D01*
X122864285Y-109828571D01*
X122892857Y-109842857D01*
X122964285Y-109842857D01*
X122992857Y-109828571D01*
X123007142Y-109814285D01*
X123021428Y-109785714D01*
X123021428Y-109728571D01*
X123007142Y-109700000D01*
X122992857Y-109685714D01*
X122964285Y-109671428D01*
X123107142Y-100392857D02*
X123121428Y-100407142D01*
X123135714Y-100450000D01*
X123135714Y-100478571D01*
X123121428Y-100521428D01*
X123092857Y-100550000D01*
X123064285Y-100564285D01*
X123007142Y-100578571D01*
X122964285Y-100578571D01*
X122907142Y-100564285D01*
X122878571Y-100550000D01*
X122850000Y-100521428D01*
X122835714Y-100478571D01*
X122835714Y-100450000D01*
X122850000Y-100407142D01*
X122864285Y-100392857D01*
X122835714Y-100292857D02*
X122835714Y-100107142D01*
X122950000Y-100207142D01*
X122950000Y-100164285D01*
X122964285Y-100135714D01*
X122978571Y-100121428D01*
X123007142Y-100107142D01*
X123078571Y-100107142D01*
X123107142Y-100121428D01*
X123121428Y-100135714D01*
X123135714Y-100164285D01*
X123135714Y-100250000D01*
X123121428Y-100278571D01*
X123107142Y-100292857D01*
X122964285Y-99935714D02*
X122950000Y-99964285D01*
X122935714Y-99978571D01*
X122907142Y-99992857D01*
X122892857Y-99992857D01*
X122864285Y-99978571D01*
X122850000Y-99964285D01*
X122835714Y-99935714D01*
X122835714Y-99878571D01*
X122850000Y-99850000D01*
X122864285Y-99835714D01*
X122892857Y-99821428D01*
X122907142Y-99821428D01*
X122935714Y-99835714D01*
X122950000Y-99850000D01*
X122964285Y-99878571D01*
X122964285Y-99935714D01*
X122978571Y-99964285D01*
X122992857Y-99978571D01*
X123021428Y-99992857D01*
X123078571Y-99992857D01*
X123107142Y-99978571D01*
X123121428Y-99964285D01*
X123135714Y-99935714D01*
X123135714Y-99878571D01*
X123121428Y-99850000D01*
X123107142Y-99835714D01*
X123078571Y-99821428D01*
X123021428Y-99821428D01*
X122992857Y-99835714D01*
X122978571Y-99850000D01*
X122964285Y-99878571D01*
X127607142Y-110242857D02*
X127621428Y-110257142D01*
X127635714Y-110300000D01*
X127635714Y-110328571D01*
X127621428Y-110371428D01*
X127592857Y-110400000D01*
X127564285Y-110414285D01*
X127507142Y-110428571D01*
X127464285Y-110428571D01*
X127407142Y-110414285D01*
X127378571Y-110400000D01*
X127350000Y-110371428D01*
X127335714Y-110328571D01*
X127335714Y-110300000D01*
X127350000Y-110257142D01*
X127364285Y-110242857D01*
X127335714Y-110142857D02*
X127335714Y-109957142D01*
X127450000Y-110057142D01*
X127450000Y-110014285D01*
X127464285Y-109985714D01*
X127478571Y-109971428D01*
X127507142Y-109957142D01*
X127578571Y-109957142D01*
X127607142Y-109971428D01*
X127621428Y-109985714D01*
X127635714Y-110014285D01*
X127635714Y-110100000D01*
X127621428Y-110128571D01*
X127607142Y-110142857D01*
X127335714Y-109700000D02*
X127335714Y-109757142D01*
X127350000Y-109785714D01*
X127364285Y-109800000D01*
X127407142Y-109828571D01*
X127464285Y-109842857D01*
X127578571Y-109842857D01*
X127607142Y-109828571D01*
X127621428Y-109814285D01*
X127635714Y-109785714D01*
X127635714Y-109728571D01*
X127621428Y-109700000D01*
X127607142Y-109685714D01*
X127578571Y-109671428D01*
X127507142Y-109671428D01*
X127478571Y-109685714D01*
X127464285Y-109700000D01*
X127450000Y-109728571D01*
X127450000Y-109785714D01*
X127464285Y-109814285D01*
X127478571Y-109828571D01*
X127507142Y-109842857D01*
X118607142Y-100392857D02*
X118621428Y-100407142D01*
X118635714Y-100450000D01*
X118635714Y-100478571D01*
X118621428Y-100521428D01*
X118592857Y-100550000D01*
X118564285Y-100564285D01*
X118507142Y-100578571D01*
X118464285Y-100578571D01*
X118407142Y-100564285D01*
X118378571Y-100550000D01*
X118350000Y-100521428D01*
X118335714Y-100478571D01*
X118335714Y-100450000D01*
X118350000Y-100407142D01*
X118364285Y-100392857D01*
X118335714Y-100292857D02*
X118335714Y-100107142D01*
X118450000Y-100207142D01*
X118450000Y-100164285D01*
X118464285Y-100135714D01*
X118478571Y-100121428D01*
X118507142Y-100107142D01*
X118578571Y-100107142D01*
X118607142Y-100121428D01*
X118621428Y-100135714D01*
X118635714Y-100164285D01*
X118635714Y-100250000D01*
X118621428Y-100278571D01*
X118607142Y-100292857D01*
X118364285Y-99992857D02*
X118350000Y-99978571D01*
X118335714Y-99950000D01*
X118335714Y-99878571D01*
X118350000Y-99850000D01*
X118364285Y-99835714D01*
X118392857Y-99821428D01*
X118421428Y-99821428D01*
X118464285Y-99835714D01*
X118635714Y-100007142D01*
X118635714Y-99821428D01*
X127607142Y-100392857D02*
X127621428Y-100407142D01*
X127635714Y-100450000D01*
X127635714Y-100478571D01*
X127621428Y-100521428D01*
X127592857Y-100550000D01*
X127564285Y-100564285D01*
X127507142Y-100578571D01*
X127464285Y-100578571D01*
X127407142Y-100564285D01*
X127378571Y-100550000D01*
X127350000Y-100521428D01*
X127335714Y-100478571D01*
X127335714Y-100450000D01*
X127350000Y-100407142D01*
X127364285Y-100392857D01*
X127335714Y-100292857D02*
X127335714Y-100107142D01*
X127450000Y-100207142D01*
X127450000Y-100164285D01*
X127464285Y-100135714D01*
X127478571Y-100121428D01*
X127507142Y-100107142D01*
X127578571Y-100107142D01*
X127607142Y-100121428D01*
X127621428Y-100135714D01*
X127635714Y-100164285D01*
X127635714Y-100250000D01*
X127621428Y-100278571D01*
X127607142Y-100292857D01*
X127335714Y-100007142D02*
X127335714Y-99821428D01*
X127450000Y-99921428D01*
X127450000Y-99878571D01*
X127464285Y-99850000D01*
X127478571Y-99835714D01*
X127507142Y-99821428D01*
X127578571Y-99821428D01*
X127607142Y-99835714D01*
X127621428Y-99850000D01*
X127635714Y-99878571D01*
X127635714Y-99964285D01*
X127621428Y-99992857D01*
X127607142Y-100007142D01*
X118607142Y-110242857D02*
X118621428Y-110257142D01*
X118635714Y-110300000D01*
X118635714Y-110328571D01*
X118621428Y-110371428D01*
X118592857Y-110400000D01*
X118564285Y-110414285D01*
X118507142Y-110428571D01*
X118464285Y-110428571D01*
X118407142Y-110414285D01*
X118378571Y-110400000D01*
X118350000Y-110371428D01*
X118335714Y-110328571D01*
X118335714Y-110300000D01*
X118350000Y-110257142D01*
X118364285Y-110242857D01*
X118335714Y-110142857D02*
X118335714Y-109957142D01*
X118450000Y-110057142D01*
X118450000Y-110014285D01*
X118464285Y-109985714D01*
X118478571Y-109971428D01*
X118507142Y-109957142D01*
X118578571Y-109957142D01*
X118607142Y-109971428D01*
X118621428Y-109985714D01*
X118635714Y-110014285D01*
X118635714Y-110100000D01*
X118621428Y-110128571D01*
X118607142Y-110142857D01*
X118435714Y-109700000D02*
X118635714Y-109700000D01*
X118321428Y-109771428D02*
X118535714Y-109842857D01*
X118535714Y-109657142D01*
X127607142Y-108642857D02*
X127621428Y-108657142D01*
X127635714Y-108700000D01*
X127635714Y-108728571D01*
X127621428Y-108771428D01*
X127592857Y-108800000D01*
X127564285Y-108814285D01*
X127507142Y-108828571D01*
X127464285Y-108828571D01*
X127407142Y-108814285D01*
X127378571Y-108800000D01*
X127350000Y-108771428D01*
X127335714Y-108728571D01*
X127335714Y-108700000D01*
X127350000Y-108657142D01*
X127364285Y-108642857D01*
X127335714Y-108542857D02*
X127335714Y-108357142D01*
X127450000Y-108457142D01*
X127450000Y-108414285D01*
X127464285Y-108385714D01*
X127478571Y-108371428D01*
X127507142Y-108357142D01*
X127578571Y-108357142D01*
X127607142Y-108371428D01*
X127621428Y-108385714D01*
X127635714Y-108414285D01*
X127635714Y-108500000D01*
X127621428Y-108528571D01*
X127607142Y-108542857D01*
X127335714Y-108257142D02*
X127335714Y-108057142D01*
X127635714Y-108185714D01*
M02*
